<?xml version="1.0" encoding="UTF-8"?><svg id="Layer_2" xmlns="http://www.w3.org/2000/svg" xmlns:xlink="http://www.w3.org/1999/xlink" viewBox="0 0 749.94 683.65"><defs><style>.cls-1{fill:none;}.cls-2{clip-path:url(#clippath);}.cls-3{fill:#67c0e4;}.cls-4{fill:#ffe1d2;}.cls-5{fill:#fff;}.cls-6{fill:#0a0948;}.cls-7{fill:#5250bb;}.cls-8{clip-path:url(#clippath-1);}.cls-9{clip-path:url(#clippath-2);}</style><clipPath id="clippath"><rect class="cls-1" x="43.19" width="656" height="675.22"/></clipPath><clipPath id="clippath-1"><rect class="cls-1" y="20.55" width="734.08" height="663.09"/></clipPath><clipPath id="clippath-2"><rect class="cls-1" x="54.09" y="272.63" width="695.85" height="381.26"/></clipPath></defs><g id="Layer_1-2"><g class="cls-2"><path class="cls-3" d="M597.67,599.77l11.89,53.25h-50.16l-4.54-20.34c-54.22,32.88-128.49,49.63-230.1,39.56-166.03-16.44-280.84-123.12-280.84-290.09S192.83,.41,359.66,.41s339.17,105.35,339.17,272.32c0,102.38-12.88,242.05-101.16,327.04"/></g><g class="cls-8"><path class="cls-6" d="M123.89,340.38c.03,.78,.08,1.55,.19,2.32,.37,3.33,1.41,6.57,2.9,9.57,1.05,2.08,2.35,4.03,3.85,5.82,.6-1.97,1.21-3.91,1.79-5.81-3.89-3.11-6.89-7.27-8.73-11.9Zm92.86,30.45c-.19,1.14-.44,2.27-.72,3.4,1.03-1.67,1.87-3.45,2.49-5.31,2.21-6.72,2.06-13.98,1.88-21.16-.11-7.21-.06-14.44,.29-21.65,.23-5.06,.61-10.1,1.11-15.15-.46-.08-.92-.16-1.38-.27-4.27,9.18-4.44,19.71-3.84,29.82,.59,10.11,1.85,20.32,.16,30.31Zm5.94-59.71c-.22,3.63-.4,7.27-.54,10.9,.31-3.65,.73-7.27,1.28-10.82-.24-.03-.49-.04-.74-.08Zm59.3-67.91c-1.82,2.82-3.51,5.76-4.83,8.82,13.55-.33,30.14,3.48,50.33,12.8-.29-3.53-.29-7.1-.29-10.65,0-2.51-.08-5.18-.54-7.7-.7-.39-1.4-.76-2.14-1.04-1.05-.4-2.13-.72-3.23-.9-1.1-.2-2.22-.26-3.34-.23-1.13,.04-2.26,.21-3.39,.46-.16,.04-.32-.06-.36-.22-.02-.13,.04-.26,.14-.32,1.06-.64,2.26-1.02,3.48-1.22,1.23-.21,2.5-.18,3.73,0,1.23,.21,2.44,.59,3.54,1.18,.44,.23,.84,.5,1.24,.78-.34-1.29-.8-2.51-1.43-3.63-.23-.05-.46-.1-.69-.15-.73-.13-1.45-.24-2.18-.28-.73-.06-1.46-.05-2.2-.03-.74,.03-1.49,.13-2.27,.22-.16,.02-.32-.09-.34-.26-.02-.12,.04-.23,.13-.29,.69-.47,1.47-.77,2.29-.96,.81-.2,1.65-.26,2.48-.22,.54,.04,1.07,.14,1.59,.26-.35-.42-.76-.81-1.19-1.17-1.08-.14-2.16-.16-3.21-.03-1.11,.15-2.2,.42-3.22,.85-1.04,.41-2.01,.98-2.91,1.64-.9,.68-1.7,1.49-2.41,2.42-.1,.14-.29,.16-.42,.06-.1-.08-.14-.22-.1-.34,.86-2.36,2.92-4.23,5.25-5.2,1.18-.48,2.44-.78,3.72-.79,.32,0,.65,0,.96,.03-4.92-1.78-11.95,1.2-13.35,6.23-.41-4.47-3.96-8.32-8.21-9.56,.35,.28,.7,.55,1.03,.86,.95,.94,1.77,2.01,2.38,3.19,.61,1.19,1.04,2.46,1.17,3.77,.02,.17-.1,.31-.27,.33-.13,.01-.25-.07-.3-.18-.48-1.16-1.04-2.24-1.72-3.24-.69-.99-1.45-1.93-2.32-2.76-.86-.83-1.82-1.56-2.84-2.2-.1-.06-.2-.11-.3-.17-.15,.01-.3,0-.45,.02-1.32,.11-2.57,.45-3.76,.97,.84,.07,1.67,.24,2.48,.48,2.57,.82,4.92,2.6,6.1,5.01,.07,.15,.02,.32-.13,.4-.12,.06-.27,.03-.35-.06-.85-.93-1.78-1.72-2.81-2.36-1.04-.64-2.13-1.16-3.28-1.5-1.14-.36-2.33-.55-3.54-.61-.3-.01-.6,.02-.9,.03-.77,.53-1.52,1.13-2.21,1.79,.42-.04,.84-.05,1.26-.04,.81,.04,1.62,.13,2.39,.34,.78,.2,1.54,.48,2.24,.9,.14,.08,.19,.27,.1,.42-.06,.1-.17,.15-.29,.15l-2.26-.17c-.75-.04-1.48-.08-2.22-.08-.73-.02-1.47,0-2.21,.02l-.52,.02c-1.15,1.29-2.19,2.7-3.11,4.13Zm-160.07,89.04c-.66-7.76,1.98-15.73,7.13-21.56,5.41-6.1,13.48-10.07,16.77-17.54,3.69-8.37,.05-17.93-1.03-27.02-.28-2.32-.35-4.66-.27-6.98-.3,1.52-.51,3.05-.59,4.6-.43,5.76,.28,11.67-.6,17.63-.45,2.95-1.32,5.87-2.77,8.52-1.46,2.63-3.59,4.95-6.28,6.32-.14,.08-.32,.02-.4-.13-.07-.14-.02-.31,.11-.39,2.49-1.44,4.38-3.73,5.63-6.29,1.29-2.55,2.05-5.36,2.4-8.21,.7-5.72,0-11.59,.35-17.55,.27-4.22,1.33-8.42,3.12-12.26,2.77-13.19,11.07-25.28,22.8-31.98,12.58-7.19,28.68-9.53,38.22-20.43,13.38-15.28,34.32-23.56,54.52-21.59,11.96,1.17,23.47,5.95,32.99,13.29,18.66-11.41,43.86,2.45,55.32,15.98,12.34,14.57,14.74,36.79,5.78,53.65-2.6,4.92-6.13,9.56-6.92,15.06-.79,5.51,3.1,11.19,8.65,11.08-4.42,4.49-12.03,4.74-17.49,1.61-2.28-1.31-4.19-3.11-5.79-5.18-.5,22.8,.46,66.06,13.54,87.24,18.24,29.56-1.76,72.6-1.76,72.6,0,0-96.91-1.58-112.78-36.74-4.41-9.77-9.08-30.06-10.6-52.8-.02,5.43-.36,10.93-2.19,16.18-1.08,3.02-2.7,5.83-4.8,8.25-2.57,7.49-7.29,14.23-14.29,17.68-7.33,3.59-15.99,3.08-24.01,1.56-8.01-1.52-15.97-3.31-24.09-4.07-8.68-.82-15.35-.88-24.32,3.54-2.22-4.31-2.7-9.54-2.02-18.11,.5-6.28,2.32-12.84,4.24-19.14-1.85-1.81-3.43-3.91-4.7-6.19-1.72-3.07-2.82-6.49-3.29-9.99-.26-2.23-.22-4.48,.05-6.7-.3-1.3-.54-2.61-.66-3.94ZM633.69,120.56v4.64h19.3v-4.64h-19.3Zm0,39.6h25.75v-4.64h-25.75v4.64Zm19.71-5.54h18.58v-4.64h-18.58v4.64Zm-19.71,0h19.3v-4.64h-19.3v4.64Zm0-5.53h34.78v-4.64h-34.78v4.64Zm0-7.3h25.75v-4.64h-25.75v4.64Zm42.52-10.17h-22.8v4.64h22.8v-4.64Zm-42.52,4.64h19.3v-4.64h-19.3v4.64Zm0-5.54h34.78v-4.64h-34.78v4.64Zm-49.57-13.59h38.3v-4.64h-38.3v4.64Zm34.78-45.47h-34.78v4.64h34.78v-4.64Zm-34.78,40.14h25.75v-4.64h-25.75v4.64Zm38.3-10.18h-18.59v4.64h18.59v-4.64Zm-38.3,4.64h19.3v-4.64h-19.3v4.64Zm0-5.53h34.78v-4.64h-34.78v4.64Zm0-7.3h25.75v-4.64h-25.75v4.64Zm42.52-10.17h-22.81v4.64h22.81v-4.64Zm-42.52,4.64h19.3v-4.64h-19.3v4.64Zm0-5.53h34.78v-4.64h-34.78v4.64Zm85.4-17.35h-34.78v4.64h34.78v-4.64Zm-9.03-5.49h-25.76v4.64h25.76v-4.64Zm-6.04-.89h18.59v-4.64h-18.59v4.64Zm-.41-4.64h-19.31v4.64h19.31v-4.64Zm15.47-5.53h-34.78v4.64h34.78v-4.64Zm-9.03-7.3h-25.76v4.64h25.76v-4.64Zm-6.04-.9h22.81v-4.64h-22.81v4.64Zm-.41-4.64h-19.31v4.64h19.31v-4.64Zm15.47-5.53h-34.78v4.64h34.78v-4.64Zm4.93,46.2h-36.89v36.92h36.89v-36.92Zm4.64,41.56h-46.17v-46.2h46.17v46.2Zm-54.21,7.34h-36.89v29.58h36.89v-29.58Zm4.64,34.22h-46.16v-38.86h46.16v38.86Zm-4.64-124.68h-36.89v30.27h36.89v-30.27Zm4.64,34.91h-46.16V30.11h46.16v39.55Zm34.85,226.58h-25.76v4.64h25.76v-4.64Zm16.77-5.53h-22.81v4.64h22.81v-4.64Zm-42.52,4.64h19.3v-4.64h-19.3v4.64Zm34.78-10.17h-34.78v4.64h34.78v-4.64Zm-34.78-17.1h25.76v-4.64h-25.76v4.64Zm42.52-10.17h-22.81v4.64h22.81v-4.64Zm-42.52,4.64h19.3v-4.64h-19.3v4.64Zm34.78-10.18h-34.78v4.64h34.78v-4.64Zm-34.78-17.1h25.76v-4.64h-25.76v4.64Zm42.52-10.17h-22.81v4.64h22.81v-4.64Zm-42.52,4.64h19.3v-4.64h-19.3v4.64Zm34.78-10.18h-34.78v4.64h34.78v-4.64Zm-63.9,82.22h17.47v-17.49h-17.47v17.49Zm-4.64-22.13h26.74v26.77h-26.74v-26.77Zm22.11-28.17h-17.47v17.48h17.47v-17.48Zm4.64,22.13h-26.74v-26.77h26.74v26.77Zm-4.64-54.93h-17.47v17.48h17.47v-17.48Zm4.64,22.13h-26.74v-26.77h26.74v26.77Zm-51.3,55.44h-25.75v4.64h25.75v-4.64Zm-6.04-.89h22.81v-4.64h-22.81v4.64Zm-.41-4.64h-19.3v4.64h19.3v-4.64Zm15.48-5.53h-34.78v4.64h34.78v-4.64Zm-9.03-54.56h-25.75v4.64h25.75v-4.64Zm-6.04-.89h22.81v-4.64h-22.81v4.64Zm-.41-4.64h-19.3v4.64h19.3v-4.64Zm15.48-5.54h-34.78v4.64h34.78v-4.64Zm-63.9,82.22h17.47v-17.49h-17.47v17.49Zm-4.64-22.13h26.74v26.77h-26.74v-26.77Zm22.11-60.97h-17.47v17.48h17.47v-17.48Zm4.64,22.13h-26.74v-26.77h26.74v26.77Zm-8.29-219.04h-114.57V167.77h114.57V21.77Zm194.83,640.06c0,12.06-164.33,21.82-367.04,21.82S0,673.88,0,661.82c0-10.56,126.09-19.37,293.61-21.39l-38.01-94.55c-.8-2.01,.19-4.29,2.2-5.08s4.29,.19,5.08,2.2l39.14,97.33c21.1-.22,42.83-.34,65.02-.34,69.61,0,134.7,1.16,190.16,3.16l2.2,9.87h50.16l-1.71-7.67c77.34,4,126.23,9.9,126.23,16.47"/></g><path class="cls-5" d="M439.94,153.33h59.23v-1.55h-59.23v1.55Zm84.06-10.98h-84.06v1.55h84.06v-1.55Zm0-9.44h-84.06v1.55h84.06v-1.55Zm0-9.43h-84.06v1.55h84.06v-1.55Zm0-9.44h-84.06v1.55h84.06v-1.55Zm0-9.44h-84.06v1.55h84.06v-1.55Zm-.77-63.93h-82.51v53.31h82.51V40.68Zm1.55,54.86h-85.6V39.14h85.6v56.41Zm19.68,121.59h-20.56v20.58h20.56v-20.58Zm-86.11,38.11l-1.09-1.09-10.51,10.52-3.76-3.77-1.09,1.09,4.85,4.86,11.6-11.61Zm2.05,15.28h-20.56v-20.58h20.56v20.58Zm219.19-43.87h-19.71v1.55h19.71v-1.55Zm0,32.81h-19.71v1.55h19.71v-1.55Zm0,32.81h-19.71v1.55h19.71v-1.55Zm-16.77,5.53h-22.66v1.55h22.66v-1.55Zm-32.76-82.21h-23.65v23.67h23.65v-23.67Zm0,32.81h-23.65v23.67h23.65v-23.67Zm0,32.81h-23.65v23.68h23.65v-23.68Zm-34.53-54.55h-19.71v1.55h19.71v-1.55Zm0,32.81h-19.71v1.55h19.71v-1.55Zm0,32.81h-19.71v1.55h19.71v-1.55Zm-16.77,5.53h-22.66v1.55h22.66v-1.55Zm-32.76-82.21h-23.65v23.67h23.65v-23.67Zm0,32.81h-23.65v23.67h23.65v-23.67Zm0,32.81h-23.65v23.68h23.65v-23.68Zm-34.54-54.55h-19.71v1.55h19.71v-1.55Zm0,32.81h-19.71v1.55h19.71v-1.55Zm0,32.81h-19.71v1.55h19.71v-1.55Zm-16.77,5.53h-22.66v1.55h22.66v-1.55Zm-32.76-82.21h-23.65v23.67h23.65v-23.67Zm0,32.81h-23.65v23.67h23.65v-23.67Zm0,32.81h-23.65v23.68h23.65v-23.68Zm10.09,12.61h16.21v-1.55h-16.21v1.55Zm0-5.53h31.69v-1.55h-31.69v1.55Zm0-21.74h22.66v-1.55h-22.66v1.55Zm0-5.53h16.21v-1.55h-16.21v1.55Zm0-5.54h31.69v-1.55h-31.69v1.55Zm0-21.74h22.66v-1.55h-22.66v1.55Zm0-5.53h16.21v-1.55h-16.21v1.55Zm0-5.54h31.69v-1.55h-31.69v1.55Zm84.06,71.15h16.21v-1.55h-16.21v1.55Zm0-5.53h31.69v-1.55h-31.69v1.55Zm0-21.74h22.66v-1.55h-22.66v1.55Zm0-5.53h16.21v-1.55h-16.21v1.55Zm0-5.54h31.69v-1.55h-31.69v1.55Zm0-21.74h22.66v-1.55h-22.66v1.55Zm0-5.53h16.21v-1.55h-16.21v1.55Zm0-5.54h31.69v-1.55h-31.69v1.55Zm84.06,71.15h16.21v-1.55h-16.21v1.55Zm0-5.53h31.69v-1.55h-31.69v1.55Zm0-21.74h22.66v-1.55h-22.66v1.55Zm0-5.53h16.21v-1.55h-16.21v1.55Zm0-5.54h31.69v-1.55h-31.69v1.55Zm0-21.74h22.66v-1.55h-22.66v1.55Zm0-5.53h16.21v-1.55h-16.21v1.55Zm0-5.54h31.69v-1.55h-31.69v1.55Zm53.8,97.14H424.69v-123.49h269.27v123.49Zm-235.61-31.74l-1.09-1.09-10.51,10.52-3.76-3.77-1.09,1.09,4.85,4.86,11.6-11.61Zm2.05,15.28h-20.56v-20.58h20.56v20.58Zm84.06-20.58h-20.56v20.58h20.56v-20.58Zm-2.05-27.51l-1.09-1.09-10.51,10.52-3.76-3.77-1.09,1.09,4.85,4.86,11.6-11.61Zm2.05,15.28h-20.56v-20.58h20.56v20.58Zm84.06,12.23h-20.56v20.58h20.56v-20.58Zm0-32.81h-20.56v20.58h20.56v-20.58Zm0-32.81h-20.56v20.58h20.56v-20.58Zm-170.17,5.3l-1.09-1.09-10.51,10.52-3.76-3.77-1.09,1.09,4.85,4.86,11.6-11.61Zm2.05,15.28h-20.56v-20.58h20.56v20.58Zm279.95,106.9c-.11-.08-.23-.16-.35-.24h0c-1.09-.76-2.41-1.21-3.85-1.21H412.66c-3.29,0-6.11,2.35-6.7,5.6l-43.97,244.86c-.49,2.77,.75,5.38,2.88,6.83l6.51,4.59,5.02-3.41h171.53l-10.7-47.92h50.15l10.7,47.92h94.1c3.29,0,6.11-2.36,6.69-5.61l43.75-243.6,4.47-3.05-6.74-4.77Zm-441.59,203.15c.56,0,1.09-.25,1.45-.67,.77-.9,1.47-1.93,2.2-3.22,.57-1.01,1.1-2.16,1.62-3.53,.5-1.39,.83-2.57,1.05-3.7,.29-1.44,.44-2.7,.44-3.89,0-.8-.5-1.52-1.28-1.77l-.32-.09h-.24c-.81,0-1.51,.52-1.76,1.28l-1.07,3.31-.23,.67c-.3,.86-.59,1.71-.93,2.58-.32,.87-.68,1.72-1.03,2.58l-.23,.56-1.4,3.24c-.33,.77-.11,1.66,.53,2.19,.34,.29,.77,.45,1.22,.45Zm-26.44,18.73l.58-.84c2.5-3.64,4.76-7.31,6.72-10.94,3.03-5.59,5.72-11.7,8.02-18.15,2.24-6.51,3.94-12.96,5.05-19.17,1.18-6.49,1.81-13.13,1.89-19.72,0-.98-.75-1.79-1.84-1.86-.97,0-1.78,.76-1.83,1.72-.4,6.29-1.25,12.7-2.53,19.03-1.33,6.53-3.05,12.73-5.1,18.47-2.01,5.81-4.56,11.72-7.58,17.58-1.56,3.02-3.31,6.11-5.23,9.21l.72,1.78c.14,.31,.46,1.15,.46,1.15,.45,1.02,.69,1.72,.69,1.72Zm-112.73-58.01c-.29-.17-.62-.27-.95-.27-.64,0-1.24,.34-1.58,.89-.99,1.64-1.89,3.3-2.94,5.28-.61,1.15-1.19,2.31-1.77,3.47-.31,.62-.61,1.24-.95,1.91l-.79,1.68c-.58,1.24-1.17,2.49-1.72,3.75-.77,1.76-1.58,3.63-2.31,5.59-.31,.86,.02,1.83,.8,2.29,.3,.18,.64,.27,.98,.27,.66,0,1.29-.35,1.63-.92,1.08-1.81,2.07-3.68,2.93-5.31,.63-1.21,1.23-2.45,1.84-3.67l.85-1.72c.29-.63,.58-1.27,.88-1.91,.54-1.17,1.08-2.34,1.6-3.53,.89-2.05,1.63-3.79,2.29-5.59,.3-.83-.02-1.77-.78-2.22Zm5.74-96.38c-3.23-3.29-6.9-5.85-10.92-7.64l-.42-.15h-.32c-.7,0-1.35,.41-1.66,1.04-.22,.44-.24,.94-.08,1.41s.49,.84,.94,1.06c6.71,3.26,12.45,9.32,16.14,17.07,3.43,7.21,5.13,15.34,4.91,23.53-.14,7.26-1.6,15.16-4.46,24.16-2.51,7.87-5.77,15.69-8.92,23.25l-.09,.2c-.39,.94,.03,2.02,.96,2.45l.45,.18h.34c.73,0,1.41-.43,1.72-1.1,3.45-7.44,7.04-15.39,9.77-23.59,3.06-9.14,4.65-17.46,4.86-25.45,.15-9.08-1.78-17.92-5.6-25.55-2.08-4.15-4.65-7.79-7.63-10.85Zm101.73,66.54h.24l.12-.03c.81-.13,1.5-.68,1.79-1.45,.18-.46,17.84-46.27,12.54-90.41l-1.57-.1-3.09-.14-.02,.16,.03,.21c4.43,35.83-6.8,72.95-10.85,84.81l-63.78-77.36c-.57,.34-1.16,.67-1.75,.96-.85,.41-1.71,.77-2.58,1.07l67.14,81.43c.44,.53,1.09,.84,1.79,.84Zm74.46,163.41l88.66,33.11h-154.6l-40.03-28.74c2.04,.1,4.2,.08,6.48-.16,13.65-1.42,17.03-3.64,17.7-4.22h.73l12.24,3.16c2.86,.73,5.84-.58,7.26-3.16h14.31l1.46,3.64c.21,.51,.54,.96,.97,1.31l4.56,3.68c.43,.34,1.07,.09,1.15-.45l.8-5.81c.07-.55,0-1.1-.19-1.61l-.31-.75h38.82"/><path class="cls-4" d="M360.59,435.41c-7.03-8.65-11.66-19.83-17.32-30.1,4.02-5.93,5.18-13.55,9.47-19.33,4.89-6.56,13.26-9.9,17.9-16.64,3.68-5.34,4.51-12.24,3.64-18.68-.3-2.18-.79-4.33-1.39-6.44,.53-1.95,.21-4.43-.8-6.07-.38,.06-.76,.11-1.14,.18-.67-1.84-1.39-3.66-2.12-5.47,.3-.27,.53-.55,.67-.86,.95-2.2-.06-5.7-2.27-6.63-1.87-.79-3.76-1.53-5.66-2.24,5.17,.59,7.84-5.19,4.18-9.48-4.22-4.95-11.86-8.95-17.01-13.02-1.18-.94-2.4-1.9-3.85-2.32-1.45-.42-3.2-.18-4.16,.98-1.66,1.99-.11,4.95,1.42,7.04,4.46,6.05,9.28,12.32,15.96,15.59-4.86-1.67-9.8-3.11-14.82-4.27-1.58,1.2-1.96,3.54-1.32,5.42,.64,1.89,2.07,3.38,3.58,4.67,1.61,1.38,3.37,2.59,5.23,3.61-.08,.04-.16,.07-.24,.12-1.25,.72-2.41,1.57-3.48,2.53,.18-1.15,.05-2.27-.54-3.26-6.38,1.04-12.78,.42-19.18-.45-9.53,19.87-15.7,41.35-18.18,63.25-1.57,4.42-2.07,8.83-.09,12.31h-.03c12.72,28.41,25.43,56.82,38.16,85.23,7.52,16.82,15.09,33.68,24.29,49.62l13.93-77.53c-8.7-8.86-16.99-18.14-24.83-27.77ZM626.42,123.66h-39.97v32.68h39.97v-32.68Zm51.12-50.44h-43.07v43.11h43.07v-43.11Zm-2.88,59.96h-19.71v1.55h19.71v-1.55Zm-4.22,18.35h-15.49v1.55h15.49v-1.55Zm-35.21,0v1.55h16.22v-1.55h-16.22Zm0-5.53v1.55h31.69v-1.55h-31.69Zm0-7.3v1.55h22.67v-1.55h-22.67Zm0-5.53v1.55h16.22v-1.55h-16.22Zm16.22-9.52v-1.55h-16.22v1.55h16.22Zm-16.22,3.98v1.55h31.69v-1.55h-31.69Zm22.67,29.43h-22.67v1.55h22.67v-1.55Zm-29.94-125.41h-43.07v36.46h43.07V31.66Zm-42.3,82.39v1.55h35.21v-1.55h-35.21Zm0-5.34v1.55h22.66v-1.55h-22.66Zm0-5.54v1.55h16.21v-1.55h-16.21Zm19.71,0v1.55h15.49v-1.55h-15.49Zm-19.71-5.53v1.55h31.69v-1.55h-31.69Zm0-7.29v1.55h22.66v-1.55h-22.66Zm0-5.54v1.55h16.21v-1.55h-16.21Zm0-5.53v1.54h31.69v-1.54h-31.69Zm19.71,5.53v1.55h19.71v-1.55h-19.71Zm11.97-11.6h-31.69v1.55h31.69v-1.55Zm10.61,48.9h-43.07v35.77h43.07v-35.77Zm8.32-53.99h31.69v-1.55h-31.69v1.55Zm0-5.49h22.66v-1.55h-22.66v1.55Zm0-5.53h16.21v-1.55h-16.21v1.55Zm19.71-1.55v1.55h15.49v-1.55h-15.49Zm-19.71-3.98h31.69v-1.55h-31.69v1.55Zm0-7.3h22.66v-1.55h-22.66v1.55Zm0-5.54h16.21v-1.55h-16.21v1.55Zm19.71-1.55v1.55h19.71v-1.55h-19.71Zm-19.71-3.98h31.69v-1.55h-31.69v1.55Zm50.51-11.44V167.77h-114.57V21.77h114.57Zm-10.8,52.99h-39.98v40.02h39.98v-40.02Zm-49.57-41.56h-39.97v33.36h39.97V33.2ZM287.96,605.36l3.81,9.45c-.27-.55-.58-1.08-1-1.54l-12.55-13.94c-1.42-1.58-3.23-2.76-5.25-3.42l-21.16-6.94c-4.51-1.47-9.45-.2-12.68,3.28l-16.63,17.9-111.76-3.27,15.15-30.61-2.54-5.96c-10.09-23.64-31.51-40.52-56.84-44.78,0,0-37.15,86.39-34.63,95.63,2.52,9.24,8.39,35.51,38.59,35.51,21.76,0,105.78-8.59,151.05-13.39,4.58,1.92,11.68,3.89,20.49,2.98,15.81-1.64,17.85-4.37,17.85-4.37l12.82,3.31c2.94,.76,5.99-.64,7.36-3.34l1.16-2.26c.7-1.39,2.09-2.31,3.65-2.41l.78-.06c5.26-.34,8.64-5.71,6.7-10.6l.04-9c0-.68-.12-1.33-.33-1.96v.02c5.86,.37,10.42-2.87,6.8-6.2-2.22-2.04-6.88-3.28-10.9-4.01Zm-6.19-116.38c0-8.12-6.59-14.72-14.71-14.72s-14.72,6.6-14.72,14.72,6.6,14.72,14.72,14.72,14.71-6.6,14.71-14.72Zm-59.96-178.02c-.46-.08-.92-.16-1.38-.27-4.27,9.18-4.44,19.71-3.84,29.82,.59,10.11,1.85,20.32,.16,30.31-.19,1.14-.44,2.27-.72,3.4,1.03-1.67,1.87-3.45,2.49-5.31,2.21-6.72,2.06-13.98,1.88-21.16-.11-7.21-.06-14.44,.29-21.65,.23-5.06,.61-10.1,1.11-15.15Zm34.9-4.84c3.13-2.02,5.5-5.13,7.59-8.32-4.36,3.85-10,6.06-15.82,5.27-2.13,1.83-4.44,3.39-6.86,4.66,1.38,.24,2.76,.46,4.14,.57,3.84,.37,7.81-.07,10.96-2.17Zm75.37-25.48c-1.44-2.38-2.54-4.99-3.25-7.67-1.63-6.09-1.63-12.48-1.61-18.79,0-2.51-.08-5.18-.54-7.7-.7-.39-1.4-.76-2.14-1.04-1.05-.4-2.13-.72-3.23-.9-1.1-.2-2.22-.26-3.34-.23-1.13,.04-2.26,.21-3.39,.46-.16,.04-.32-.06-.36-.22-.02-.13,.04-.26,.14-.32,1.06-.64,2.26-1.02,3.48-1.22,1.23-.21,2.5-.18,3.73,0,1.23,.21,2.44,.59,3.54,1.18,.44,.23,.84,.5,1.24,.78-.34-1.29-.8-2.51-1.43-3.63-.23-.05-.46-.1-.69-.15-.73-.13-1.45-.24-2.18-.28-.73-.06-1.46-.05-2.2-.03-.74,.03-1.49,.13-2.27,.22-.16,.02-.32-.09-.34-.26-.02-.12,.04-.23,.13-.29,.69-.47,1.47-.77,2.29-.96,.81-.2,1.65-.26,2.48-.22,.54,.04,1.07,.14,1.59,.26-.35-.42-.76-.81-1.19-1.17-1.08-.14-2.16-.16-3.21-.03-1.11,.15-2.2,.42-3.22,.85-1.04,.41-2.01,.98-2.91,1.64-.9,.68-1.7,1.49-2.41,2.42-.1,.14-.29,.16-.42,.06-.1-.08-.14-.22-.1-.34,.86-2.36,2.92-4.23,5.25-5.2,1.18-.48,2.44-.78,3.72-.79,.32,0,.65,0,.96,.03-4.92-1.78-11.95,1.2-13.35,6.23-.41-4.47-3.96-8.32-8.21-9.56,.35,.28,.7,.55,1.03,.86,.95,.94,1.77,2.01,2.38,3.19,.61,1.19,1.04,2.46,1.17,3.77,.02,.17-.1,.31-.27,.33-.13,.01-.25-.07-.3-.18-.48-1.16-1.04-2.24-1.72-3.24-.69-.99-1.45-1.93-2.32-2.76-.86-.83-1.82-1.56-2.84-2.2-.1-.06-.2-.11-.3-.17-.15,.01-.3,0-.45,.02-1.32,.11-2.57,.45-3.76,.97,.84,.07,1.67,.24,2.48,.48,2.57,.82,4.92,2.6,6.1,5.01,.07,.15,.02,.32-.13,.4-.12,.06-.27,.03-.35-.06-.85-.93-1.78-1.72-2.81-2.36-1.04-.64-2.13-1.16-3.28-1.5-1.14-.36-2.33-.55-3.54-.61-.3-.01-.6,.02-.9,.03-.77,.53-1.52,1.13-2.21,1.79,.42-.04,.84-.05,1.26-.04,.81,.04,1.62,.13,2.39,.34,.78,.2,1.54,.48,2.24,.9,.14,.08,.19,.27,.1,.42-.06,.1-.17,.15-.29,.15l-2.26-.17c-.75-.04-1.48-.08-2.22-.08-.73-.02-1.47,0-2.21,.02l-.52,.02c-1.15,1.29-2.19,2.7-3.11,4.13-4.05,6.26-7.57,13.15-7.44,20.6,.16,9.06-.32,18.47-4.45,26.54-.71,1.39-1.56,2.7-2.51,3.93-.64,1.35-1.32,2.69-2.08,3.99-2.03,3.45-4.52,6.78-7.98,9.14-3.53,2.38-7.96,2.76-11.93,2.28-1.96-.23-3.86-.64-5.74-1.1-2.01,.91-4.09,1.63-6.22,2.11,.7,2.24,1.5,4.46,2.41,6.63,1.94,4.66,4.32,9.12,7.16,13.28,2.78,4.2,6.03,8.08,9.6,11.64,3.58,3.55,7.51,6.77,11.73,9.55,.14,.09,.18,.28,.09,.41-.09,.13-.26,.17-.4,.09-4.44-2.52-8.59-5.59-12.33-9.11-3.75-3.51-7.06-7.47-9.97-11.71-2.85-4.28-5.29-8.84-7.15-13.63-.88-2.26-1.63-4.57-2.25-6.92-3.21,.6-6.52,.69-9.83,.2-.3,5.02-.55,10.03-.7,15.05-.19,7.19-.24,14.37-.05,21.56,.11,7.16,.31,14.62-2.13,21.64-1.08,3.02-2.7,5.83-4.8,8.25-1.95,5.69-5.16,10.95-9.66,14.66,7.19,12.04,15.51,23.47,26.09,32.62,12.33,10.65,28.07,18.02,44.35,17.83,3.75-.05,7.58-.51,10.91-2.23,3.33-1.73,6.08-4.9,6.5-8.63,.63-5.6-3.89-10.4-8.41-13.76s-12.15-6.68-11.81-12.3c.93-15.26,1.66-30.82,2.58-46.08,7.89,2.99,16.63,5.98,24.53,3.05,7.15-2.66,11.76-9.53,15.32-16.28,10.7-20.2,16.38-43,16.65-65.85Zm-187.29-24.85h-33.89v-86.46c-.52,.83-1.04,1.64-1.55,2.47v85.53h35.31c.04-.52,.06-1.04,.12-1.55Zm82.99-72.58c.51-.23,1.03-.44,1.54-.66V78.21h-43.98c-.55,.52-1.1,1.03-1.65,1.55h44.09v103.46Zm122.13,24.14c.42,.51,.82,1.02,1.21,1.54h35.15V29.77h-119.96V178.17c.52,.09,1.03,.21,1.54,.32V31.31h116.88V207.35h-34.81Zm-88.25-29.87V25.13h129.24V213.53h-36.77c.29,.52,.58,1.03,.85,1.55h37.46V23.58h-128.59c-1.25,.6-2.5,1.21-3.73,1.83V177.34c.32,.02,.63,.03,.95,.06,.2,.03,.39,.06,.59,.08Zm-27.65,3.24c.51-.18,1.03-.35,1.54-.52V72.02h-43.39c-.58,.52-1.15,1.04-1.72,1.55h43.56v107.16Zm-89.41,82.8h-41.37v-81.44c.52-.88,1.03-1.77,1.54-2.65v82.55h39.76c.01,.52,.04,1.03,.07,1.55"/><g class="cls-9"><path class="cls-7" d="M266.49,641.63c-.64-.63-1.27-1.28-1.83-1.97-.58-.68-1.09-1.41-1.6-2.16-.5-.76-.94-1.55-1.4-2.38-.05-.1-.17-.17-.29-.15-.17,.02-.29,.16-.27,.33,.11,.97,.41,1.92,.81,2.82,.17,.39,.38,.76,.59,1.12-.09,.07-.19,.14-.27,.22-.31,.32-.52,.72-.66,1.13-.12,.41-.2,.84-.15,1.27,.04,.43,.14,.85,.39,1.22,.04,.05,.09,.09,.16,.12,.17,.06,.35-.03,.42-.19v-.03c.14-.36,.22-.69,.33-.99,.11-.31,.2-.6,.31-.9,.08-.23,.17-.45,.26-.68,.05,.07,.1,.16,.16,.23,.64,.77,1.34,1.47,2.15,2.05,.8,.57,1.66,1.07,2.6,1.38,.14,.04,.29,0,.39-.11,.13-.15,.1-.38-.05-.51-.71-.6-1.41-1.18-2.06-1.81Zm17.83-24.65c1.47,1.59,2.83,3.29,4.17,4.99,1.33,1.71,2.6,3.48,3.85,5.28,.08,.11,.23,.16,.37,.09,.15-.07,.21-.24,.15-.39-.94-2.01-2.08-3.92-3.32-5.75-1.23-1.84-2.63-3.57-4.07-5.26-1.49-1.64-3.05-3.22-4.73-4.68-1.68-1.45-3.44-2.8-5.32-3.97-.14-.09-.33-.07-.45,.07-.13,.15-.11,.37,.03,.49,1.64,1.45,3.26,2.9,4.81,4.42,1.56,1.51,3.08,3.06,4.51,4.7Zm-24.17,23.47c-.07-.2-.15-.41-.27-.6-.11-.2-.24-.4-.46-.6h-.02s-.05-.06-.09-.08c-.21-.11-.48-.02-.58,.19-.14,.28-.17,.56-.17,.82-.01,.27,.05,.53,.14,.79,.1,.24,.21,.48,.4,.68,.18,.21,.38,.4,.67,.53,.02,.01,.05,.02,.08,.02,.2,.04,.39-.09,.43-.29v-.02c.05-.3,.04-.54,.01-.77,0-.23-.07-.45-.13-.66Zm-146.29-33.46c-4.33-.79-8.73-1.17-13.14-1.22s-8.83,.27-13.2,.85c-4.36,.66-8.69,1.57-12.91,2.86-4.22,1.28-8.34,2.88-12.28,4.83-.13,.07-.2,.23-.15,.38,.06,.15,.24,.22,.39,.16,4.06-1.6,8.19-2.99,12.4-4.11,4.2-1.11,8.46-2.02,12.77-2.58,4.3-.64,8.64-.94,12.98-1.02,4.35-.08,8.7,.13,13.04,.55,.18,.02,.35-.1,.38-.29,.04-.19-.09-.37-.29-.41Zm106.87,35.74c-2.64-1.52-4.25-4.77-3.87-7.98,.02-.16-.08-.32-.24-.38-.19-.06-.38,.04-.44,.23-.86,2.67-.05,5.76,1.88,7.89-1.05-.16-2.08-.45-3.05-.87-1.66-.72-3.17-1.89-3.91-3.59-.05-.13-.19-.21-.33-.18-.16,.03-.27,.19-.24,.35,.2,1.01,.75,1.95,1.43,2.73,.71,.77,1.55,1.39,2.46,1.89,1.82,.96,3.88,1.44,5.97,1.35,.26-.02,.5-.16,.64-.39,.21-.38,.08-.84-.29-1.05Zm122.01-235.94c-.75,.45-1.46,.9-2.19,1.3-.74,.39-1.47,.79-2.22,1.11-.75,.35-1.52,.65-2.3,.94-.79,.29-1.59,.53-2.41,.81-.14,.04-.24,.16-.25,.31-.02,.19,.13,.37,.32,.39,.9,.09,1.81,0,2.7-.18,.89-.17,1.75-.47,2.58-.85,.82-.4,1.6-.86,2.31-1.43,.7-.57,1.35-1.21,1.86-1.96,.07-.09,.07-.22,.01-.33-.09-.14-.28-.19-.42-.1Zm-47.63-62.42c-.55-.02-1.1,0-1.65,0-.54,.01-1.09,0-1.64,.04-.56,.03-1.12,.04-1.7,.11-.1,.01-.19,.07-.23,.16-.09,.15-.03,.34,.12,.42,.53,.3,1.1,.48,1.68,.61s1.18,.18,1.77,.2c.6,0,1.19-.04,1.78-.17,.58-.13,1.16-.29,1.69-.58,.1-.06,.18-.16,.19-.28,.03-.2-.12-.39-.32-.41-.59-.07-1.14-.07-1.69-.09Zm1.52-12.63l-8.9-.53-7.26-.53c1.6,1.85,3.67,3.37,5.86,4.57,1.34,.73,2.76,1.34,4.22,1.83,1.43,.48,3.04,.81,4.41,.92h.1c2.54-1.14,4.99-2.88,6.96-4.92,.24-.24,.53-.55,.7-.77,.07-.09,.1-.16,.11-.2-.07-.03-.33-.08-.66-.08l-1.12-.05c-1.48-.07-2.96-.15-4.44-.23Zm-8.8-2.07l8.89,.65c1.48,.1,2.96,.22,4.44,.36l1.11,.09c.34,.06,.84-.02,1.42,.45,.3,.26,.43,.72,.34,1.07-.08,.35-.23,.56-.38,.74-.31,.34-.54,.57-.83,.84-2.22,2.13-4.8,3.68-7.74,4.76l-.11,.04c-1.7-.03-3.14-.31-4.68-.72-1.53-.43-3.03-1-4.47-1.7-1.43-.71-2.81-1.55-4.08-2.53-1.28-.98-2.47-2.11-3.44-3.47-.23-.32-.15-.77,.17-.99,.14-.1,.29-.14,.45-.13h.02l8.89,.54Zm15.81-7.16c.99,.21,2.06-.05,2.94-.54,.89-.51,1.61-1.26,2.15-2.14,1.05-1.78,1.17-3.84,1.05-5.72-.15-1.88-.48-3.74-1.06-5.52-.57-1.78-1.34-3.51-2.34-5.06-.08-.11-.22-.17-.35-.11-.16,.06-.23,.23-.17,.38,.65,1.7,1.21,3.4,1.61,5.15,.39,1.74,.67,3.51,.78,5.27,.12,1.75,0,3.49-.71,4.96-.7,1.42-2.14,2.63-3.81,2.64-.16,0-.31,.11-.34,.28-.04,.19,.08,.38,.27,.42Zm-35.39-44.52c2.21-.74,4.46-1.3,6.74-1.63,2.28-.31,4.59-.45,6.89-.3,2.29,.09,4.57,.47,6.81,1.03,2.23,.55,4.41,1.34,6.53,2.31,.15,.07,.34,.02,.44-.13,.1-.16,.06-.38-.1-.48-2-1.32-4.21-2.31-6.5-3.02-2.3-.71-4.7-1.09-7.1-1.24-2.41-.08-4.83,.06-7.18,.55-2.35,.48-4.65,1.26-6.76,2.36-.13,.07-.19,.22-.15,.35,.06,.16,.22,.24,.39,.19Zm47.93,4.55c1.15-.95,2.34-1.78,3.63-2.45,1.28-.66,2.62-1.2,4.01-1.56,1.38-.38,2.81-.59,4.24-.67,1.44-.07,2.89,.04,4.34,.28,.16,.03,.32-.05,.39-.21,.08-.18,0-.39-.19-.46-1.42-.61-2.98-.92-4.54-.98-1.57-.07-3.14,.13-4.66,.54-1.51,.43-2.96,1.06-4.26,1.93-1.31,.86-2.49,1.92-3.4,3.17-.08,.11-.08,.26,.02,.37,.1,.13,.29,.14,.42,.04Zm426.93,65.54H419.65c-3.3,0-6.12,2.35-6.7,5.6l-43.97,244.85c-.75,4.18,2.45,8.02,6.7,8.02h172.57l4.94,21.76c.65,2.8,1.34,5.58,1.99,8.38h-81.09l-29.4,16.31h114.36s.01,.06,.02,.08c.04,.18,.22,.3,.41,.26s.31-.22,.27-.41c-1.69-8.31-3.42-16.61-5.22-24.9l-5.46-24.85-5.66-24.81c-1.91-8.24-3.88-16.46-5.88-24.68h49.57s-.01,.04-.01,.06c1.68,8.31,3.41,16.63,5.2,24.91l5.43,24.85,5.63,24.81c1.9,8.27,3.86,16.52,5.87,24.76,.04,.18,.22,.3,.41,.26,.16-.03,.25-.18,.26-.34h41.36l-28.63-16.31h-16.13c-.61-2.89-1.19-5.78-1.82-8.67l-4.71-21.47h99.19c3.29,0,6.11-2.36,6.69-5.61l43.97-244.85c.76-4.18-2.46-8.01-6.69-8.01Zm-396.51,63.55c4.3,8.37,8.36,16.87,13.96,23.76,7.84,9.63,16.13,18.9,24.83,27.77l1.91-10.65c-10.47-9.95-20.53-20.2-26.78-28.27-3.58-4.63-8.44-8.83-13.92-12.6Zm-42.66,121.08c0-.13-.08-.24-.2-.29-.16-.05-.33,.04-.38,.19l-1.09,3.34c-.39,1.1-.75,2.2-1.18,3.28-.4,1.09-.85,2.15-1.29,3.22l-1.4,3.22c-.05,.14-.02,.31,.1,.41,.15,.13,.37,.1,.49-.05,.79-.92,1.44-1.93,2.03-2.98,.59-1.05,1.08-2.16,1.51-3.29,.41-1.14,.77-2.29,.99-3.48,.24-1.18,.41-2.38,.41-3.58Zm-126.96-84.27c.15-8.55-1.61-17.17-5.43-24.83-1.93-3.82-4.36-7.39-7.35-10.46-2.99-3.04-6.54-5.57-10.43-7.29-.15-.07-.32,0-.39,.14-.07,.15-.02,.32,.14,.39,7.57,3.67,13.3,10.33,16.86,17.8,3.57,7.52,5.28,15.91,5.06,24.22-.17,8.35-1.99,16.61-4.54,24.6-2.55,8.01-5.8,15.79-9.06,23.57-.07,.17,0,.38,.18,.45,.17,.08,.38,0,.46-.18,3.55-7.65,7.03-15.38,9.71-23.42,2.69-8.04,4.56-16.44,4.78-24.99Zm-18.22,61.32c-.15-.08-.33-.04-.41,.1-1.03,1.71-1.97,3.46-2.9,5.21-.93,1.75-1.78,3.55-2.68,5.31-.83,1.8-1.7,3.59-2.5,5.4-.8,1.82-1.58,3.64-2.28,5.51-.05,.15,0,.33,.15,.42,.17,.09,.39,.04,.48-.12,1.03-1.71,1.95-3.46,2.87-5.22,.92-1.76,1.78-3.55,2.66-5.32,.82-1.8,1.69-3.59,2.47-5.41,.79-1.82,1.57-3.65,2.25-5.52,.05-.14,0-.29-.12-.36Zm211.28,28.39l-6.45,5.46c-7.31,22.47-25.55,58.21-25.55,58.21v38.45h-36.06l-9.94-24.72c5.85,.37,10.41-2.87,6.79-6.2-2.22-2.04-6.88-3.28-10.91-4.02l-16.32-40.6c2.4-3.48,4.63-7.07,6.64-10.8,3.11-5.74,5.72-11.75,7.92-17.91,2.12-6.18,3.84-12.51,4.98-18.94,1.17-6.43,1.79-12.95,1.86-19.46,0-.16-.12-.29-.28-.3-.17-.01-.3,.11-.32,.28-.41,6.47-1.27,12.9-2.55,19.24-1.29,6.34-2.98,12.59-5.16,18.67-2.11,6.1-4.71,12.04-7.67,17.78-1.81,3.51-3.79,6.94-5.88,10.29l-8.29-20.61c-.8-2.01-3.07-2.99-5.08-2.2s-2.99,3.07-2.2,5.08l20.85,51.88c-1.05-.8-2.22-1.43-3.49-1.84l-21.16-6.94c-4.51-1.47-9.45-.2-12.68,3.28l-.6,.65h0c.11,.11,.11,.28,.03,.39-1.81,2.37-3.78,4.61-5.78,6.82-1.99,2.2-4.08,4.32-6.16,6.46-2.12,2.08-4.23,4.18-6.4,6.21-2.18,2.03-4.36,4.05-6.62,5.98-.15,.13-.36,.11-.49-.04-.11-.14-.11-.34,0-.46,2-2.21,4.08-4.33,6.15-6.46l1.69-1.71-53.58-1.56-19.08-75.96-22.4,43.7-2.54-5.96c-10.09-23.64-31.51-40.52-56.84-44.78,0,0-1.49,3.47-3.85,9.1-3.51-6.52-6.17-13.68-7.49-21.55,0,0,30.92-90.26,73.16-116.76,8.94-4.41,15.62-4.36,24.29-3.54,8.13,.77,16.08,2.55,24.09,4.07,7.64,1.45,15.84,1.97,22.93-1.09l66.05,80.11c-6.64,.68-11.81,6.29-11.81,13.11,0,7.28,5.9,13.19,13.17,13.19s13.17-5.91,13.17-13.19-5.37-12.61-12.18-13.13c2.21-5.98,17.14-48.36,12.14-89.21,4.31,.24,8.47,.77,12.22,1.71h-.01s7.03,1.76,16.77,5.2c-.76,2.14-1.26,4.28-1.36,6.31,0,.11-.01,.22-.01,.34-.01,.45,0,.89,.03,1.32,0,.08,.02,.16,.02,.23,.04,.39,.1,.78,.17,1.17,.02,.07,.03,.16,.05,.23,.09,.42,.21,.83,.36,1.23,.03,.09,.06,.18,.1,.27,.17,.41,.34,.81,.56,1.21,0-.01-.02-.01-.03-.01,12.72,28.41,25.43,56.82,38.16,85.23,1.34,3.02,2.7,6.04,4.07,9.06,.23,.52,.47,1.04,.71,1.56,1.36,3.02,2.74,6.02,4.15,9.02,.24,.52,.48,1.03,.72,1.54,1.43,3.04,2.89,6.07,4.37,9.07,.16,.33,.33,.66,.49,.99,1.39,2.79,2.81,5.56,4.26,8.32,1.33,2.53,2.68,5.04,4.08,7.53Zm-98.44,26.58l-.08-.21,.08,.21Zm-51.2-207.72c-1.85-.7-2.89-1.14-2.89-1.14v.1c.04,1.21,.06,2.42,.06,3.63,0,.22-.01,.45-.02,.67,0,1.03-.02,2.05-.07,3.07-.02,.51-.07,1.02-.1,1.52-.05,.74-.09,1.47-.16,2.21-.13,1.24-.29,2.49-.49,3.73-.19,1.14-.44,2.27-.72,3.4,1.03-1.67,1.87-3.45,2.49-5.31,1.26-3.82,1.74-7.82,1.9-11.88Zm58.21,29.65s0-.08,0-.13c-1.41-.05-2.82-.09-4.26-.09-.16-1.73-.16-2.8-.16-2.8,0,0,6.52-5.08,6.52-9.17s-5.78-4.37-5.78-4.37c-20.32-.94-43.6-8.96-53.08-12.53-.2,3.97-.73,7.93-2.07,11.77-1.08,3.02-2.7,5.83-4.8,8.25,0,.01,0,.02,0,.02-.31,.91-.66,1.81-1.04,2.69-.03,.06-.04,.1-.07,.15-.36,.84-.75,1.66-1.17,2.46-.02,.06-.05,.11-.08,.16-.41,.78-.85,1.53-1.32,2.27-.1,.17-.21,.33-.32,.5-.42,.64-.86,1.27-1.32,1.87-.09,.12-.19,.24-.28,.36-.47,.59-.96,1.16-1.47,1.7-.2,.22-.41,.43-.61,.64-.51,.52-1.03,1.02-1.58,1.49-.23,.19-.46,.37-.69,.55-.43,.35-.88,.68-1.33,1-.27,.19-.54,.38-.83,.56-.58,.36-1.18,.72-1.81,1.04l65.71,79.7c2.76-7.6,16.71-48.63,11.84-88.1Zm4.35-90.65c.74-2.52,.1-4.92-1.42-5.37-1.52-.45-3.35,1.23-4.1,3.74-.73,2.51-.1,4.91,1.43,5.36,1.52,.44,3.35-1.23,4.09-3.74Zm38.06-5.37c-1.52-.45-3.35,1.23-4.09,3.74-.74,2.51-.1,4.91,1.42,5.36,1.52,.44,3.35-1.23,4.1-3.74,.73-2.52,.1-4.92-1.43-5.37Zm27.61-17.31c-.18,.66-.32,1.33-.42,2.02-.45,3.16,.64,6.38,2.7,8.52l-2.28-10.54Zm-28.45,63.15l1.47,6.81c1.74-4.41,3.62-8.75,5.67-13.02,6.4,.88,12.8,1.49,19.18,.45,1.84,3.07-.78,7.52-3.57,9.74-2.8,2.22-6.47,2.97-9.98,3.66,.53,1.48,.98,2.98,1.43,4.49-.31-.57-.63-1.14-.98-1.69-.08-.13-.24-.17-.37-.11-.15,.07-.22,.25-.15,.4,1.24,2.66,2.26,5.41,2.99,8.22,.72,2.82,1.22,5.7,1.38,8.6,.22,2.9,.11,5.81-.26,8.7-.35,2.89-1.01,5.74-1.89,8.54-.05,.17,.03,.35,.19,.42,.18,.08,.39,0,.47-.17,1.25-2.72,2.09-5.63,2.59-8.59,.39-2.31,.54-4.67,.51-7.02l20.07-7.4c-.79,1.01-1.53,2.05-2.17,3.16-.8,1.4-1.51,2.84-2.01,4.36-.05,.16,.02,.33,.15,.42,.17,.09,.39,.05,.49-.13,.82-1.34,1.63-2.66,2.52-3.93,.9-1.26,1.81-2.51,2.8-3.68,.36-.44,.73-.85,1.1-1.27l4.66-1.71-.53-2.47c.43-.39,.86-.79,1.3-1.18,.1-.08,.13-.23,.06-.36-.08-.14-.26-.2-.4-.12-.4,.22-.78,.48-1.16,.72l-.29-1.33c-.72,.43-1.35,.76-1.8,.94-4.7,1.91-10.27,1.49-14.64-1.09-2.26-1.34-4.37-3.92-3.42-6.36,.86-2.18,3.56-2.84,5.88-3.2,3.57-.55,7.13-1.09,10.7-1.65,.26-.02,.53-.02,.78-.05,1.27-.13,2.54-.3,3.79-.59,.15-.04,.26-.16,.27-.32,.01-.2-.14-.36-.33-.37-1.27-.07-2.52-.07-3.78-.08h-.22l-.71-3.3c-.46,0-.89-.02-1.23-.08-5.58-.97-10.89-3.45-15.2-7.13-1.52-1.29-2.95-2.78-3.58-4.67-.64-1.88-.27-4.22,1.32-5.42,5.02,1.16,9.95,2.6,14.82,4.27-.51-.24-.99-.54-1.48-.83l4.59,2.45c.12,.07,.29,.04,.37-.08,.1-.13,.08-.31-.05-.41-1.51-1.21-3.09-2.3-4.71-3.34-1.61-1.05-3.29-2.01-4.98-2.93-.63-.33-1.27-.65-1.91-.97-2.86-2.89-5.39-6.21-7.8-9.48-1.54-2.08-3.08-5.04-1.42-7.04,.96-1.17,2.71-1.4,4.16-.98,1.45,.42,2.67,1.38,3.85,2.32,2.02,1.6,4.44,3.19,6.87,4.83l-3.48-16.06c-4.08,1.39-8.93,.85-12.73-1.33-3.07-1.76-5.49-4.4-7.32-7.43-.23,19.16-4.26,38.28-11.87,55.86Zm-34.57,300.63l-.78,.06c-.88,.06-1.69,.4-2.37,.91-.59-1.01-1.22-2-1.89-2.96-.89-1.3-1.86-2.54-2.85-3.76-1.01-1.21-2.05-2.4-3.15-3.51-1.1-1.13-2.23-2.22-3.45-3.21-.13-.1-.31-.11-.44-.01-.15,.11-.18,.34-.06,.49,.95,1.26,1.95,2.44,2.94,3.65l2.97,3.58,3,3.57c.77,.9,1.54,1.8,2.32,2.7-.26,.29-.48,.61-.67,.97l-.36,.7h12.71l-2.42-6.02c-1.29,1.59-3.22,2.69-5.51,2.84Zm-159.74-60.85h0Z"/></g></g></svg>