<svg width="732" height="666" viewBox="0 0 732 666" fill="none" xmlns="http://www.w3.org/2000/svg">
<g clip-path="url(#clip0_154_1160)">
<path d="M581.716 584.2L593.299 636.069H544.438L540.019 616.258C487.201 648.285 414.855 664.596 315.885 654.795C154.164 638.783 42.3228 534.867 42.3228 372.227C42.3228 209.577 187.368 0.374023 349.877 0.374023C512.39 0.374023 680.255 102.997 680.255 265.637C680.255 365.363 667.709 501.408 581.716 584.2Z" fill="#67C0E4"/>
<path d="M120.218 331.534C120.249 332.29 120.299 333.046 120.401 333.797C120.761 337.038 121.771 340.194 123.227 343.116C124.246 345.141 125.515 347.038 126.981 348.783C127.569 346.865 128.163 344.973 128.726 343.121C124.941 340.093 122.014 336.039 120.218 331.534ZM210.675 361.198C210.487 362.303 210.249 363.409 209.97 364.505C210.969 362.882 211.791 361.142 212.4 359.331C214.556 352.781 214.404 345.709 214.232 338.723C214.125 331.701 214.171 324.66 214.516 317.638C214.744 312.712 215.114 307.796 215.601 302.885C215.155 302.809 214.708 302.728 214.262 302.626C210.102 311.57 209.94 321.824 210.518 331.671C211.091 341.523 212.324 351.467 210.675 361.198ZM216.464 303.032C216.251 306.568 216.078 310.109 215.936 313.645C216.241 310.094 216.652 306.568 217.184 303.108C216.946 303.078 216.702 303.068 216.464 303.032ZM274.228 236.881C272.453 239.626 270.809 242.492 269.52 245.475C282.716 245.156 298.875 248.87 318.549 257.946C318.27 254.506 318.265 251.026 318.27 247.571C318.275 245.13 318.194 242.523 317.747 240.072C317.067 239.692 316.383 239.337 315.667 239.063C314.647 238.672 313.597 238.363 312.522 238.19C311.451 237.997 310.361 237.937 309.265 237.962C308.164 237.997 307.068 238.165 305.962 238.413C305.805 238.454 305.647 238.353 305.607 238.2C305.587 238.074 305.642 237.947 305.744 237.886C306.774 237.267 307.941 236.891 309.138 236.694C310.335 236.491 311.573 236.521 312.77 236.699C313.968 236.907 315.15 237.272 316.22 237.85C316.646 238.074 317.042 238.337 317.428 238.611C317.098 237.353 316.651 236.166 316.038 235.08C315.814 235.03 315.586 234.979 315.363 234.933C314.653 234.811 313.947 234.7 313.237 234.659C312.522 234.598 311.811 234.614 311.091 234.634C310.366 234.664 309.64 234.761 308.884 234.852C308.727 234.872 308.57 234.761 308.554 234.598C308.534 234.482 308.595 234.375 308.676 234.309C309.346 233.858 310.112 233.563 310.908 233.376C311.695 233.178 312.517 233.122 313.328 233.158C313.851 233.193 314.368 233.289 314.876 233.411C314.531 233.005 314.14 232.625 313.719 232.27C312.664 232.138 311.619 232.112 310.594 232.244C309.513 232.391 308.453 232.65 307.454 233.071C306.444 233.472 305.5 234.025 304.623 234.669C303.745 235.329 302.969 236.125 302.274 237.023C302.172 237.155 301.99 237.176 301.863 237.084C301.761 237.008 301.726 236.866 301.766 236.749C302.609 234.446 304.607 232.63 306.88 231.681C308.032 231.209 309.26 230.92 310.503 230.915C310.817 230.91 311.132 230.92 311.441 230.946C306.647 229.216 299.803 232.112 298.438 237.018C298.043 232.665 294.583 228.911 290.438 227.709C290.778 227.978 291.123 228.247 291.442 228.551C292.366 229.469 293.167 230.509 293.756 231.661C294.349 232.818 294.765 234.061 294.892 235.329C294.907 235.491 294.796 235.628 294.628 235.648C294.501 235.659 294.385 235.583 294.334 235.471C293.867 234.345 293.319 233.289 292.66 232.31C291.99 231.346 291.249 230.433 290.397 229.626C289.56 228.815 288.626 228.11 287.632 227.48C287.536 227.42 287.439 227.374 287.343 227.318C287.196 227.328 287.049 227.318 286.902 227.333C285.613 227.44 284.395 227.775 283.244 228.277C284.061 228.348 284.872 228.51 285.659 228.749C288.16 229.55 290.453 231.28 291.605 233.624C291.676 233.766 291.62 233.939 291.478 234.01C291.361 234.071 291.219 234.035 291.133 233.949C290.301 233.046 289.398 232.27 288.398 231.646C287.389 231.027 286.328 230.519 285.202 230.185C284.091 229.834 282.929 229.647 281.757 229.586C281.463 229.576 281.174 229.601 280.88 229.616C280.129 230.134 279.403 230.717 278.723 231.356C279.134 231.321 279.545 231.311 279.951 231.316C280.743 231.351 281.529 231.438 282.28 231.651C283.041 231.844 283.781 232.117 284.461 232.523C284.598 232.605 284.644 232.787 284.563 232.929C284.502 233.031 284.395 233.076 284.284 233.071L282.082 232.904C281.351 232.868 280.641 232.823 279.921 232.823C279.205 232.807 278.49 232.828 277.765 232.838L277.257 232.863C276.136 234.121 275.126 235.496 274.228 236.881ZM118.311 323.614C117.666 316.06 120.239 308.288 125.256 302.616C130.522 296.67 138.391 292.804 141.592 285.534C145.184 277.381 141.643 268.067 140.588 259.219C140.319 256.956 140.243 254.678 140.329 252.416C140.035 253.892 139.837 255.389 139.75 256.901C139.329 262.507 140.024 268.27 139.167 274.064C138.726 276.945 137.883 279.786 136.473 282.363C135.047 284.92 132.978 287.183 130.36 288.522C130.223 288.599 130.045 288.538 129.974 288.396C129.903 288.259 129.954 288.091 130.086 288.015C132.516 286.61 134.347 284.378 135.57 281.887C136.828 279.406 137.564 276.661 137.909 273.891C138.589 268.315 137.909 262.598 138.254 256.799C138.513 252.685 139.547 248.601 141.293 244.857C143.992 232.011 152.079 220.236 163.504 213.706C175.761 206.705 191.437 204.427 200.737 193.804C213.77 178.924 234.17 170.852 253.844 172.775C265.497 173.917 276.704 178.574 285.978 185.717C304.151 174.601 328.701 188.107 339.862 201.282C351.886 215.472 354.219 237.12 345.493 253.542C342.962 258.331 339.522 262.857 338.756 268.214C337.985 273.577 341.774 279.117 347.183 279.01C342.875 283.388 335.463 283.632 330.141 280.573C327.924 279.304 326.062 277.549 324.5 275.53C324.013 297.736 324.946 339.874 337.685 360.513C355.457 389.309 335.976 431.229 335.976 431.229C335.976 431.229 241.577 429.687 226.123 395.442C221.831 385.925 217.276 366.159 215.794 344.009C215.779 349.301 215.439 354.653 213.658 359.767C212.603 362.704 211.025 365.444 208.981 367.803C206.48 375.098 201.878 381.668 195.06 385.022C187.916 388.522 179.485 388.025 171.677 386.544C163.874 385.062 156.122 383.322 148.208 382.576C139.75 381.775 133.252 381.719 124.52 386.026C122.354 381.826 121.887 376.737 122.552 368.381C123.039 362.268 124.815 355.871 126.687 349.737C124.886 347.971 123.348 345.932 122.111 343.71C120.436 340.722 119.366 337.389 118.909 333.979C118.661 331.808 118.696 329.611 118.955 327.45C118.661 326.187 118.427 324.908 118.311 323.614ZM616.803 117.415V121.935H635.605V117.415H616.803ZM616.803 155.987H641.886V151.467H616.803V155.987ZM636.006 150.595H654.107V146.074H636.006V150.595ZM616.803 150.595H635.605V146.074H616.803V150.595ZM616.803 145.212H650.678V140.691H616.803V145.212ZM616.803 138.099H641.886V133.579H616.803V138.099ZM658.217 128.196H636.006V132.716H658.217V128.196ZM616.803 132.716H635.605V128.196H616.803V132.716ZM616.803 127.323H650.678V122.803H616.803V127.323ZM568.521 114.082H605.825V109.562H568.521V114.082ZM602.395 69.787H568.521V74.3073H602.395V69.787ZM568.521 108.882H593.603V104.362H568.521V108.882ZM605.825 98.9686H587.718V103.489H605.825V98.9686ZM568.521 103.489H587.317V98.9686H568.521V103.489ZM568.521 98.1011H602.395V93.5808H568.521V98.1011ZM568.521 90.9934H593.603V86.4782H568.521V90.9934ZM609.934 81.0852H587.718V85.6056H609.934V81.0852ZM568.521 85.6056H587.317V81.0852H568.521V85.6056ZM568.521 80.2177H602.395V75.7025H568.521V80.2177ZM651.702 63.3135H617.823V67.8338H651.702V63.3135ZM642.91 57.9662H617.823V62.4865H642.91V57.9662ZM637.025 57.0987H655.132V52.5784H637.025V57.0987ZM636.63 52.5784H617.823V57.0987H636.63V52.5784ZM651.702 47.1905H617.823V51.7108H651.702V47.1905ZM642.91 40.0828H617.823V44.6031H642.91V40.0828ZM637.025 39.2102H659.241V34.6899H637.025V39.2102ZM636.63 34.6899H617.823V39.2102H636.63V34.6899ZM651.702 29.3071H617.823V33.8274H651.702V29.3071ZM656.502 74.3073H620.568V110.272H656.502V74.3073ZM661.017 114.787H616.047V69.787H661.017V114.787ZM608.209 121.935H572.28V150.752H608.209V121.935ZM612.729 155.272H567.765V117.415H612.729V155.272ZM608.209 33.8274H572.28V63.3135H608.209V33.8274ZM612.729 67.8338H567.765V29.3071H612.729V67.8338ZM646.68 288.543H621.592V293.063H646.68V288.543ZM663.011 283.155H640.795V287.67H663.011V283.155ZM621.592 287.67H640.394V283.155H621.592V287.67ZM655.472 277.767H621.592V282.287H655.472V277.767ZM621.592 261.106H646.68V256.586H621.592V261.106ZM663.011 251.198H640.795V255.718H663.011V251.198ZM621.592 255.718H640.394V251.198H621.592V255.718ZM655.472 245.805H621.592V250.326H655.472V245.805ZM621.592 229.145H646.68V224.624H621.592V229.145ZM663.011 219.241H640.795V223.762H663.011V219.241ZM621.592 223.762H640.394V219.241H621.592V223.762ZM655.472 213.849H621.592V218.369H655.472V213.849ZM593.233 293.936H610.254V276.894H593.233V293.936ZM588.717 272.379H614.769V298.456H588.717V272.379ZM610.254 244.943H593.233V261.974H610.254V244.943ZM614.769 266.494H588.717V240.422H614.769V266.494ZM610.254 212.986H593.233V230.017H610.254V212.986ZM614.769 234.537H588.717V208.466H614.769V234.537ZM564.797 288.543H539.714V293.063H564.797V288.543ZM558.917 287.67H581.133V283.155H558.917V287.67ZM558.516 283.155H539.714V287.67H558.516V283.155ZM573.594 277.767H539.714V282.287H573.594V277.767ZM564.797 224.624H539.714V229.145H564.797V224.624ZM558.917 223.762H581.133V219.241H558.917V223.762ZM558.516 219.241H539.714V223.762H558.516V219.241ZM573.594 213.849H539.714V218.369H573.594V213.849ZM511.355 293.936H528.376V276.894H511.355V293.936ZM506.839 272.379H532.891V298.456H506.839V272.379ZM528.376 212.986H511.355V230.017H528.376V212.986ZM532.891 234.537H506.839V208.466H532.891V234.537ZM524.814 21.1797H413.217V163.4H524.814V21.1797ZM714.591 644.643C714.591 656.388 554.523 665.9 357.065 665.9C159.612 665.9 -0.460449 656.388 -0.460449 644.643C-0.460449 634.359 122.364 625.775 285.542 623.807L248.517 531.711C247.741 529.753 248.7 527.536 250.658 526.76C252.616 525.983 254.833 526.942 255.609 528.901L293.73 623.711C314.287 623.492 335.453 623.381 357.065 623.381C424.875 623.381 488.271 624.507 542.292 626.455L544.438 636.069H593.299L591.63 628.596C666.963 632.492 714.591 638.235 714.591 644.643Z" fill="#0A0948"/>
<path d="M428.076 149.336H485.775V147.83H428.076V149.336ZM509.954 138.642H428.076V140.149H509.954V138.642ZM509.954 129.449H428.076V130.956H509.954V129.449ZM509.954 120.261H428.076V121.768H509.954V120.261ZM509.954 111.068H428.076V112.575H509.954V111.068ZM509.954 101.876H428.076V103.382H509.954V101.876ZM509.204 39.6059H428.832V91.5362H509.204V39.6059ZM510.71 93.043H427.325V38.0991H510.71V93.043ZM529.877 211.479H509.848V231.524H529.877V211.479ZM446 248.601L444.935 247.535L434.697 257.783L431.034 254.11L429.974 255.176L434.697 259.914L446 248.601ZM447.999 263.481H427.97V243.436H447.999V263.481ZM661.504 220.748H642.302V222.255H661.504V220.748ZM661.504 252.705H642.302V254.212H661.504V252.705ZM661.504 284.662H642.302V286.168H661.504V284.662ZM645.173 290.049H623.099V291.556H645.173V290.049ZM613.262 209.972H590.224V233.031H613.262V209.972ZM613.262 241.929H590.224V264.987H613.262V241.929ZM613.262 273.886H590.224V296.949H613.262V273.886ZM579.626 220.748H560.424V222.255H579.626V220.748ZM579.626 252.705H560.424V254.212H579.626V252.705ZM579.626 284.662H560.424V286.168H579.626V284.662ZM563.29 290.049H541.221V291.556H563.29V290.049ZM531.384 209.972H508.346V233.031H531.384V209.972ZM531.384 241.929H508.346V264.987H531.384V241.929ZM531.384 273.886H508.346V296.949H531.384V273.886ZM497.743 220.748H478.546V222.255H497.743V220.748ZM497.743 252.705H478.546V254.212H497.743V252.705ZM497.743 284.662H478.546V286.168H497.743V284.662ZM481.412 290.049H459.338V291.556H481.412V290.049ZM449.506 209.972H426.468V233.031H449.506V209.972ZM449.506 241.929H426.468V264.987H449.506V241.929ZM449.506 273.886H426.468V296.949H449.506V273.886ZM459.338 286.168H475.131V284.662H459.338V286.168ZM459.338 280.781H490.209V279.274H459.338V280.781ZM459.338 259.6H481.412V258.093H459.338V259.6ZM459.338 254.212H475.131V252.705H459.338V254.212ZM459.338 248.819H490.209V247.312H459.338V248.819ZM459.338 227.638H481.412V226.131H459.338V227.638ZM459.338 222.255H475.131V220.748H459.338V222.255ZM459.338 216.862H490.209V215.355H459.338V216.862ZM541.221 286.168H557.009V284.662H541.221V286.168ZM541.221 280.781H572.087V279.274H541.221V280.781ZM541.221 259.6H563.29V258.093H541.221V259.6ZM541.221 254.212H557.009V252.705H541.221V254.212ZM541.221 248.819H572.087V247.312H541.221V248.819ZM541.221 227.638H563.29V226.131H541.221V227.638ZM541.221 222.255H557.009V220.748H541.221V222.255ZM541.221 216.862H572.087V215.355H541.221V216.862ZM623.099 286.168H638.887V284.662H623.099V286.168ZM623.099 280.781H653.965V279.274H623.099V280.781ZM623.099 259.6H645.173V258.093H623.099V259.6ZM623.099 254.212H638.887V252.705H623.099V254.212ZM623.099 248.819H653.965V247.312H623.099V248.819ZM623.099 227.638H645.173V226.131H623.099V227.638ZM623.099 222.255H638.887V220.748H623.099V222.255ZM623.099 216.862H653.965V215.355H623.099V216.862ZM675.501 311.479H413.217V191.191H675.501V311.479ZM446 280.557L444.935 279.492L434.697 289.74L431.034 286.072L429.974 287.137L434.697 291.871L446 280.557ZM447.999 295.442H427.97V275.393H447.999V295.442ZM529.877 275.393H509.848V295.442H529.877V275.393ZM527.878 248.601L526.813 247.535L516.575 257.783L512.912 254.11L511.852 255.176L516.575 259.914L527.878 248.601ZM529.877 263.481H509.848V243.436H529.877V263.481ZM611.755 275.393H591.726V295.442H611.755V275.393ZM611.755 243.436H591.726V263.481H611.755V243.436ZM611.755 211.479H591.726V231.524H611.755V211.479ZM446 216.644L444.935 215.578L434.697 225.821L431.034 222.153L429.974 223.219L434.697 227.952L446 216.644ZM447.999 231.524H427.97V211.479H447.999V231.524ZM720.694 335.648C720.583 335.567 720.471 335.491 720.354 335.415V335.405C719.294 334.679 718.011 334.238 716.605 334.238H401.502C398.296 334.238 395.546 336.531 394.978 339.692L352.144 578.203C351.662 580.897 352.875 583.439 354.95 584.859L361.291 589.334L366.182 586.011H533.261L522.841 539.336H571.691L582.112 586.011H673.771C676.978 586.011 679.727 583.707 680.29 580.547L722.906 343.263L727.259 340.295L720.694 335.648ZM290.554 533.527C291.102 533.527 291.62 533.284 291.965 532.873C292.71 531.995 293.395 530.996 294.106 529.733C294.664 528.748 295.181 527.627 295.683 526.298C296.17 524.943 296.495 523.797 296.703 522.696C296.987 521.296 297.129 520.063 297.134 518.911C297.139 518.13 296.647 517.435 295.891 517.186L295.577 517.105H295.343C294.557 517.105 293.872 517.607 293.629 518.348L292.584 521.575L292.355 522.224C292.066 523.061 291.777 523.893 291.447 524.735C291.133 525.583 290.788 526.415 290.443 527.252L290.219 527.8L288.855 530.955C288.535 531.706 288.743 532.569 289.367 533.091C289.702 533.375 290.118 533.527 290.554 533.527ZM264.802 551.771L265.37 550.954C267.806 547.413 270.007 543.831 271.915 540.3C274.868 534.852 277.491 528.906 279.723 522.625C281.904 516.283 283.563 509.997 284.639 503.955C285.785 497.634 286.404 491.165 286.48 484.743C286.486 483.784 285.75 482.997 284.684 482.931C283.741 482.931 282.954 483.667 282.899 484.611C282.508 490.739 281.681 496.979 280.433 503.148C279.134 509.5 277.465 515.553 275.461 521.143C273.503 526.8 271.022 532.558 268.074 538.271C266.552 541.208 264.848 544.227 262.981 547.246L263.681 548.981C263.818 549.285 264.127 550.097 264.127 550.097C264.569 551.091 264.802 551.771 264.802 551.771ZM154.991 495.265C154.706 495.097 154.387 495.006 154.062 495.006C153.438 495.006 152.85 495.336 152.525 495.873C151.561 497.471 150.683 499.09 149.664 501.018C149.065 502.134 148.507 503.265 147.944 504.402C147.644 505.005 147.345 505.614 147.015 506.258L146.249 507.897C145.681 509.11 145.108 510.322 144.57 511.55C143.824 513.265 143.028 515.086 142.317 516.994C142.013 517.831 142.338 518.774 143.099 519.226C143.388 519.393 143.718 519.49 144.053 519.49C144.697 519.49 145.306 519.145 145.635 518.597C146.686 516.836 147.655 515.01 148.487 513.427C149.095 512.245 149.689 511.043 150.277 509.85L151.104 508.171C151.383 507.557 151.673 506.933 151.962 506.314C152.489 505.173 153.017 504.031 153.519 502.875C154.387 500.876 155.102 499.181 155.746 497.426C156.041 496.619 155.726 495.706 154.991 495.265ZM160.581 401.388C157.436 398.187 153.859 395.686 149.948 393.951L149.542 393.804H149.227C148.542 393.804 147.908 394.199 147.614 394.813C147.401 395.244 147.376 395.731 147.533 396.183C147.69 396.634 148.015 397 148.446 397.213C154.98 400.384 160.571 406.294 164.168 413.838C167.506 420.865 169.165 428.784 168.952 436.754C168.815 443.826 167.39 451.523 164.604 460.289C162.164 467.955 158.983 475.57 155.914 482.936L155.828 483.129C155.447 484.047 155.858 485.098 156.766 485.514L157.208 485.686H157.537C158.253 485.686 158.907 485.265 159.212 484.616C162.57 477.371 166.066 469.624 168.729 461.639C171.712 452.74 173.26 444.628 173.462 436.845C173.61 428.003 171.732 419.393 168.009 411.956C165.979 407.918 163.478 404.366 160.581 401.388ZM259.678 466.2L259.912 466.195L260.028 466.174C260.82 466.047 261.489 465.51 261.773 464.764C261.951 464.317 279.155 419.693 273.99 376.701L272.463 376.605L269.449 376.468L269.434 376.62L269.46 376.828C273.777 411.728 262.839 447.885 258.887 459.437L196.764 384.083C196.211 384.413 195.638 384.733 195.06 385.022C194.233 385.417 193.395 385.767 192.543 386.067L257.938 465.383C258.364 465.9 258.998 466.2 259.678 466.2ZM332.211 625.369L418.569 657.625H267.973L228.98 629.631C230.968 629.732 233.069 629.707 235.291 629.479C248.588 628.099 251.875 625.938 252.53 625.369H253.24L265.167 628.444C267.958 629.159 270.86 627.876 272.235 625.369H286.176L287.602 628.911C287.805 629.413 288.124 629.854 288.545 630.189L292.984 633.776C293.4 634.111 294.024 633.862 294.101 633.334L294.882 627.673C294.953 627.14 294.887 626.602 294.694 626.1L294.395 625.369H332.211Z" fill="white"/>
<path d="M350.785 424.101C343.936 415.68 339.431 404.787 333.911 394.783C337.827 389.009 338.954 381.582 343.134 375.956C347.893 369.563 356.051 366.316 360.566 359.747C364.148 354.541 364.959 347.819 364.107 341.554C363.813 339.428 363.336 337.338 362.758 335.278C363.275 333.381 362.961 330.961 361.981 329.363C361.611 329.418 361.241 329.474 360.87 329.535C360.221 327.744 359.521 325.969 358.806 324.203C359.095 323.944 359.318 323.665 359.455 323.366C360.383 321.225 359.394 317.816 357.243 316.913C355.422 316.147 353.585 315.421 351.733 314.731C356.766 315.309 359.374 309.678 355.802 305.493C351.693 300.668 344.25 296.777 339.238 292.814C338.086 291.896 336.899 290.968 335.489 290.557C334.073 290.151 332.369 290.379 331.435 291.516C329.817 293.459 331.323 296.34 332.82 298.37C337.168 304.265 341.856 310.373 348.37 313.554C343.631 311.926 338.822 310.52 333.936 309.394C332.394 310.561 332.029 312.844 332.653 314.675C333.272 316.512 334.667 317.968 336.143 319.221C337.716 320.565 339.426 321.742 341.237 322.742C341.161 322.777 341.079 322.813 341.003 322.859C339.786 323.559 338.654 324.391 337.609 325.319C337.787 324.203 337.66 323.107 337.087 322.148C330.872 323.158 324.637 322.559 318.402 321.707C309.118 341.062 303.111 361.984 300.696 383.317C299.164 387.624 298.677 391.921 300.605 395.31C300.6 395.31 300.584 395.31 300.579 395.31C312.968 422.985 325.352 450.655 337.746 478.33C345.072 494.712 352.449 511.134 361.403 526.663L374.969 451.147C366.492 442.512 358.42 433.482 350.785 424.101ZM609.716 120.429H570.778V152.259H609.716V120.429ZM659.51 71.2938H617.554V113.28H659.51V71.2938ZM656.71 129.703H637.512V131.209H656.71V129.703ZM652.6 147.581H637.512V149.088H652.6V147.581ZM618.305 147.581V149.088H634.103V147.581H618.305ZM618.305 142.198V143.705H649.171V142.198H618.305ZM618.305 135.085V136.592H640.384V135.085H618.305ZM618.305 129.703V131.209H634.103V129.703H618.305ZM634.103 120.429V118.922H618.305V120.429H634.103ZM618.305 124.31V125.817H649.171V124.31H618.305ZM640.384 152.974H618.305V154.481H640.384V152.974ZM611.223 30.8139H569.271V66.327H611.223V30.8139ZM570.022 111.068V112.575H604.318V111.068H570.022ZM570.022 105.868V107.375H592.096V105.868H570.022ZM570.022 100.475V101.982H585.81V100.475H570.022ZM589.225 100.475V101.982H604.318V100.475H589.225ZM570.022 95.0876V96.5943H600.888V95.0876H570.022ZM570.022 87.9849V89.4866H592.096V87.9849H570.022ZM570.022 82.592V84.0988H585.81V82.592H570.022ZM570.022 77.2092V78.7109H600.888V77.2092H570.022ZM589.225 82.592V84.0988H608.427V82.592H589.225ZM600.888 71.2938H570.022V72.8005H600.888V71.2938ZM611.223 118.922H569.271V153.765H611.223V118.922ZM619.33 66.327H650.196V64.8202H619.33V66.327ZM619.33 60.9797H641.404V59.473H619.33V60.9797ZM619.33 55.5919H635.123V54.0851H619.33V55.5919ZM638.532 54.0851V55.5919H653.625V54.0851H638.532ZM619.33 50.2041H650.196V48.6973H619.33V50.2041ZM619.33 43.0964H641.404V41.5896H619.33V43.0964ZM619.33 37.7034H635.123V36.1967H619.33V37.7034ZM638.532 36.1967V37.7034H657.735V36.1967H638.532ZM619.33 32.3207H650.196V30.8139H619.33V32.3207ZM668.526 21.1797V163.4H556.928V21.1797H668.526ZM658.004 72.8005H619.061V111.779H658.004V72.8005ZM609.716 32.3207H570.778V64.8202H609.716V32.3207ZM280.032 589.648L283.741 598.856C283.482 598.324 283.173 597.806 282.767 597.355L270.545 583.773C269.16 582.236 267.4 581.085 265.431 580.44L244.824 573.688C240.435 572.252 235.616 573.49 232.475 576.879L216.281 594.311L107.423 591.125L122.177 561.309L119.701 555.5C109.874 532.472 89.0073 516.035 64.3308 511.885C64.3308 511.885 28.148 596.031 30.6034 605.031C33.0538 614.031 38.7765 639.62 68.1966 639.62C89.3878 639.62 171.23 631.255 215.333 626.577C219.792 628.449 226.712 630.362 235.291 629.479C250.693 627.881 252.677 625.222 252.677 625.222L265.168 628.444C268.029 629.18 271.007 627.825 272.341 625.192L273.468 622.995C274.152 621.641 275.502 620.743 277.019 620.646L277.775 620.59C282.894 620.256 286.191 615.03 284.304 610.261L284.345 601.495C284.35 600.835 284.228 600.196 284.025 599.582L284.035 599.597C289.733 599.957 294.172 596.802 290.651 593.555C288.49 591.571 283.949 590.359 280.032 589.648ZM274.005 476.29C274.005 468.381 267.582 461.948 259.678 461.948C251.774 461.948 245.341 468.381 245.341 476.29C245.341 484.205 251.774 490.633 259.678 490.633C267.582 490.633 274.005 484.205 274.005 476.29ZM215.601 302.885C215.155 302.809 214.709 302.728 214.262 302.626C210.102 311.57 209.94 321.824 210.518 331.671C211.091 341.523 212.324 351.467 210.675 361.198C210.488 362.303 210.249 363.409 209.97 364.505C210.969 362.882 211.791 361.142 212.4 359.331C214.556 352.781 214.404 345.709 214.232 338.723C214.125 331.701 214.171 324.66 214.516 317.638C214.744 312.712 215.114 307.796 215.601 302.885ZM249.593 298.167C252.642 296.198 254.95 293.17 256.984 290.06C252.733 293.809 247.244 295.965 241.572 295.189C239.497 296.97 237.249 298.491 234.89 299.724C236.229 299.963 237.574 300.171 238.918 300.282C242.662 300.643 246.523 300.216 249.593 298.167ZM323.008 273.343C321.603 271.03 320.538 268.483 319.843 265.875C318.255 259.939 318.255 253.715 318.27 247.571C318.275 245.13 318.194 242.523 317.747 240.072C317.067 239.692 316.383 239.337 315.667 239.063C314.648 238.672 313.597 238.363 312.522 238.19C311.451 237.997 310.361 237.937 309.265 237.962C308.164 237.997 307.068 238.165 305.962 238.413C305.805 238.454 305.647 238.353 305.607 238.2C305.587 238.074 305.642 237.947 305.744 237.886C306.774 237.267 307.941 236.891 309.138 236.694C310.335 236.491 311.573 236.521 312.77 236.699C313.968 236.907 315.15 237.272 316.22 237.85C316.646 238.074 317.042 238.337 317.428 238.611C317.098 237.353 316.651 236.166 316.038 235.08C315.814 235.03 315.586 234.979 315.363 234.933C314.653 234.811 313.947 234.7 313.237 234.659C312.522 234.598 311.812 234.614 311.091 234.634C310.366 234.664 309.64 234.761 308.884 234.852C308.727 234.872 308.57 234.761 308.554 234.598C308.534 234.482 308.595 234.375 308.676 234.309C309.346 233.858 310.112 233.563 310.908 233.376C311.695 233.178 312.517 233.122 313.328 233.158C313.851 233.193 314.368 233.289 314.876 233.411C314.531 233.005 314.14 232.625 313.719 232.27C312.664 232.138 311.619 232.112 310.594 232.244C309.513 232.391 308.453 232.65 307.454 233.071C306.444 233.472 305.5 234.025 304.623 234.669C303.745 235.329 302.969 236.125 302.274 237.023C302.172 237.155 301.99 237.176 301.863 237.084C301.761 237.008 301.726 236.866 301.766 236.749C302.609 234.446 304.607 232.63 306.88 231.681C308.032 231.209 309.26 230.92 310.503 230.915C310.817 230.91 311.132 230.92 311.441 230.946C306.647 229.216 299.803 232.112 298.438 237.018C298.043 232.665 294.583 228.911 290.438 227.709C290.778 227.978 291.123 228.247 291.442 228.551C292.366 229.469 293.167 230.509 293.756 231.661C294.349 232.818 294.765 234.061 294.892 235.329C294.907 235.491 294.796 235.628 294.628 235.648C294.501 235.659 294.385 235.583 294.334 235.471C293.867 234.345 293.319 233.289 292.66 232.31C291.99 231.346 291.249 230.433 290.397 229.626C289.56 228.815 288.627 228.11 287.632 227.48C287.536 227.42 287.439 227.374 287.343 227.318C287.196 227.328 287.049 227.318 286.902 227.333C285.613 227.44 284.395 227.775 283.244 228.277C284.061 228.348 284.872 228.51 285.659 228.749C288.16 229.55 290.453 231.28 291.605 233.624C291.676 233.766 291.62 233.939 291.478 234.01C291.361 234.071 291.219 234.035 291.133 233.949C290.301 233.046 289.398 232.27 288.398 231.646C287.389 231.027 286.328 230.519 285.202 230.185C284.091 229.834 282.929 229.647 281.757 229.586C281.463 229.576 281.174 229.601 280.88 229.616C280.129 230.134 279.403 230.717 278.723 231.356C279.134 231.321 279.545 231.311 279.951 231.316C280.743 231.351 281.529 231.438 282.28 231.651C283.041 231.844 283.782 232.117 284.461 232.523C284.598 232.605 284.644 232.787 284.563 232.929C284.502 233.031 284.395 233.076 284.284 233.071L282.082 232.904C281.351 232.868 280.641 232.823 279.921 232.823C279.205 232.807 278.49 232.828 277.765 232.838L277.257 232.863C276.136 234.121 275.126 235.496 274.229 236.881C270.287 242.979 266.857 249.681 266.979 256.951C267.131 265.779 266.669 274.941 262.641 282.8C261.951 284.154 261.124 285.433 260.201 286.63C259.577 287.949 258.917 289.248 258.177 290.516C256.203 293.88 253.773 297.117 250.404 299.415C246.965 301.728 242.652 302.099 238.786 301.632C236.879 301.404 235.022 301.013 233.191 300.556C231.232 301.444 229.203 302.144 227.128 302.616C227.813 304.803 228.589 306.959 229.472 309.069C231.364 313.605 233.678 317.953 236.443 322.006C239.147 326.095 242.317 329.88 245.793 333.345C249.278 336.8 253.103 339.935 257.223 342.644C257.36 342.736 257.395 342.913 257.309 343.045C257.223 343.172 257.06 343.213 256.923 343.137C252.596 340.681 248.553 337.693 244.91 334.258C241.257 330.839 238.03 326.978 235.195 322.848C232.419 318.683 230.045 314.239 228.234 309.572C227.377 307.37 226.646 305.117 226.042 302.834C222.912 303.423 219.696 303.509 216.464 303.032C216.17 307.918 215.926 312.803 215.784 317.689C215.596 324.69 215.546 331.686 215.733 338.692C215.845 345.663 216.038 352.933 213.658 359.767C212.603 362.704 211.025 365.444 208.981 367.803C207.078 373.348 203.953 378.467 199.575 382.084C206.576 393.814 214.678 404.945 224.987 413.858C236.996 424.233 252.327 431.412 268.191 431.229C271.844 431.184 275.578 430.727 278.815 429.053C282.057 427.369 284.735 424.279 285.146 420.646C285.755 415.188 281.356 410.52 276.953 407.243C272.549 403.965 265.122 400.739 265.452 395.26C266.355 380.395 267.065 365.241 267.968 350.371C275.654 353.278 284.167 356.2 291.863 353.339C298.829 350.752 303.314 344.055 306.789 337.485C317.21 317.811 322.744 295.6 323.008 273.343ZM140.577 249.138H107.571V164.922C107.063 165.728 106.561 166.52 106.064 167.331V250.645H140.461C140.501 250.138 140.517 249.636 140.577 249.138ZM221.415 178.442C221.908 178.214 222.415 178.016 222.917 177.803V76.1591H180.073C179.535 76.6613 179.003 77.1636 178.47 77.6658H221.415V178.442ZM340.379 201.947C340.785 202.444 341.181 202.946 341.556 203.453H375.791V28.9723H258.938V173.531C259.44 173.617 259.942 173.734 260.439 173.846V30.4791H374.284V201.947H340.379ZM254.417 172.856V24.452H380.306V207.974H344.494C344.778 208.476 345.062 208.978 345.326 209.48H381.813V22.9452H256.553C255.336 23.5337 254.118 24.1222 252.916 24.731V172.719C253.225 172.74 253.529 172.745 253.844 172.775C254.037 172.8 254.224 172.836 254.417 172.856ZM227.483 176.017C227.98 175.844 228.488 175.677 228.985 175.515V70.132H186.724C186.161 70.6342 185.608 71.1416 185.05 71.6388H227.483V176.017ZM140.39 256.667H100.092V177.336C100.595 176.479 101.092 175.611 101.594 174.754V255.16H140.324C140.334 255.663 140.359 256.165 140.39 256.667Z" fill="#FFE1D2"/>
<path d="M259.125 624.974C258.501 624.36 257.887 623.731 257.344 623.051C256.776 622.386 256.279 621.676 255.782 620.946C255.295 620.205 254.869 619.434 254.417 618.627C254.366 618.526 254.255 618.46 254.133 618.48C253.971 618.495 253.854 618.637 253.874 618.805C253.981 619.748 254.275 620.672 254.666 621.549C254.833 621.93 255.031 622.285 255.244 622.64C255.153 622.711 255.061 622.777 254.985 622.853C254.686 623.163 254.483 623.553 254.341 623.954C254.224 624.35 254.148 624.771 254.194 625.192C254.229 625.608 254.331 626.024 254.574 626.379C254.615 626.43 254.666 626.47 254.732 626.496C254.894 626.552 255.072 626.47 255.138 626.308L255.143 626.283C255.275 625.928 255.356 625.613 255.462 625.314C255.574 625.009 255.655 624.725 255.767 624.441C255.843 624.218 255.929 624.005 256.02 623.782C256.071 623.853 256.117 623.934 256.178 624.005C256.797 624.751 257.481 625.435 258.273 625.999C259.049 626.557 259.886 627.044 260.804 627.338C260.936 627.378 261.089 627.338 261.18 627.226C261.302 627.079 261.281 626.861 261.129 626.734C260.434 626.151 259.754 625.588 259.125 624.974ZM276.496 600.967C277.927 602.514 279.251 604.168 280.56 605.832C281.859 607.501 283.091 609.226 284.314 610.977C284.395 611.088 284.542 611.129 284.674 611.068C284.821 610.997 284.882 610.829 284.816 610.687C283.898 608.734 282.792 606.872 281.585 605.086C280.382 603.29 279.023 601.606 277.617 599.962C276.161 598.369 274.644 596.822 273.006 595.407C271.372 593.996 269.657 592.677 267.826 591.536C267.694 591.449 267.501 591.47 267.39 591.602C267.268 591.744 267.278 591.962 267.42 592.084C269.013 593.494 270.596 594.909 272.108 596.391C273.625 597.862 275.106 599.369 276.496 600.967ZM252.956 623.832C252.885 623.634 252.814 623.437 252.692 623.244C252.581 623.051 252.454 622.853 252.246 622.655L252.226 622.645C252.205 622.62 252.175 622.599 252.139 622.579C251.931 622.473 251.673 622.559 251.571 622.762C251.434 623.036 251.404 623.305 251.404 623.563C251.393 623.827 251.454 624.081 251.541 624.329C251.637 624.563 251.744 624.801 251.926 624.994C252.099 625.202 252.291 625.38 252.576 625.506C252.596 625.517 252.626 625.527 252.657 625.527C252.85 625.562 253.037 625.435 253.073 625.243V625.227C253.123 624.938 253.108 624.705 253.083 624.477C253.078 624.248 253.012 624.04 252.956 623.832ZM110.462 591.236C106.246 590.47 101.959 590.1 97.6623 590.039C93.3652 589.988 89.063 590.303 84.8065 590.876C80.5551 591.52 76.3392 592.408 72.2298 593.661C68.1204 594.909 64.1074 596.462 60.2669 598.369C60.1401 598.435 60.0742 598.593 60.1249 598.735C60.1858 598.882 60.3583 598.953 60.5054 598.892C64.4626 597.334 68.4806 595.975 72.5799 594.884C76.674 593.798 80.8189 592.916 85.0196 592.368C89.2051 591.749 93.4311 591.449 97.6673 591.378C101.904 591.302 106.14 591.5 110.371 591.911C110.543 591.931 110.711 591.81 110.741 591.632C110.777 591.449 110.65 591.272 110.462 591.236ZM214.561 626.049C211.994 624.568 210.421 621.402 210.792 618.272C210.812 618.115 210.716 617.957 210.558 617.902C210.376 617.841 210.188 617.942 210.127 618.125C209.29 620.727 210.077 623.731 211.954 625.806C210.934 625.648 209.929 625.369 208.986 624.959C207.372 624.253 205.896 623.117 205.176 621.463C205.125 621.341 204.988 621.26 204.856 621.291C204.699 621.321 204.597 621.473 204.623 621.636C204.815 622.62 205.353 623.533 206.018 624.299C206.708 625.045 207.53 625.654 208.412 626.136C210.188 627.069 212.192 627.541 214.226 627.45C214.475 627.429 214.714 627.292 214.845 627.069C215.048 626.704 214.922 626.252 214.561 626.049ZM333.403 396.229C332.673 396.665 331.983 397.106 331.268 397.497C330.547 397.878 329.837 398.263 329.101 398.583C328.371 398.928 327.62 399.217 326.859 399.501C326.093 399.785 325.312 400.018 324.515 400.287C324.383 400.328 324.282 400.445 324.271 400.587C324.256 400.774 324.398 400.947 324.586 400.962C325.464 401.048 326.346 400.962 327.219 400.785C328.082 400.622 328.924 400.323 329.73 399.952C330.527 399.567 331.293 399.115 331.983 398.557C332.663 398.004 333.297 397.38 333.799 396.65C333.865 396.558 333.87 396.432 333.809 396.33C333.723 396.193 333.54 396.148 333.403 396.229ZM287.013 335.43C286.475 335.405 285.943 335.425 285.41 335.425C284.882 335.435 284.35 335.43 283.812 335.461C283.269 335.486 282.721 335.496 282.158 335.572C282.062 335.582 281.975 335.643 281.93 335.73C281.843 335.872 281.899 336.059 282.046 336.135C282.564 336.43 283.122 336.602 283.685 336.729C284.248 336.866 284.832 336.912 285.41 336.927C285.993 336.927 286.572 336.891 287.14 336.759C287.708 336.638 288.266 336.48 288.789 336.191C288.885 336.135 288.961 336.039 288.971 335.917C288.997 335.724 288.855 335.542 288.662 335.522C288.089 335.451 287.551 335.451 287.013 335.43ZM288.489 323.133L279.824 322.615L272.752 322.098C274.315 323.904 276.324 325.38 278.465 326.552C279.774 327.262 281.153 327.861 282.574 328.333C283.964 328.799 285.532 329.124 286.871 329.226L286.973 329.236C289.448 328.115 291.838 326.42 293.756 324.431C293.989 324.198 294.273 323.894 294.44 323.686C294.506 323.599 294.537 323.533 294.552 323.488C294.486 323.462 294.227 323.412 293.908 323.412L292.817 323.361C291.376 323.295 289.93 323.219 288.489 323.133ZM279.921 321.118L288.581 321.753C290.027 321.854 291.468 321.971 292.908 322.103L293.989 322.194C294.319 322.255 294.806 322.174 295.374 322.63C295.663 322.879 295.79 323.33 295.704 323.67C295.628 324.01 295.475 324.213 295.333 324.391C295.034 324.726 294.806 324.944 294.522 325.213C292.36 327.277 289.849 328.799 286.983 329.845L286.871 329.885C285.217 329.86 283.812 329.586 282.315 329.185C280.824 328.769 279.363 328.211 277.962 327.526C276.572 326.831 275.228 326.019 273.985 325.06C272.737 324.102 271.575 323.006 270.637 321.677C270.413 321.367 270.489 320.931 270.804 320.713C270.936 320.616 271.088 320.576 271.245 320.591H271.261L279.921 321.118ZM295.323 314.148C296.292 314.356 297.327 314.097 298.185 313.625C299.047 313.128 299.757 312.403 300.275 311.545C301.3 309.815 301.411 307.801 301.3 305.975C301.158 304.143 300.833 302.332 300.265 300.597C299.712 298.862 298.961 297.183 297.982 295.666C297.906 295.554 297.763 295.498 297.637 295.554C297.479 295.61 297.408 295.777 297.469 295.924C298.103 297.578 298.651 299.237 299.042 300.937C299.422 302.631 299.696 304.351 299.798 306.071C299.915 307.776 299.798 309.475 299.103 310.901C298.418 312.286 297.018 313.463 295.394 313.473C295.237 313.473 295.09 313.585 295.059 313.742C295.019 313.925 295.136 314.107 295.323 314.148ZM260.855 270.786C263.006 270.066 265.198 269.518 267.42 269.203C269.642 268.899 271.89 268.762 274.127 268.914C276.359 269.005 278.581 269.371 280.758 269.914C282.934 270.446 285.05 271.223 287.12 272.161C287.267 272.232 287.455 272.181 287.546 272.034C287.647 271.882 287.607 271.669 287.449 271.562C285.501 270.284 283.35 269.315 281.118 268.63C278.876 267.935 276.542 267.565 274.203 267.418C271.854 267.341 269.495 267.473 267.207 267.955C264.914 268.427 262.682 269.178 260.622 270.259C260.5 270.325 260.439 270.472 260.48 270.604C260.536 270.761 260.698 270.842 260.855 270.786ZM307.545 275.215C308.661 274.292 309.823 273.485 311.076 272.831C312.324 272.186 313.628 271.664 314.982 271.314C316.327 270.943 317.717 270.735 319.117 270.664C320.522 270.593 321.933 270.705 323.348 270.933C323.5 270.959 323.663 270.883 323.724 270.73C323.8 270.558 323.718 270.355 323.541 270.284C322.156 269.685 320.639 269.391 319.117 269.33C317.59 269.259 316.058 269.457 314.581 269.858C313.115 270.274 311.695 270.888 310.432 271.735C309.158 272.572 308.006 273.602 307.124 274.819C307.048 274.926 307.048 275.073 307.139 275.18C307.235 275.301 307.423 275.312 307.545 275.215ZM723.409 339.058H408.311C405.099 339.058 402.35 341.351 401.781 344.517L358.953 583.023C358.222 587.091 361.342 590.83 365.477 590.83H533.576L538.385 612.027C539.014 614.751 539.689 617.465 540.323 620.185H461.337L432.698 636.069H544.093C544.098 636.094 544.103 636.125 544.108 636.145C544.148 636.323 544.326 636.434 544.509 636.399C544.691 636.363 544.808 636.181 544.772 635.998C543.129 627.901 541.439 619.814 539.689 611.743L534.372 587.538L528.863 563.374C527.001 555.348 525.088 547.337 523.135 539.336H571.423C571.423 539.352 571.412 539.372 571.412 539.392C573.051 547.489 574.735 555.586 576.476 563.658L581.762 587.863L587.246 612.027C589.098 620.078 591.011 628.119 592.964 636.145C593.004 636.323 593.182 636.434 593.365 636.399C593.522 636.368 593.608 636.221 593.618 636.069H633.91L606.022 620.185H590.315C589.722 617.374 589.154 614.553 588.545 611.743L583.954 590.83H680.575C683.781 590.83 686.531 588.527 687.094 585.366L729.928 346.86C730.663 342.792 727.533 339.058 723.409 339.058ZM337.183 400.962C341.369 409.115 345.331 417.395 350.785 424.101C358.42 433.482 366.492 442.512 374.969 451.147L376.831 440.772C366.628 431.077 356.837 421.098 350.744 413.234C347.254 408.724 342.52 404.63 337.183 400.962ZM295.628 518.906C295.628 518.784 295.552 518.668 295.43 518.627C295.278 518.576 295.11 518.658 295.064 518.815L294.004 522.067C293.629 523.137 293.274 524.208 292.858 525.258C292.467 526.318 292.031 527.353 291.599 528.398L290.235 531.539C290.184 531.671 290.214 531.838 290.336 531.94C290.478 532.061 290.696 532.041 290.818 531.894C291.584 531.001 292.218 530.012 292.797 528.987C293.375 527.967 293.852 526.887 294.263 525.786C294.664 524.68 295.014 523.558 295.227 522.397C295.465 521.25 295.623 520.083 295.628 518.906ZM171.961 436.82C172.103 428.495 170.393 420.094 166.669 412.631C164.792 408.912 162.418 405.432 159.506 402.438C156.589 399.476 153.139 397.015 149.344 395.336C149.202 395.27 149.035 395.331 148.969 395.473C148.898 395.615 148.953 395.782 149.1 395.853C156.472 399.43 162.053 405.914 165.528 413.194C169.008 420.515 170.672 428.688 170.459 436.785C170.297 444.922 168.516 452.963 166.04 460.746C163.554 468.544 160.389 476.123 157.218 483.708C157.147 483.875 157.223 484.073 157.395 484.149C157.563 484.225 157.766 484.149 157.842 483.977C161.297 476.524 164.686 469 167.303 461.162C169.926 453.334 171.743 445.151 171.961 436.82ZM154.214 496.553C154.072 496.472 153.895 496.513 153.814 496.65C152.814 498.314 151.896 500.018 150.988 501.723C150.085 503.428 149.258 505.178 148.38 506.898C147.568 508.648 146.726 510.393 145.945 512.159C145.169 513.929 144.403 515.705 143.728 517.526C143.677 517.673 143.733 517.846 143.875 517.937C144.037 518.029 144.25 517.978 144.347 517.821C145.346 516.151 146.249 514.447 147.142 512.732C148.04 511.022 148.872 509.277 149.73 507.547C150.531 505.792 151.373 504.052 152.139 502.276C152.905 500.505 153.666 498.72 154.331 496.903C154.377 496.771 154.331 496.624 154.214 496.553ZM360.013 524.203L353.727 529.52C346.609 551.406 328.843 586.224 328.843 586.224V623.68H293.72L284.035 599.597C289.732 599.957 294.172 596.802 290.651 593.555C288.489 591.571 283.949 590.359 280.027 589.643L264.127 550.097C266.461 546.708 268.633 543.207 270.591 539.58C273.62 533.984 276.166 528.135 278.302 522.133C280.367 516.116 282.041 509.952 283.157 503.686C284.294 497.426 284.903 491.074 284.974 484.727C284.974 484.575 284.857 484.443 284.705 484.438C284.542 484.428 284.411 484.545 284.395 484.707C284 491.013 283.157 497.274 281.909 503.448C280.651 509.622 279.007 515.71 276.882 521.636C274.822 527.582 272.295 533.365 269.409 538.956C267.643 542.375 265.72 545.714 263.681 548.981L255.609 528.901C254.833 526.942 252.616 525.983 250.658 526.76C248.7 527.536 247.741 529.753 248.517 531.711L268.83 582.241C267.806 581.465 266.669 580.851 265.431 580.44L244.824 573.688C240.435 572.252 235.616 573.49 232.475 576.879L231.887 577.513H231.892C231.998 577.62 232.003 577.782 231.917 577.894C230.152 580.202 228.239 582.388 226.286 584.54C224.343 586.686 222.308 588.75 220.289 590.83C218.224 592.86 216.17 594.904 214.059 596.878C211.938 598.856 209.813 600.82 207.611 602.707C207.464 602.829 207.256 602.814 207.129 602.672C207.017 602.535 207.017 602.342 207.134 602.22C209.082 600.069 211.106 597.999 213.126 595.929L214.774 594.26L162.58 592.738L143.992 518.744L122.176 561.309L119.701 555.5C109.874 532.472 89.0072 516.035 64.3307 511.885C64.3307 511.885 62.8797 515.269 60.5764 520.748C57.1621 514.401 54.5696 507.42 53.281 499.754C53.281 499.754 83.3961 411.839 124.546 386.021C133.257 381.724 139.761 381.775 148.208 382.576C156.122 383.322 163.874 385.062 171.677 386.544C179.114 387.954 187.11 388.461 194.014 385.483L258.354 463.521C251.891 464.186 246.848 469.65 246.848 476.29C246.848 483.383 252.591 489.136 259.678 489.136C266.761 489.136 272.503 483.383 272.503 476.29C272.503 469.533 267.273 464.003 260.642 463.506C262.793 457.682 277.333 416.4 272.463 376.605C276.659 376.839 280.712 377.351 284.365 378.269L284.355 378.259C284.355 378.259 291.204 379.984 300.691 383.332C299.95 385.412 299.463 387.498 299.367 389.476C299.362 389.588 299.356 389.694 299.356 389.806C299.346 390.237 299.351 390.668 299.382 391.095C299.387 391.171 299.397 391.247 299.402 391.323C299.438 391.703 299.499 392.084 299.57 392.459C299.585 392.53 299.6 392.611 299.615 392.688C299.707 393.093 299.823 393.494 299.965 393.885C299.991 393.971 300.026 394.057 300.062 394.144C300.224 394.539 300.391 394.935 300.61 395.321C300.605 395.31 300.594 395.31 300.579 395.31C312.968 422.985 325.352 450.655 337.746 478.33C339.055 481.272 340.379 484.215 341.708 487.152C341.937 487.655 342.165 488.167 342.403 488.674C343.733 491.612 345.077 494.539 346.442 497.461C346.675 497.964 346.914 498.461 347.147 498.963C348.542 501.921 349.958 504.873 351.404 507.801C351.561 508.125 351.728 508.445 351.885 508.765C353.24 511.484 354.62 514.188 356.035 516.872C357.329 519.332 358.648 521.778 360.013 524.203ZM264.127 550.097L264.046 549.889L264.127 550.097ZM214.252 347.758C212.451 347.073 211.436 346.647 211.436 346.647C211.436 346.683 211.436 346.718 211.436 346.749C211.477 347.931 211.497 349.108 211.497 350.285C211.497 350.503 211.487 350.721 211.482 350.939C211.477 351.939 211.462 352.933 211.416 353.927C211.401 354.425 211.345 354.917 211.314 355.409C211.269 356.129 211.228 356.845 211.157 357.565C211.035 358.778 210.878 359.99 210.675 361.198C210.487 362.304 210.249 363.409 209.97 364.505C210.969 362.882 211.791 361.142 212.4 359.331C213.628 355.607 214.095 351.71 214.252 347.758ZM270.956 376.641C270.951 376.6 270.961 376.565 270.961 376.519C269.591 376.468 268.211 376.433 266.816 376.433C266.659 374.743 266.664 373.703 266.664 373.703C266.664 373.703 273.011 368.757 273.011 364.769C273.011 360.787 267.379 360.513 267.379 360.513C247.589 359.594 224.906 351.787 215.672 348.306C215.48 352.172 214.957 356.033 213.658 359.767C212.603 362.704 211.025 365.444 208.981 367.803C208.981 367.813 208.981 367.818 208.976 367.823C208.671 368.711 208.336 369.589 207.966 370.446C207.941 370.502 207.925 370.548 207.9 370.593C207.545 371.415 207.17 372.212 206.759 372.988C206.738 373.044 206.713 373.094 206.682 373.145C206.282 373.901 205.856 374.632 205.399 375.357C205.303 375.519 205.191 375.682 205.084 375.844C204.679 376.468 204.247 377.072 203.801 377.665C203.71 377.782 203.618 377.904 203.532 378.021C203.07 378.594 202.598 379.147 202.096 379.68C201.903 379.893 201.7 380.101 201.498 380.304C201 380.811 200.493 381.298 199.955 381.76C199.732 381.947 199.504 382.12 199.281 382.292C198.865 382.637 198.428 382.952 197.987 383.266C197.723 383.449 197.459 383.632 197.18 383.809C196.612 384.164 196.029 384.509 195.415 384.819L259.425 462.456C262.113 455.054 275.705 415.086 270.956 376.641ZM275.197 288.34C275.918 285.889 275.294 283.546 273.812 283.109C272.331 282.668 270.545 284.307 269.82 286.757C269.104 289.202 269.718 291.541 271.21 291.982C272.691 292.414 274.477 290.785 275.197 288.34ZM312.268 283.109C310.787 282.668 309.001 284.307 308.286 286.757C307.56 289.202 308.184 291.541 309.665 291.982C311.147 292.414 312.933 290.785 313.658 288.34C314.373 285.889 313.76 283.546 312.268 283.109ZM339.162 266.246C338.984 266.89 338.852 267.544 338.756 268.214C338.314 271.294 339.38 274.424 341.384 276.514L339.162 266.246ZM311.446 327.754L312.882 334.39C314.576 330.098 316.408 325.867 318.402 321.707C324.637 322.559 330.872 323.158 337.087 322.148C338.883 325.136 336.326 329.469 333.606 331.64C330.877 333.807 327.305 334.537 323.886 335.202C324.398 336.648 324.845 338.109 325.276 339.575C324.972 339.017 324.662 338.464 324.317 337.931C324.241 337.81 324.084 337.764 323.957 337.82C323.81 337.891 323.744 338.063 323.815 338.205C325.027 340.798 326.017 343.476 326.732 346.216C327.437 348.966 327.924 351.766 328.071 354.592C328.29 357.418 328.178 360.254 327.823 363.07C327.483 365.88 326.844 368.66 325.981 371.385C325.93 371.547 326.007 371.725 326.164 371.796C326.336 371.877 326.544 371.801 326.62 371.628C327.838 368.98 328.655 366.144 329.142 363.262C329.522 361.01 329.669 358.717 329.634 356.429L349.186 349.225C348.415 350.209 347.695 351.218 347.076 352.299C346.295 353.659 345.61 355.069 345.123 356.55C345.077 356.708 345.138 356.87 345.27 356.961C345.437 357.053 345.645 357.007 345.747 356.84C346.543 355.536 347.335 354.252 348.197 353.014C349.07 351.787 349.963 350.574 350.927 349.427C351.277 349.001 351.642 348.595 352.002 348.19L356.538 346.52L356.02 344.111C356.436 343.73 356.857 343.345 357.283 342.964C357.38 342.883 357.41 342.736 357.344 342.609C357.268 342.472 357.096 342.416 356.954 342.492C356.563 342.705 356.198 342.959 355.822 343.192L355.538 341.899C354.838 342.315 354.219 342.639 353.788 342.817C349.212 344.679 343.783 344.268 339.532 341.757C337.33 340.453 335.275 337.936 336.204 335.552C337.041 333.431 339.674 332.787 341.932 332.442C345.407 331.909 348.877 331.377 352.352 330.839C352.606 330.824 352.865 330.819 353.113 330.788C354.351 330.666 355.584 330.499 356.801 330.21C356.944 330.174 357.055 330.053 357.06 329.895C357.07 329.702 356.928 329.54 356.736 329.535C355.503 329.464 354.28 329.469 353.057 329.459H352.844L352.149 326.242C351.698 326.242 351.287 326.222 350.947 326.161C345.513 325.218 340.344 322.803 336.143 319.221C334.667 317.968 333.272 316.512 332.653 314.675C332.029 312.844 332.394 310.561 333.936 309.394C338.822 310.52 343.631 311.926 348.37 313.554C347.878 313.316 347.406 313.027 346.929 312.747L351.404 315.137C351.52 315.203 351.683 315.173 351.764 315.061C351.865 314.939 351.84 314.757 351.718 314.66C350.252 313.483 348.705 312.418 347.127 311.403C345.554 310.378 343.925 309.45 342.277 308.552C341.663 308.227 341.039 307.918 340.42 307.608C337.635 304.793 335.169 301.556 332.82 298.37C331.323 296.34 329.817 293.459 331.435 291.516C332.368 290.379 334.073 290.151 335.489 290.557C336.899 290.968 338.086 291.896 339.238 292.814C341.206 294.377 343.56 295.924 345.929 297.523L342.54 281.876C338.568 283.231 333.845 282.703 330.141 280.573C327.153 278.863 324.794 276.296 323.008 273.343C322.785 292.003 318.858 310.632 311.446 327.754ZM277.775 620.59L277.019 620.646C276.166 620.702 275.375 621.032 274.71 621.534C274.132 620.55 273.518 619.586 272.874 618.647C272.006 617.379 271.063 616.172 270.099 614.984C269.115 613.807 268.105 612.651 267.029 611.565C265.959 610.469 264.853 609.404 263.666 608.435C263.539 608.333 263.361 608.328 263.235 608.425C263.087 608.536 263.057 608.754 263.174 608.902C264.097 610.124 265.076 611.281 266.04 612.453L268.937 615.943L271.859 619.418C272.61 620.296 273.361 621.174 274.117 622.046C273.868 622.325 273.645 622.64 273.467 622.995L273.112 623.68H285.496L283.137 617.82C281.879 619.373 279.997 620.443 277.775 620.59ZM122.176 561.314V561.309V561.314Z" fill="#5250BB"/>
</g>
<defs>
<clipPath id="clip0_154_1160">
<rect width="732" height="666" fill="white"/>
</clipPath>
</defs>
</svg>
