<svg viewBox="0 0 72 80" fill="none" xmlns="http://www.w3.org/2000/svg">
<path d="M66.784 64.776C66.416 65.888 66.048 66.992 65.488 67.92C65.488 68.104 68.448 71.616 66.784 73.464L65.856 74.392C64.56 75.688 61.048 73.656 60.312 73.096C59.2 73.648 58.096 74.208 56.984 74.392H57.168C57.168 74.392 56.616 79.2 54.024 79.2H53.096C51.064 79.2 49.952 75.136 49.768 74.208C48.656 73.84 47.552 73.472 46.44 72.728L46.624 72.912C46.624 72.912 42.744 75.872 40.888 74.024L40.16 73.28C38.68 71.8 41.088 68.288 41.456 67.544C40.904 66.616 40.528 65.512 40.16 64.584C39.424 64.4 35.168 63.288 35.168 61.256V60.328C35.168 58.112 39.048 57.368 39.976 57.184C40.344 56.072 40.712 55.152 41.272 54.04C40.904 53.488 38.496 49.784 39.976 48.304L40.904 47.568C42.568 45.904 45.712 48.304 46.64 48.864C47.568 48.312 48.672 47.936 49.784 47.568C49.968 46.64 51.08 42.76 53.112 42.76H54.04C56.256 42.76 57 46.456 57.184 47.568C58.296 47.936 59.4 48.304 60.328 48.864C61.256 48.312 64.584 46.272 65.872 47.568L66.608 48.496C68.272 50.16 66.056 53.304 65.312 54.04C65.864 54.968 66.24 56.072 66.608 57.184C66.976 57.184 71.416 57.92 71.416 60.328V61.256C71.592 63.48 67.896 64.592 66.784 64.776ZM53.472 51.096C47.928 51.096 43.304 55.72 43.304 61.264C43.304 66.808 47.928 71.432 53.472 71.432C59.016 71.432 63.64 66.808 63.64 61.264C63.64 55.72 59.2 51.096 53.472 51.096ZM53.472 68.104C49.776 68.104 46.632 65.144 46.632 61.264C46.632 57.568 49.592 54.424 53.472 54.424C57.168 54.424 60.312 57.384 60.312 61.264C60.312 64.96 57.168 68.104 53.472 68.104ZM53.472 57.752C51.624 57.752 50.144 59.232 50.144 61.08C50.144 62.928 51.624 64.408 53.472 64.408C55.32 64.408 56.8 62.928 56.8 61.08C56.984 59.416 55.32 57.752 53.472 57.752ZM49.584 44.256C48.104 44.624 46.808 45.184 45.512 45.92C44.584 45.184 41.816 43.888 39.776 45.92L38.664 46.848C36.816 48.696 38.296 51.84 38.848 52.768C38.112 53.88 37.736 55.168 37.368 56.464L36.816 56.832C35.52 57.016 33.304 57.944 32.752 59.792L29.056 62.384V34.264L53.84 18.368V39.632C51.248 40 49.96 43.144 49.584 44.256ZM2.24801 14.856L27.032 0.800003L51.808 14.856L27.032 30.752L2.24801 14.856ZM25.176 62.56L0.584015 44.992V18.368L25.176 34.272V62.56Z" fill="#8081E3"/>
</svg>
