<svg  viewBox="0 0 47 47" fill="none" xmlns="http://www.w3.org/2000/svg">
<path d="M6.12 38.52V5.136H33.082V33.173L38.219 28.93V2.568C38.219 1.15 37.07 0 35.652 0H3.552C2.134 0 0.985001 1.15 0.985001 2.568V41.087C0.985001 42.505 2.134 43.655 3.552 43.655H25.96L22.33 38.52H6.12Z" fill="#8081E3"/>
<path d="M45.613 27.609C45.14 27.163 44.413 27.142 43.915 27.552L32.137 37.286L24.288 32.577C23.767 32.265 23.1 32.358 22.685 32.806C22.273 33.25 22.228 33.923 22.579 34.419L31.085 46.456C31.323 46.793 31.71 46.995 32.122 46.999C32.126 46.999 32.13 46.999 32.134 46.999C32.542 46.999 32.927 46.806 33.169 46.474L45.769 29.301C46.149 28.78 46.084 28.055 45.613 27.609Z" fill="#8081E3"/>
<path d="M27.306 8.98801H11.897C10.479 8.98801 9.33 10.138 9.33 11.556C9.33 12.974 10.479 14.124 11.897 14.124H27.305C28.723 14.124 29.871 12.974 29.871 11.556C29.871 10.138 28.724 8.98801 27.306 8.98801Z" fill="#8081E3"/>
<path d="M27.306 16.691H11.897C10.479 16.691 9.33 17.841 9.33 19.259C9.33 20.677 10.479 21.827 11.897 21.827H27.305C28.723 21.827 29.871 20.678 29.871 19.259C29.874 17.841 28.724 16.691 27.306 16.691Z" fill="#8081E3"/>
<path d="M27.306 24.395H11.897C10.479 24.395 9.33 25.545 9.33 26.963C9.33 28.381 10.479 29.531 11.897 29.531H27.305C28.723 29.531 29.871 28.381 29.871 26.963C29.874 25.545 28.724 24.395 27.306 24.395Z" fill="#8081E3"/>
</svg>
