<svg viewBox="0 0 396 396" fill="none" xmlns="http://www.w3.org/2000/svg">
<path d="M350.31 148.038C358.772 123.111 358.773 112.373 358.773 106.517C358.773 47.783 310.99 0 252.258 0C193.526 0 145.744 47.783 145.744 106.518C145.744 111.823 145.744 120.542 151.425 139.379L138.266 144.412L61.736 104.903C59.285 103.639 56.533 102.971 53.775 102.971C50.588 102.971 47.466 103.846 44.743 105.502C39.608 108.633 36.418 114.314 36.418 120.326V335.571C36.418 342.093 40.018 348.004 45.814 350.995L129.246 394.063C133.585 396.305 138.843 396.599 143.411 394.855L249.148 354.41L334.891 394.372C337.205 395.451 339.672 395.999 342.226 395.999C345.542 395.999 348.769 395.058 351.556 393.278C356.582 390.073 359.583 384.601 359.583 378.641V163.4C359.582 156.959 355.971 151.02 350.31 148.038ZM298.043 203.691C281.232 238.502 264.857 267.869 264.691 268.165C262.209 272.62 257.5 275.388 252.398 275.388C247.299 275.388 242.59 272.62 240.109 268.162C239.945 267.868 223.504 238.381 206.755 203.691C172.384 132.498 172.384 112.943 172.384 106.517C172.384 62.398 208.278 26.504 252.398 26.504C296.518 26.504 332.412 62.398 332.412 106.517C332.412 112.943 332.412 132.498 298.043 203.691Z" fill="#8F90F6"/>
<path d="M252.398 70.112C229.286 70.112 210.482 88.915 210.482 112.027C210.482 135.141 229.286 153.946 252.398 153.946C275.509 153.946 294.312 135.141 294.312 112.027C294.313 88.915 275.51 70.112 252.398 70.112Z" fill="#8F90F6"/>
</svg>
