<svg  viewBox="0 0 910 333" fill="none" xmlns="http://www.w3.org/2000/svg">
<g clip-path="url(#clip0_196_1405)">
<path d="M875.998 0H34.002C15.2232 0 0 16.6404 0 37.1674V295.833C0 316.36 15.2232 333 34.002 333H875.998C894.777 333 910 316.36 910 295.833V37.1674C910 16.6404 894.777 0 875.998 0Z" fill="#FFEDE9"/>
<g opacity="0.15">
<path d="M874.857 0.311523H35.1426C15.7339 0.311523 0 17.5101 0 38.7256V292.586C0 313.801 15.7339 331 35.1426 331H874.857C894.266 331 910 313.801 910 292.586V38.7256C910 17.5101 894.266 0.311523 874.857 0.311523Z" fill="#FCB6A6"/>
<g style="mix-blend-mode:color-burn" opacity="0.51">
<path d="M-149.267 102.152L135.034 -52.8293L261.205 15.9472L-23.0955 170.928L-149.267 102.152Z" fill="#FCB6A6"/>
</g>
<g style="mix-blend-mode:color-burn" opacity="0.51">
<path d="M-156.799 247.107L329.97 -18.2332L456.141 50.5434L-30.6278 315.884L-156.799 247.107Z" fill="#FCB6A6"/>
</g>
<g style="mix-blend-mode:color-burn" opacity="0.51">
<path d="M250.417 407.828L761.66 129.138L887.831 197.914L376.589 476.605L250.417 407.828Z" fill="#FCB6A6"/>
</g>
<g style="mix-blend-mode:color-burn" opacity="0.51">
<path d="M166.708 161.37L609.019 -79.7373L735.19 -10.9608L292.879 230.147L166.708 161.37Z" fill="#FCB6A6"/>
</g>
<g style="mix-blend-mode:color-burn" opacity="0.51">
<path d="M195.815 418.659L758.262 112.047L881.487 179.24L319.04 485.825L195.815 418.659Z" fill="#FCB6A6"/>
</g>
<g style="mix-blend-mode:color-burn" opacity="0.51">
<path d="M455 369.051L1017.45 62.4651L1140.65 129.631L578.225 436.217L455 369.051Z" fill="#FCB6A6"/>
</g>
<g style="mix-blend-mode:color-burn" opacity="0.51">
<path d="M-193.153 199.758L369.27 -106.827L492.495 -39.6609L-69.9286 266.924L-193.153 199.758Z" fill="#FCB6A6"/>
</g>
<g style="mix-blend-mode:color-dodge" opacity="0.57">
<path d="M-135.01 47.4266L252.556 -163.838L401.252 -82.7761L13.6863 128.488L-135.01 47.4266Z" fill="#FCB6A6"/>
</g>
<g style="mix-blend-mode:color-dodge" opacity="0.57">
<path d="M516.826 161.344L916.914 -56.7512L1115.79 51.6861L715.73 269.756L516.826 161.344Z" fill="#FCB6A6"/>
</g>
<g style="mix-blend-mode:color-dodge" opacity="0.57">
<path d="M-230.197 243.549L197.169 10.5708L396.073 118.982L-31.3169 351.96L-230.197 243.549Z" fill="#FCB6A6"/>
</g>
</g>
</g>
<defs>
<clipPath id="clip0_196_1405">
<rect width="910" height="333" fill="white"/>
</clipPath>
</defs>
</svg>
