<svg xmlns="http://www.w3.org/2000/svg" xmlns:xlink="http://www.w3.org/1999/xlink" width="1080" zoomAndPan="magnify" viewBox="0 0 810 809.999993" height="1080" preserveAspectRatio="xMidYMid meet" version="1.0"><defs><clipPath id="id1"><path d="M 82 42.085938 L 727 42.085938 L 727 769.929688 L 82 769.929688 Z M 82 42.085938 " clip-rule="nonzero"/></clipPath><clipPath id="id2"><path d="M 62.125 42.085938 L 747.488281 42.085938 L 747.488281 769.929688 L 62.125 769.929688 Z M 62.125 42.085938 " clip-rule="nonzero"/></clipPath></defs><path fill="#a5a6f6" d="M 250.320312 220.75 C 243.925781 220.75 238.820312 222.316406 235.160156 225.511719 C 223.777344 235.453125 227.335938 260.742188 245.203125 296.714844 C 286.472656 379.824219 392.003906 496.234375 480.441406 556.199219 C 526.613281 587.5 560.996094 598.546875 574.796875 586.496094 C 586.179688 576.554688 582.613281 551.265625 564.753906 515.292969 C 523.476562 432.179688 417.945312 315.773438 329.507812 255.808594 C 295.59375 232.808594 268.019531 220.75 250.320312 220.75 Z M 559.785156 592.980469 C 541.53125 592.980469 513.582031 580.863281 479.429688 557.699219 C 390.769531 497.585938 284.964844 380.871094 243.582031 297.519531 C 225.316406 260.742188 221.898438 234.6875 233.96875 224.144531 C 248.433594 211.507812 283.621094 222.503906 330.527344 254.308594 C 419.1875 314.421875 524.984375 431.136719 566.375 514.488281 C 584.640625 551.265625 588.058594 577.320312 575.988281 587.863281 C 572.058594 591.296875 566.597656 592.980469 559.785156 592.980469 " fill-opacity="1" fill-rule="nonzero"/><path fill="#a5a6f6" d="M 248.96875 212.835938 C 242.664062 212.835938 237.566406 214.359375 233.820312 217.472656 C 222.023438 227.242188 224.667969 252.457031 241.265625 288.484375 C 280.484375 373.640625 386.113281 495.410156 476.734375 559.921875 C 524.992188 594.28125 561.21875 606.890625 576.136719 594.535156 C 587.933594 584.765625 585.289062 559.550781 568.691406 523.523438 C 529.472656 438.367188 423.835938 316.597656 333.222656 252.085938 C 297.109375 226.367188 267.722656 212.835938 248.96875 212.835938 Z M 561.144531 600.894531 C 541.828125 600.894531 512.050781 587.292969 475.679688 561.40625 C 384.847656 496.726562 278.945312 374.636719 239.609375 289.242188 C 217.863281 242.019531 223.828125 223.386719 232.65625 216.070312 C 248.265625 203.15625 285.296875 215.742188 334.277344 250.601562 C 425.109375 315.273438 531.011719 437.363281 570.339844 522.765625 C 592.085938 569.988281 586.128906 588.621094 577.300781 595.9375 C 573.28125 599.261719 567.84375 600.894531 561.144531 600.894531 " fill-opacity="1" fill-rule="nonzero"/><path fill="#a5a6f6" d="M 247.980469 204.859375 C 241.75 204.859375 236.644531 206.34375 232.796875 209.367188 C 220.582031 218.945312 222.269531 244.054688 237.535156 280.058594 C 274.453125 367.148438 379.902344 494.28125 472.582031 563.449219 C 522.914062 601.007812 561.023438 615.300781 577.160156 602.632812 C 589.367188 593.050781 587.6875 567.953125 572.421875 531.949219 C 535.492188 444.859375 430.054688 317.726562 337.371094 248.550781 C 299.066406 219.96875 267.832031 204.859375 247.980469 204.859375 Z M 562.140625 608.875 C 541.722656 608.875 510.066406 593.695312 471.496094 564.90625 C 378.601562 495.574219 272.890625 368.113281 235.863281 280.765625 C 215.851562 233.558594 222.542969 215.109375 231.675781 207.941406 C 248.507812 194.738281 287.421875 209.011719 338.460938 247.101562 C 431.363281 316.433594 537.066406 443.902344 574.09375 531.242188 C 594.105469 578.441406 587.414062 596.898438 578.28125 604.066406 C 574.167969 607.285156 568.742188 608.875 562.140625 608.875 " fill-opacity="1" fill-rule="nonzero"/><path fill="#a5a6f6" d="M 247.371094 196.847656 C 241.199219 196.847656 236.074219 198.289062 232.121094 201.226562 C 219.476562 210.601562 220.152344 235.542969 234.042969 271.449219 C 268.417969 360.351562 373.363281 492.832031 467.972656 566.757812 C 520.34375 607.683594 560.394531 623.726562 577.835938 610.777344 C 590.480469 601.40625 589.796875 576.464844 575.914062 540.558594 C 541.539062 451.652344 436.59375 319.175781 341.984375 245.246094 C 301.5 213.617188 268.375 196.847656 247.371094 196.847656 Z M 562.769531 616.898438 C 541.167969 616.898438 507.625 600.039062 466.859375 568.183594 C 372.019531 494.089844 266.828125 361.269531 232.34375 272.101562 C 217.9375 234.835938 217.484375 209.820312 231.035156 199.769531 C 249.191406 186.292969 290.03125 202.355469 343.097656 243.8125 C 437.9375 317.914062 543.128906 450.738281 577.605469 539.90625 C 592.019531 577.171875 592.472656 602.1875 578.914062 612.246094 C 574.703125 615.359375 569.277344 616.898438 562.769531 616.898438 " fill-opacity="1" fill-rule="nonzero"/><path fill="#a5a6f6" d="M 246.769531 188.945312 C 240.78125 188.945312 235.746094 190.296875 231.816406 193.050781 C 218.710938 202.21875 218.355469 226.9375 230.8125 262.667969 C 262.386719 353.253906 366.492188 491.042969 462.894531 569.816406 C 516.464844 613.597656 559.554688 631.957031 578.140625 618.957031 C 591.246094 609.789062 591.601562 585.0625 579.144531 549.339844 C 547.578125 458.753906 443.464844 320.972656 347.058594 242.191406 C 304.828125 207.667969 269.109375 188.945312 246.769531 188.945312 Z M 563 624.9375 C 540.164062 624.9375 504.683594 606.316406 461.742188 571.222656 C 365.125 492.261719 260.765625 354.117188 229.097656 263.269531 C 216.164062 226.171875 216.75 201.375 230.777344 191.558594 C 250.359375 177.859375 293.160156 195.800781 348.214844 240.78125 C 444.832031 319.746094 549.191406 457.890625 580.859375 548.738281 C 593.789062 585.835938 593.214844 610.628906 579.175781 620.441406 C 574.871094 623.457031 569.433594 624.9375 563 624.9375 " fill-opacity="1" fill-rule="nonzero"/><path fill="#a5a6f6" d="M 246.925781 180.898438 C 240.984375 180.898438 235.945312 182.199219 231.90625 184.859375 C 218.125 193.921875 216.734375 217.742188 227.871094 253.738281 C 256.363281 345.847656 359.292969 488.886719 457.320312 572.601562 C 512.816406 619.996094 557.949219 640.375 578.050781 627.144531 C 591.832031 618.085938 593.222656 594.261719 582.085938 558.265625 C 553.589844 466.160156 450.65625 323.121094 352.628906 239.398438 C 308.285156 201.53125 270.550781 180.898438 246.925781 180.898438 Z M 562.816406 632.996094 C 538.683594 632.996094 501.226562 612.484375 456.140625 573.984375 C 357.902344 490.082031 254.71875 346.65625 226.132812 254.277344 C 214.730469 217.429688 216.386719 192.902344 230.902344 183.34375 C 252.046875 169.441406 296.835938 189.367188 353.808594 238.023438 C 452.054688 321.925781 555.238281 465.34375 583.824219 557.730469 C 595.222656 594.585938 593.570312 619.105469 579.046875 628.660156 C 574.636719 631.570312 569.195312 632.996094 562.816406 632.996094 " fill-opacity="1" fill-rule="nonzero"/><path fill="#a5a6f6" d="M 247.5 172.867188 C 241.621094 172.867188 236.554688 174.121094 232.417969 176.671875 C 218.125 185.488281 215.648438 208.996094 225.242188 244.664062 C 250.382812 338.128906 351.773438 486.355469 451.25 575.097656 C 508.582031 626.230469 555.78125 648.753906 577.539062 635.324219 C 591.832031 626.519531 594.308594 603.011719 584.714844 567.34375 C 559.570312 473.871094 458.183594 325.640625 358.699219 236.910156 C 312.289062 195.511719 272.511719 172.867188 247.5 172.867188 Z M 562.214844 641.035156 C 536.679688 641.035156 497.222656 618.539062 450.046875 576.445312 C 350.339844 487.519531 248.703125 338.894531 223.488281 245.140625 C 213.660156 208.617188 216.421875 184.40625 231.460938 175.132812 C 254.28125 161.0625 301.09375 183.089844 359.910156 235.550781 C 459.609375 324.488281 561.246094 473.113281 586.46875 566.867188 C 596.296875 603.390625 593.535156 627.597656 578.492188 636.875 C 573.980469 639.660156 568.519531 641.027344 562.214844 641.035156 " fill-opacity="1" fill-rule="nonzero"/><path fill="#a5a6f6" d="M 248.515625 164.878906 C 242.691406 164.878906 237.609375 166.074219 233.375 168.511719 C 218.539062 177.050781 214.9375 200.199219 222.953125 235.46875 C 244.460938 330.125 343.921875 483.449219 444.667969 577.269531 C 503.738281 632.277344 553.066406 657.039062 576.582031 643.488281 C 591.410156 634.953125 595.019531 611.808594 587.003906 576.539062 C 565.496094 481.882812 466.035156 328.558594 365.289062 234.738281 C 316.871094 189.648438 275 164.878906 248.515625 164.878906 Z M 561.640625 648.882812 C 534.53125 648.882812 492.171875 623.984375 443.421875 578.597656 C 342.457031 484.570312 242.757812 330.824219 221.183594 235.875 C 212.96875 199.746094 216.875 175.914062 232.46875 166.945312 C 256.71875 152.976562 306.84375 177.828125 366.535156 233.410156 C 467.492188 327.4375 567.199219 481.183594 588.773438 576.132812 C 596.980469 612.261719 593.082031 636.089844 577.488281 645.0625 C 573.039062 647.625 567.726562 648.882812 561.640625 648.882812 " fill-opacity="1" fill-rule="nonzero"/><path fill="#a5a6f6" d="M 249.972656 156.945312 C 244.214844 156.945312 239.132812 158.082031 234.800781 160.398438 C 219.402344 168.625 214.640625 191.367188 221.035156 226.171875 C 238.613281 321.8125 335.742188 480.128906 437.542969 579.089844 C 498.242188 638.101562 549.6875 665.21875 575.15625 651.609375 C 590.554688 643.382812 595.316406 620.640625 588.914062 585.835938 C 571.34375 490.195312 474.214844 331.878906 372.414062 232.917969 C 322.042969 183.945312 278.039062 156.945312 249.972656 156.945312 Z M 560.171875 656.816406 C 531.472656 656.824219 486.984375 629.675781 436.273438 580.382812 C 334.242188 481.207031 236.890625 322.453125 219.246094 226.492188 C 212.699219 190.839844 217.78125 167.429688 233.941406 158.800781 C 260.136719 144.804688 312.378906 172.027344 373.683594 231.613281 C 475.714844 330.796875 573.066406 489.554688 590.703125 585.515625 C 597.257812 621.167969 592.175781 644.574219 576.007812 653.207031 C 571.476562 655.628906 566.164062 656.816406 560.171875 656.816406 " fill-opacity="1" fill-rule="nonzero"/><path fill="#a5a6f6" d="M 251.898438 149.09375 C 246.222656 149.09375 241.148438 150.167969 236.734375 152.339844 C 220.730469 160.222656 214.773438 182.511719 219.519531 216.78125 C 232.863281 313.195312 327.230469 476.382812 429.871094 580.53125 C 492.082031 643.660156 545.675781 673.25 573.214844 659.667969 C 589.226562 651.785156 595.183594 629.492188 590.4375 595.226562 C 577.085938 498.804688 482.722656 335.625 380.085938 231.476562 C 327.832031 178.453125 281.671875 149.09375 251.898438 149.09375 Z M 558.238281 664.675781 C 527.832031 664.675781 481.160156 635.160156 428.578125 581.808594 C 325.699219 477.417969 231.109375 313.773438 217.722656 217.027344 C 212.855469 181.914062 219.15625 158.980469 235.9375 150.710938 C 264.214844 136.78125 318.589844 166.492188 381.378906 230.191406 C 484.25 334.585938 578.839844 498.226562 592.234375 594.980469 C 597.09375 630.09375 590.792969 653.027344 574.019531 661.296875 C 569.425781 663.5625 564.136719 664.675781 558.238281 664.675781 " fill-opacity="1" fill-rule="nonzero"/><path fill="#a5a6f6" d="M 254.304688 141.351562 C 248.738281 141.351562 243.6875 142.347656 239.222656 144.359375 C 222.558594 151.871094 215.367188 173.652344 218.421875 207.324219 C 227.238281 304.316406 318.402344 472.199219 421.644531 581.578125 C 485.195312 648.910156 540.9375 681.074219 570.734375 667.648438 C 587.398438 660.128906 594.589844 638.355469 591.535156 604.683594 C 582.710938 507.699219 491.554688 339.808594 388.3125 230.429688 C 334.285156 173.1875 285.90625 141.351562 254.304688 141.351562 Z M 555.816406 672.417969 C 523.582031 672.417969 474.691406 640.417969 420.324219 582.820312 C 316.84375 473.195312 225.464844 304.820312 216.617188 207.488281 C 213.480469 172.964844 221.042969 150.570312 238.472656 142.710938 C 269.027344 128.929688 325.519531 161.269531 389.632812 229.183594 C 493.113281 338.8125 584.5 507.1875 593.335938 604.511719 C 596.46875 639.039062 588.914062 661.4375 571.476562 669.296875 C 566.835938 671.394531 561.597656 672.417969 555.816406 672.417969 " fill-opacity="1" fill-rule="nonzero"/><path fill="#a5a6f6" d="M 257.195312 133.757812 C 251.761719 133.757812 246.777344 134.65625 242.285156 136.492188 C 224.921875 143.585938 216.453125 164.796875 217.796875 197.835938 C 221.757812 295.140625 309.257812 467.558594 412.84375 582.1875 C 477.558594 653.792969 535.4375 688.6875 567.667969 675.515625 C 585.035156 668.421875 593.503906 647.210938 592.160156 614.171875 C 588.199219 516.867188 500.699219 344.449219 397.101562 229.820312 C 341.410156 168.1875 290.773438 133.757812 257.195312 133.757812 Z M 552.917969 680.027344 C 518.707031 680.035156 467.542969 645.417969 411.503906 583.40625 C 307.667969 468.507812 219.953125 295.578125 215.984375 197.910156 C 214.601562 164.039062 223.464844 142.21875 241.59375 134.8125 C 274.578125 121.335938 333.210938 156.410156 398.453125 228.601562 C 502.289062 343.5 589.992188 516.429688 593.972656 614.097656 C 595.347656 647.96875 586.492188 669.789062 568.351562 677.195312 C 563.699219 679.097656 558.535156 680.027344 552.917969 680.027344 " fill-opacity="1" fill-rule="nonzero"/><path fill="#a5a6f6" d="M 260.574219 126.304688 C 255.320312 126.304688 250.441406 127.109375 245.976562 128.742188 C 227.847656 135.363281 218.050781 155.964844 217.65625 188.328125 C 216.445312 285.691406 299.792969 462.445312 403.460938 582.335938 C 469.117188 658.265625 529.117188 696.007812 563.980469 683.265625 C 582.101562 676.644531 591.894531 656.035156 592.300781 623.679688 C 593.511719 526.308594 510.15625 349.554688 406.492188 229.664062 C 349.25 163.46875 296.300781 126.304688 260.574219 126.304688 Z M 549.53125 687.484375 C 513.160156 687.492188 459.683594 650.128906 402.09375 583.523438 C 298.179688 463.34375 214.625 286.054688 215.835938 188.304688 C 216.257812 155.125 226.453125 133.9375 245.351562 127.035156 C 280.953125 114.03125 341.699219 151.960938 407.863281 228.484375 C 511.777344 348.65625 595.332031 525.953125 594.113281 623.703125 C 593.699219 656.882812 583.492188 678.066406 564.597656 684.972656 C 559.984375 686.660156 554.941406 687.484375 549.53125 687.484375 " fill-opacity="1" fill-rule="nonzero"/><path fill="#a5a6f6" d="M 263.910156 119.136719 C 259.074219 119.136719 254.535156 119.796875 250.34375 121.148438 C 231.386719 127.234375 220.21875 147.183594 218.027344 178.824219 C 211.320312 275.988281 290.03125 456.851562 393.488281 582 C 458.851562 661.066406 522.503906 702.769531 559.605469 690.859375 C 578.558594 684.773438 589.738281 664.824219 591.921875 633.183594 C 598.625 536.019531 519.925781 355.15625 416.460938 230.007812 C 358.492188 159.878906 301.859375 119.136719 263.910156 119.136719 Z M 545.640625 694.75 C 506.933594 694.757812 451.074219 654.511719 392.085938 583.152344 C 288.382812 457.699219 209.484375 276.261719 216.222656 178.699219 C 218.464844 146.253906 230.070312 125.75 249.792969 119.417969 C 288.203125 107.0625 351.015625 147.992188 417.863281 228.855469 C 521.574219 354.308594 600.464844 535.746094 593.734375 633.308594 C 591.492188 665.753906 579.886719 686.246094 560.164062 692.589844 C 555.652344 694.039062 550.800781 694.75 545.640625 694.75 " fill-opacity="1" fill-rule="nonzero"/><path fill="#a5a6f6" d="M 268.285156 112.070312 C 263.761719 112.070312 259.480469 112.621094 255.449219 113.734375 C 235.589844 119.21875 222.96875 138.453125 218.964844 169.359375 C 206.429688 266.023438 279.972656 450.746094 382.910156 581.132812 C 448.695312 664.460938 514.429688 709.351562 554.507812 698.273438 C 574.367188 692.78125 586.988281 673.546875 590.988281 642.648438 C 603.519531 545.976562 529.976562 361.257812 427.046875 230.875 C 367.875 155.925781 308.722656 112.070312 268.285156 112.070312 Z M 541.804688 701.726562 C 500.714844 701.726562 441.007812 657.648438 381.484375 582.253906 C 278.292969 451.539062 204.574219 266.210938 217.164062 169.128906 C 221.273438 137.449219 234.347656 117.6875 254.964844 111.980469 C 295.75 100.710938 362.226562 145.832031 428.472656 229.746094 C 531.664062 360.46875 605.382812 545.796875 592.792969 642.878906 C 588.683594 674.558594 575.609375 694.320312 554.992188 700.019531 C 550.847656 701.164062 546.441406 701.726562 541.804688 701.726562 " fill-opacity="1" fill-rule="nonzero"/><path fill="#a5a6f6" d="M 273.144531 105.242188 C 269.042969 105.242188 265.113281 105.667969 261.363281 106.535156 C 240.5 111.335938 226.355469 129.8125 220.480469 159.960938 C 201.78125 255.824219 269.628906 444.125 371.722656 579.714844 C 437.617188 667.238281 505.402344 715.421875 548.589844 705.472656 C 569.457031 700.671875 583.59375 682.195312 589.472656 652.046875 C 608.171875 556.183594 540.328125 367.882812 438.234375 232.289062 C 378.058594 152.367188 316.308594 105.242188 273.144531 105.242188 Z M 536.917969 708.570312 C 493.113281 708.570312 430.792969 661.191406 370.265625 580.804688 C 267.914062 444.867188 199.914062 255.914062 218.695312 159.605469 C 224.722656 128.707031 239.335938 109.746094 260.953125 104.761719 C 304.851562 94.648438 373.347656 143.097656 439.683594 231.203125 C 542.042969 367.140625 610.035156 556.09375 591.253906 652.402344 C 585.230469 683.296875 570.617188 702.261719 549.003906 707.246094 C 545.15625 708.125 541.121094 708.570312 536.917969 708.570312 " fill-opacity="1" fill-rule="nonzero"/><path fill="#a5a6f6" d="M 278.507812 98.675781 C 274.941406 98.675781 271.488281 98.972656 268.160156 99.582031 C 246.175781 103.609375 230.425781 121.269531 222.605469 150.652344 C 197.417969 245.402344 259.007812 436.984375 359.910156 577.714844 C 425.589844 669.320312 495.3125 720.96875 541.796875 712.425781 C 563.78125 708.398438 579.523438 690.738281 587.339844 661.355469 C 612.539062 566.601562 550.949219 375.03125 450.046875 234.292969 C 389.078125 149.253906 324.636719 98.675781 278.507812 98.675781 Z M 531.539062 715.136719 C 484.757812 715.136719 419.757812 664.296875 358.4375 578.777344 C 257.253906 437.660156 195.539062 245.386719 220.851562 150.191406 C 228.859375 120.074219 245.113281 101.953125 267.832031 97.804688 C 315.058594 89.152344 385.429688 141.054688 451.519531 233.230469 C 552.703125 374.355469 614.417969 566.621094 589.09375 661.816406 C 581.089844 691.929688 564.84375 710.042969 542.125 714.203125 C 538.714844 714.832031 535.171875 715.136719 531.539062 715.136719 " fill-opacity="1" fill-rule="nonzero"/><path fill="#a5a6f6" d="M 284.339844 92.390625 C 281.472656 92.390625 278.671875 92.574219 275.929688 92.933594 C 252.699219 96.066406 235.226562 112.84375 225.390625 141.476562 C 193.355469 234.761719 248.117188 429.28125 347.472656 575.105469 C 412.566406 670.621094 484.050781 725.8125 534.019531 719.0625 C 557.25 715.941406 574.730469 699.164062 584.566406 670.53125 C 616.601562 577.246094 561.835938 382.726562 462.476562 236.902344 C 400.957031 146.617188 333.730469 92.390625 284.339844 92.390625 Z M 525.683594 721.429688 C 475.648438 721.429688 407.835938 666.914062 345.980469 576.125 C 246.339844 429.890625 191.476562 234.644531 223.679688 140.882812 C 233.746094 111.558594 251.734375 94.359375 275.691406 91.140625 C 326.367188 84.335938 398.503906 139.796875 463.976562 235.882812 C 563.617188 382.117188 618.480469 577.359375 586.277344 671.125 C 576.203125 700.441406 558.222656 717.648438 534.257812 720.867188 C 531.464844 721.238281 528.597656 721.429688 525.683594 721.429688 " fill-opacity="1" fill-rule="nonzero"/><path fill="#a5a6f6" d="M 290.640625 86.410156 C 288.664062 86.410156 286.710938 86.492188 284.792969 86.65625 C 260.152344 88.734375 240.820312 104.574219 228.859375 132.457031 C 189.632812 223.929688 236.980469 421.027344 334.414062 571.832031 C 398.503906 671.042969 471.519531 729.886719 525.164062 725.347656 C 549.800781 723.265625 569.136719 707.433594 581.097656 679.550781 C 620.324219 588.078125 572.976562 390.972656 475.542969 240.164062 C 413.75 144.523438 343.59375 86.410156 290.640625 86.410156 Z M 519.355469 727.410156 C 465.753906 727.410156 395.019531 669 332.882812 572.820312 C 235.167969 421.570312 187.753906 223.699219 227.1875 131.738281 C 239.429688 103.207031 259.296875 86.988281 284.636719 84.847656 C 338.886719 80.265625 412.605469 139.410156 477.066406 239.183594 C 574.785156 390.433594 622.203125 588.308594 582.761719 680.257812 C 570.527344 708.800781 550.660156 725.019531 525.320312 727.152344 C 523.359375 727.328125 521.367188 727.410156 519.355469 727.410156 " fill-opacity="1" fill-rule="nonzero"/><path fill="#a5a6f6" d="M 297.378906 80.769531 C 296.523438 80.769531 295.691406 80.785156 294.851562 80.808594 C 268.640625 81.675781 247.261719 96.484375 233.042969 123.632812 C 186.28125 212.917969 225.613281 412.207031 320.714844 567.894531 C 382.464844 669 455.695312 731.230469 512.578125 731.238281 C 513.425781 731.238281 514.265625 731.222656 515.105469 731.191406 C 541.316406 730.332031 562.6875 715.523438 576.914062 688.371094 C 623.667969 599.089844 584.34375 399.792969 489.238281 244.109375 C 427.484375 143.007812 354.25 80.769531 297.378906 80.769531 Z M 512.59375 733.050781 C 455.070312 733.058594 381.261719 670.5 319.160156 568.84375 C 223.769531 412.667969 184.410156 212.578125 231.4375 122.792969 C 245.976562 95.027344 267.882812 79.886719 294.785156 78.996094 C 295.640625 78.964844 296.507812 78.957031 297.363281 78.957031 C 354.878906 78.957031 428.695312 141.515625 490.789062 243.164062 C 586.1875 399.332031 625.546875 599.429688 578.519531 689.214844 C 563.972656 716.980469 542.074219 732.121094 515.171875 733.011719 C 514.316406 733.035156 513.449219 733.050781 512.59375 733.050781 " fill-opacity="1" fill-rule="nonzero"/><path fill="#a5a6f6" d="M 304.585938 75.480469 C 277.3125 75.480469 254.3125 89.136719 237.980469 115.050781 C 183.339844 201.746094 214.023438 402.800781 306.382812 563.242188 C 367.199219 668.898438 442.8125 735.292969 503.722656 736.511719 C 504.265625 736.519531 504.816406 736.527344 505.371094 736.527344 C 532.644531 736.527344 555.644531 722.871094 571.976562 696.957031 C 626.617188 610.261719 595.933594 409.199219 503.574219 248.765625 C 442.753906 143.105469 367.136719 76.714844 306.234375 75.496094 C 305.683594 75.488281 305.132812 75.480469 304.585938 75.480469 Z M 505.378906 738.339844 C 504.808594 738.339844 504.25 738.339844 503.679688 738.324219 C 442.144531 737.09375 365.941406 670.351562 304.808594 564.148438 C 212.152344 403.1875 181.484375 201.285156 236.445312 114.078125 C 253.457031 87.078125 277.519531 73.148438 306.277344 73.683594 C 367.800781 74.910156 444.015625 141.65625 505.148438 247.859375 C 597.800781 408.820312 628.472656 610.722656 573.511719 697.929688 C 556.828125 724.394531 533.292969 738.339844 505.378906 738.339844 " fill-opacity="1" fill-rule="nonzero"/><path fill="#a5a6f6" d="M 312.273438 70.570312 C 285.136719 70.570312 261.539062 82.976562 243.695312 106.730469 C 180.835938 190.4375 202.234375 392.808594 291.414062 557.847656 C 349.917969 666.125 426.347656 736.371094 490.855469 741.179688 C 520.863281 743.4375 546.9375 731 566.253906 705.277344 C 629.121094 621.570312 607.71875 419.199219 518.539062 254.160156 C 460.03125 145.882812 383.609375 75.636719 319.09375 70.828125 C 316.804688 70.652344 314.523438 70.570312 312.273438 70.570312 Z M 497.707031 743.25 C 495.402344 743.25 493.070312 743.167969 490.722656 742.992188 C 425.597656 738.132812 348.609375 667.523438 289.816406 558.710938 C 200.332031 393.105469 178.996094 189.859375 242.246094 105.636719 C 261.957031 79.394531 288.597656 66.742188 319.234375 69.015625 C 384.359375 73.867188 461.339844 144.484375 520.140625 253.296875 C 609.613281 418.902344 630.957031 622.144531 567.710938 706.371094 C 549.515625 730.597656 525.417969 743.25 497.707031 743.25 " fill-opacity="1" fill-rule="nonzero"/><path fill="#a5a6f6" d="M 320.296875 66.058594 C 293.402344 66.058594 269.386719 77.195312 250.246094 98.71875 C 178.800781 179.011719 190.273438 382.214844 275.8125 551.675781 C 331.550781 662.097656 408.398438 736.199219 476.382812 745.070312 C 508.640625 749.285156 537.460938 738.289062 559.710938 713.289062 C 631.15625 632.996094 619.679688 429.792969 534.132812 260.328125 C 478.40625 149.910156 401.550781 75.808594 333.574219 66.9375 C 329.085938 66.34375 324.644531 66.058594 320.296875 66.058594 Z M 489.683594 747.761719 C 485.246094 747.761719 480.730469 747.464844 476.140625 746.871094 C 407.574219 737.917969 330.199219 663.4375 274.191406 552.5 C 188.347656 382.421875 176.988281 178.3125 248.886719 97.515625 C 271.546875 72.035156 300.90625 60.84375 333.8125 65.132812 C 402.375 74.089844 479.757812 148.566406 535.757812 259.515625 C 621.609375 429.585938 632.960938 633.695312 561.070312 714.492188 C 541.566406 736.421875 517.089844 747.761719 489.683594 747.761719 " fill-opacity="1" fill-rule="nonzero"/><path fill="#a5a6f6" d="M 328.601562 61.964844 C 302.082031 61.964844 277.855469 71.832031 257.640625 91.066406 C 177.277344 167.503906 178.148438 371.003906 259.585938 544.699219 C 312.101562 656.71875 388.949219 734.625 460.136719 748.019531 C 494.933594 754.566406 526.8125 745.199219 552.316406 720.941406 C 632.679688 644.5 631.808594 441.003906 550.371094 267.308594 C 497.847656 155.289062 421 77.382812 349.820312 63.988281 C 342.613281 62.628906 335.527344 61.964844 328.601562 61.964844 Z M 481.390625 751.863281 C 474.339844 751.863281 467.140625 751.179688 459.808594 749.796875 C 388.050781 736.304688 310.699219 658.003906 257.9375 545.464844 C 176.207031 371.121094 175.503906 166.683594 256.382812 89.746094 C 282.328125 65.070312 314.769531 55.546875 350.148438 62.210938 C 421.90625 75.710938 499.25 154.003906 552.011719 266.539062 C 633.75 440.886719 634.453125 645.324219 553.566406 722.261719 C 532.996094 741.824219 508.351562 751.863281 481.390625 751.863281 " fill-opacity="1" fill-rule="nonzero"/><path fill="#a5a6f6" d="M 337.09375 58.289062 C 311.128906 58.289062 286.933594 66.890625 265.929688 83.800781 C 176.304688 155.925781 165.890625 359.175781 242.730469 536.882812 C 291.613281 649.921875 367.96875 731.519531 441.996094 749.839844 C 479.609375 759.136719 514.882812 751.660156 544.027344 728.207031 C 633.652344 656.082031 644.054688 452.832031 567.226562 275.125 C 518.34375 162.085938 441.988281 80.488281 367.949219 62.167969 C 357.464844 59.574219 347.140625 58.289062 337.09375 58.289062 Z M 472.878906 755.539062 C 462.683594 755.539062 452.21875 754.230469 441.5625 751.59375 C 366.988281 733.148438 290.164062 651.148438 241.066406 537.601562 C 163.929688 359.199219 174.566406 154.984375 264.785156 82.382812 C 294.390625 58.570312 330.214844 50.964844 368.386719 60.40625 C 442.960938 78.859375 519.792969 160.859375 568.890625 274.40625 C 646.023438 452.808594 635.382812 657.015625 545.164062 729.625 C 523.828125 746.789062 499.242188 755.539062 472.878906 755.539062 " fill-opacity="1" fill-rule="nonzero"/><path fill="#a5a6f6" d="M 345.734375 55.042969 C 320.519531 55.042969 296.613281 62.40625 275.136719 76.980469 C 175.910156 144.316406 153.535156 346.730469 225.269531 528.195312 C 270.789062 643.363281 344.285156 726.402344 421.847656 750.324219 C 462.535156 762.859375 501.597656 757.574219 534.816406 735.027344 C 634.046875 667.6875 656.414062 465.277344 584.6875 283.8125 C 539.167969 168.640625 465.671875 85.605469 388.097656 61.683594 C 373.71875 57.25 359.523438 55.042969 345.734375 55.042969 Z M 464.238281 758.785156 C 450.261719 758.785156 435.886719 756.550781 421.3125 752.054688 C 343.222656 727.976562 269.304688 644.542969 223.578125 528.859375 C 151.550781 346.648438 174.21875 143.261719 274.117188 75.480469 C 307.816406 52.613281 347.421875 47.242188 388.636719 59.953125 C 466.726562 84.03125 540.652344 167.464844 586.378906 283.148438 C 658.398438 465.359375 635.726562 668.742188 535.839844 736.527344 C 514.050781 751.3125 489.800781 758.785156 464.238281 758.785156 " fill-opacity="1" fill-rule="nonzero"/><path fill="#a5a6f6" d="M 354.425781 52.234375 C 330.199219 52.234375 306.871094 58.386719 285.304688 70.652344 C 176.140625 132.695312 141.097656 333.648438 207.195312 518.605469 C 248.277344 633.570312 320.207031 719.796875 399.597656 749.261719 C 443.597656 765.578125 486.828125 762.851562 524.644531 741.355469 C 633.816406 679.304688 668.859375 478.359375 602.761719 293.402344 C 561.679688 178.4375 489.75 92.210938 410.355469 62.746094 C 391.460938 55.734375 372.679688 52.234375 354.425781 52.234375 Z M 455.53125 761.59375 C 437.0625 761.59375 418.09375 758.058594 398.964844 750.957031 C 319.078125 721.3125 246.742188 634.683594 205.480469 519.214844 C 139.101562 333.46875 174.515625 131.535156 284.40625 69.070312 C 322.710938 47.300781 366.476562 44.523438 410.992188 61.039062 C 490.878906 90.695312 563.214844 177.332031 604.476562 292.792969 C 670.84375 478.539062 635.441406 680.472656 525.542969 742.9375 C 503.695312 755.347656 480.0625 761.59375 455.53125 761.59375 " fill-opacity="1" fill-rule="nonzero"/><path fill="#a5a6f6" d="M 363.089844 49.863281 C 340.109375 49.863281 317.703125 54.855469 296.472656 64.855469 C 177.039062 121.105469 128.617188 319.941406 188.527344 508.078125 C 224.871094 622.210938 294.644531 711.3125 375.175781 746.421875 C 422.6875 767.144531 470.515625 767.390625 513.484375 747.152344 C 632.917969 690.902344 681.339844 492.066406 621.429688 303.921875 C 585.082031 189.796875 515.3125 100.695312 434.78125 65.578125 C 410.734375 55.101562 386.617188 49.863281 363.089844 49.863281 Z M 446.867188 763.964844 C 423.09375 763.964844 398.726562 758.675781 374.449219 748.082031 C 293.449219 712.769531 223.292969 623.257812 186.800781 508.628906 C 126.625 319.652344 175.472656 119.835938 295.691406 63.214844 C 339.152344 42.746094 387.5 42.992188 435.5 63.914062 C 516.507812 99.234375 586.65625 188.75 623.15625 303.367188 C 683.332031 492.355469 634.484375 692.171875 514.257812 748.792969 C 492.78125 758.90625 470.105469 763.964844 446.867188 763.964844 " fill-opacity="1" fill-rule="nonzero"/><path fill="#a5a6f6" d="M 371.601562 47.910156 C 350.183594 47.910156 329.070312 51.816406 308.65625 59.648438 C 178.636719 109.582031 116.113281 305.59375 169.285156 496.605469 C 200.644531 609.289062 267.683594 700.875 348.59375 741.601562 C 399.753906 767.351562 452.558594 771.066406 501.300781 752.359375 C 631.320312 702.425781 693.84375 506.414062 640.671875 315.402344 C 609.300781 202.71875 542.273438 111.128906 461.363281 70.40625 C 431.625 55.4375 401.328125 47.910156 371.601562 47.910156 Z M 438.347656 765.917969 C 408.347656 765.917969 377.777344 758.324219 347.777344 743.222656 C 266.414062 702.269531 199.039062 610.261719 167.53125 497.089844 C 114.117188 305.207031 177.136719 108.207031 308.007812 57.960938 C 357.234375 39.054688 410.546875 42.796875 462.179688 68.785156 C 543.542969 109.738281 610.917969 201.746094 642.425781 314.917969 C 695.835938 506.800781 632.820312 703.792969 501.949219 754.046875 C 481.332031 761.964844 459.980469 765.917969 438.347656 765.917969 " fill-opacity="1" fill-rule="nonzero"/><path fill="#a5a6f6" d="M 379.804688 46.386719 C 360.3125 46.386719 340.929688 49.277344 321.894531 55.085938 C 180.976562 98.148438 103.632812 290.617188 149.472656 484.132812 C 175.695312 594.800781 239.386719 688.421875 319.859375 734.582031 C 374.722656 766.058594 432.878906 773.777344 488.054688 756.914062 C 628.972656 713.859375 706.324219 521.390625 660.472656 327.875 C 634.253906 217.207031 570.5625 123.578125 490.089844 77.425781 C 454.15625 56.804688 416.800781 46.386719 379.804688 46.386719 Z M 430.144531 767.441406 C 392.828125 767.441406 355.183594 756.929688 318.953125 736.15625 C 238.0625 689.757812 174.046875 595.695312 147.710938 484.554688 C 101.648438 290.125 179.550781 96.683594 321.367188 53.355469 C 377.035156 36.335938 435.6875 44.128906 490.996094 75.851562 C 571.894531 122.25 635.910156 216.3125 662.246094 327.453125 C 708.308594 521.882812 630.40625 715.316406 488.582031 758.652344 C 469.378906 764.523438 449.808594 767.441406 430.144531 767.441406 " fill-opacity="1" fill-rule="nonzero"/><path fill="#a5a6f6" d="M 387.480469 45.257812 C 370.378906 45.257812 353.246094 47.242188 336.226562 51.222656 C 184.105469 86.855469 91.203125 275 129.136719 470.640625 C 150.40625 580.375 208.710938 673.160156 289.085938 725.199219 C 347.570312 763.066406 411.421875 775.375 473.71875 760.777344 C 625.84375 725.152344 718.746094 537 680.820312 341.367188 C 659.550781 231.632812 601.246094 138.847656 520.871094 86.804688 C 478.359375 59.277344 433.011719 45.257812 387.480469 45.257812 Z M 422.457031 768.5625 C 376.582031 768.570312 330.914062 754.441406 288.097656 726.726562 C 207.308594 674.417969 148.714844 581.199219 127.347656 470.988281 C 89.234375 274.40625 182.753906 85.308594 335.816406 49.460938 C 398.609375 34.746094 462.945312 47.136719 521.859375 85.28125 C 602.644531 137.589844 661.230469 230.800781 682.601562 341.019531 C 720.714844 537.601562 627.203125 726.699219 474.140625 762.546875 C 456.980469 766.566406 439.699219 768.5625 422.457031 768.5625 " fill-opacity="1" fill-rule="nonzero"/><path fill="#a5a6f6" d="M 393.207031 44.640625 C 379.335938 44.640625 365.453125 45.792969 351.671875 48.117188 C 188.058594 75.734375 78.871094 258.765625 108.269531 456.109375 C 124.160156 562.78125 178.148438 656.527344 256.398438 713.316406 C 317.421875 757.605469 389.105469 775.578125 458.273438 763.890625 C 621.890625 736.273438 731.085938 553.242188 701.6875 355.898438 C 685.789062 249.226562 631.800781 155.472656 553.558594 98.691406 C 504.695312 63.222656 448.976562 44.640625 393.207031 44.640625 Z M 416.742188 769.179688 C 360.585938 769.179688 304.511719 750.480469 255.328125 714.789062 C 176.691406 657.714844 122.4375 563.53125 106.472656 456.382812 C 76.933594 258.066406 186.789062 74.113281 351.367188 46.328125 C 421.015625 34.574219 493.210938 52.636719 554.621094 97.21875 C 633.257812 154.292969 687.519531 248.476562 703.480469 355.625 C 733.023438 553.941406 623.164062 737.894531 458.578125 765.679688 C 444.699219 768.027344 430.71875 769.179688 416.742188 769.179688 " fill-opacity="1" fill-rule="nonzero"/><g clip-path="url(#id1)"><path fill="#a5a6f6" d="M 398.859375 44.164062 C 388.667969 44.164062 378.46875 44.707031 368.261719 45.816406 C 192.886719 64.835938 66.671875 241.902344 86.917969 440.507812 C 97.4375 543.710938 146.664062 637.871094 221.980469 698.84375 C 286.027344 750.695312 364.046875 774.617188 441.691406 766.1875 C 617.070312 747.160156 743.285156 570.105469 723.039062 371.5 C 712.519531 268.296875 663.289062 174.136719 587.96875 113.15625 C 532.339844 68.125 466.160156 44.164062 398.859375 44.164062 Z M 411.097656 769.65625 C 343.371094 769.65625 276.800781 745.554688 220.835938 700.25 C 145.148438 638.976562 95.675781 544.371094 85.113281 440.691406 C 64.757812 241.089844 191.699219 63.140625 368.074219 44.015625 C 446.183594 35.539062 524.6875 59.589844 589.113281 111.75 C 664.796875 173.023438 714.28125 267.636719 724.84375 371.316406 C 745.1875 570.910156 618.257812 748.867188 441.882812 767.992188 C 431.617188 769.105469 421.347656 769.65625 411.097656 769.65625 " fill-opacity="1" fill-rule="nonzero"/></g><g clip-path="url(#id2)"><path fill="#a5a6f6" d="M 403.167969 43.941406 C 397.464844 43.941406 391.757812 44.089844 386.023438 44.394531 C 295.253906 49.144531 211.875 91.230469 151.261719 162.875 C 90.632812 234.546875 60.039062 327.214844 65.097656 423.8125 C 70.164062 520.417969 110.28125 609.378906 178.066406 674.320312 C 245.835938 739.238281 333.171875 772.359375 423.933594 767.621094 C 611.335938 757.796875 755.304688 587.582031 744.859375 388.195312 C 739.792969 291.589844 699.667969 202.628906 631.890625 137.6875 C 568.386719 76.863281 487.742188 43.941406 403.167969 43.941406 Z M 406.789062 769.878906 C 321.738281 769.886719 240.65625 736.78125 176.816406 675.621094 C 108.691406 610.367188 68.375 520.96875 63.285156 423.910156 C 58.203125 326.84375 88.953125 233.722656 149.878906 161.707031 C 210.820312 89.664062 294.652344 47.359375 385.933594 42.582031 C 477.203125 37.785156 565.007812 71.105469 633.140625 136.378906 C 701.257812 201.640625 741.582031 291.03125 746.664062 388.097656 C 757.175781 588.488281 612.433594 759.558594 424.023438 769.433594 C 418.273438 769.730469 412.515625 769.878906 406.789062 769.878906 " fill-opacity="1" fill-rule="nonzero"/></g><path fill="#a5a6f6" d="M 404.976562 43.890625 C 205.300781 43.890625 42.847656 206.335938 42.847656 406.003906 C 42.847656 605.671875 205.300781 768.117188 404.976562 768.117188 C 604.65625 768.117188 767.109375 605.671875 767.109375 406.003906 C 767.109375 206.335938 604.65625 43.890625 404.976562 43.890625 Z M 404.976562 769.929688 C 204.296875 769.929688 41.035156 606.667969 41.035156 406.003906 C 41.035156 205.332031 204.296875 42.078125 404.976562 42.078125 C 605.652344 42.078125 768.921875 205.332031 768.921875 406.003906 C 768.921875 606.667969 605.652344 769.929688 404.976562 769.929688 " fill-opacity="1" fill-rule="nonzero"/></svg>