<?xml version="1.0" encoding="UTF-8"?><svg xmlns="http://www.w3.org/2000/svg" xmlns:xlink="http://www.w3.org/1999/xlink" viewBox="0 0 382.98 128.21"><defs><style>.cls-1{clip-path:url(#clippath);}.cls-2{fill:#ffede9;}.cls-3,.cls-4,.cls-5{fill:#fcb6a6;}.cls-4{mix-blend-mode:color-dodge;opacity:.57;}.cls-6{opacity:.15;}.cls-5{mix-blend-mode:color-burn;opacity:.51;}.cls-7{isolation:isolate;}</style><clipPath id="clippath"><rect class="cls-3" y=".12" width="382.98" height="127.32"/></clipPath></defs><g class="cls-7"><g id="Layer_2"><g id="OBJECTS"><rect class="cls-2" width="382.98" height="128.21"/><g class="cls-6"><rect class="cls-3" y=".12" width="382.98" height="127.32"/><g class="cls-1"><g><polygon class="cls-5" points="-62.82 39.33 56.83 -20.34 109.93 6.14 -9.72 65.81 -62.82 39.33"/><polygon class="cls-5" points="-65.99 95.14 138.87 -7.02 191.97 19.46 -12.89 121.62 -65.99 95.14"/><polygon class="cls-5" points="105.39 157.02 320.55 49.72 373.65 76.2 158.49 183.5 105.39 157.02"/><polygon class="cls-5" points="70.16 62.13 256.31 -30.7 309.41 -4.22 123.26 88.61 70.16 62.13"/><polygon class="cls-5" points="82.41 161.19 319.12 43.14 370.98 69.01 134.27 187.05 82.41 161.19"/><polygon class="cls-5" points="191.49 142.09 428.2 24.05 480.05 49.91 243.35 167.95 191.49 142.09"/><polygon class="cls-5" points="-81.29 76.91 155.41 -41.13 207.27 -15.27 -29.43 102.77 -81.29 76.91"/><polygon class="cls-4" points="-56.82 18.26 106.29 -63.08 168.87 -31.87 5.76 49.47 -56.82 18.26"/><polygon class="cls-4" points="217.51 62.12 385.89 -21.85 469.59 19.9 301.22 103.86 217.51 62.12"/><polygon class="cls-4" points="-96.88 93.77 82.98 4.07 166.69 45.81 -13.18 135.51 -96.88 93.77"/></g></g></g></g></g></g></svg>