<svg viewBox="0 0 383 129" fill="none" xmlns="http://www.w3.org/2000/svg">
<g clip-path="url(#clip0_337_1453)">
<path d="M382.98 0H0V128.21H382.98V0Z" fill="#E7F3FF"/>
<g opacity="0.15">
<path d="M382.98 0.119873H0V127.44H382.98V0.119873Z" fill="#83B8F0" fill-opacity="0.5"/>
<g style="mix-blend-mode:color-burn" opacity="0.51">
<path d="M-62.82 39.3299L56.83 -20.3401L109.93 6.13991L-9.72001 65.8099L-62.82 39.3299Z" fill="#83B8F0" fill-opacity="0.5"/>
</g>
<g style="mix-blend-mode:color-burn" opacity="0.51">
<path d="M-65.99 95.14L138.87 -7.02002L191.97 19.46L-12.89 121.62L-65.99 95.14Z" fill="#83B8F0" fill-opacity="0.5"/>
</g>
<g style="mix-blend-mode:color-burn" opacity="0.51">
<path d="M105.39 157.02L320.55 49.72L373.65 76.2L158.49 183.5L105.39 157.02Z" fill="#83B8F0" fill-opacity="0.5"/>
</g>
<g style="mix-blend-mode:color-burn" opacity="0.51">
<path d="M70.16 62.1298L256.31 -30.7002L309.41 -4.22019L123.26 88.6098L70.16 62.1298Z" fill="#83B8F0" fill-opacity="0.5"/>
</g>
<g style="mix-blend-mode:color-burn" opacity="0.51">
<path d="M82.41 161.19L319.12 43.1399L370.98 69.0099L134.27 187.05L82.41 161.19Z" fill="#83B8F0" fill-opacity="0.5"/>
</g>
<g style="mix-blend-mode:color-burn" opacity="0.51">
<path d="M191.49 142.09L428.2 24.0498L480.05 49.9098L243.35 167.95L191.49 142.09Z" fill="#83B8F0" fill-opacity="0.5"/>
</g>
<g style="mix-blend-mode:color-burn" opacity="0.51">
<path d="M-81.29 76.9099L155.41 -41.1301L207.27 -15.2701L-29.43 102.77L-81.29 76.9099Z" fill="#83B8F0" fill-opacity="0.5"/>
</g>
<g style="mix-blend-mode:color-dodge" opacity="0.57">
<path d="M-56.82 18.2599L106.29 -63.0801L168.87 -31.8701L5.75999 49.4699L-56.82 18.2599Z" fill="#83B8F0" fill-opacity="0.5"/>
</g>
<g style="mix-blend-mode:color-dodge" opacity="0.57">
<path d="M217.51 62.1199L385.89 -21.8501L469.59 19.8999L301.22 103.86L217.51 62.1199Z" fill="#83B8F0" fill-opacity="0.5"/>
</g>
<g style="mix-blend-mode:color-dodge" opacity="0.57">
<path d="M-96.88 93.7698L82.98 4.06982L166.69 45.8098L-13.18 135.51L-96.88 93.7698Z" fill="#83B8F0" fill-opacity="0.5"/>
</g>
</g>
</g>
<defs>
<clipPath id="clip0_337_1453">
<rect width="382.98" height="128.21" fill="white"/>
</clipPath>
</defs>
</svg>
