<svg viewBox="0 0 17 17" fill="none" xmlns="http://www.w3.org/2000/svg">
<path d="M8.5 0C3.80559 0 0 3.80559 0 8.5C0 13.1944 3.80559 17 8.5 17C13.1944 17 17 13.1944 17 8.5C17 3.80559 13.1944 0 8.5 0ZM11.4923 8.87596L7.35289 11.6939C7.21359 11.7887 7.03326 11.7987 6.8843 11.72C6.73533 11.6411 6.64215 11.4864 6.64215 11.3179V5.68207C6.64215 5.51356 6.73533 5.35885 6.8843 5.28004C7.03326 5.20126 7.21359 5.21126 7.35289 5.30611L11.4923 8.12404C11.6167 8.20874 11.6912 8.34948 11.6912 8.5C11.6912 8.65052 11.6167 8.79126 11.4923 8.87596Z" fill="#FF8B83"/>
</svg>
