<svg viewBox="0 0 17 17" fill="none" xmlns="http://www.w3.org/2000/svg">
<path d="M8.5 0C3.8056 0 0 3.8056 0 8.5C0 13.1944 3.8056 17 8.5 17C13.1944 17 17 13.1944 17 8.5C17 3.8056 13.1944 0 8.5 0ZM13.4964 9.27181L9.00307 11.8661C8.86444 11.9461 8.70778 11.9884 8.54997 11.9884C8.54997 11.9884 8.54041 11.9884 8.54035 11.9884C8.0394 11.9884 7.6223 11.5808 7.6223 11.0799V10.6694L5.55917 11.8661C5.42054 11.9461 5.25912 11.9884 5.10132 11.9884C4.6003 11.9884 4.18801 11.5808 4.18801 11.0799V5.89144C4.18801 5.39049 4.60511 4.98295 5.10612 4.98295C5.26393 4.98295 5.41584 5.02519 5.55448 5.10527L7.62241 6.30196V5.89144C7.62241 5.39049 8.03951 4.98295 8.54052 4.98295C8.69833 4.98295 8.85975 5.02519 8.99838 5.10527L13.4941 7.69951C13.7784 7.86362 13.9492 8.15748 13.9492 8.48563C13.9492 8.81378 13.7806 9.10771 13.4964 9.27181Z" fill="#9697FF"/>
</svg>
