<svg  viewBox="0 0 17 17" fill="none" xmlns="http://www.w3.org/2000/svg">
<path d="M8.5 0C3.80558 0 0 3.80558 0 8.5C0 13.1944 3.80558 17 8.5 17C13.1944 17 17 13.1944 17 8.5C17 3.80558 13.1944 0 8.5 0ZM9.32593 8.94203L6.13843 11.067C6.04958 11.1262 5.94675 11.1562 5.84375 11.1562C5.75775 11.1562 5.67163 11.1355 5.59303 11.0935C5.42028 11.0009 5.3125 10.8208 5.3125 10.625V6.375C5.3125 6.17917 5.42028 5.99914 5.59303 5.90654C5.76579 5.81447 5.9754 5.82406 6.13843 5.933L9.32593 8.058C9.47378 8.15655 9.5625 8.3223 9.5625 8.5C9.5625 8.6777 9.47378 8.84345 9.32593 8.94203ZM12.2188 10.625C12.2188 10.9184 11.9809 11.1562 11.6875 11.1562H11.1562C10.8629 11.1562 10.625 10.9184 10.625 10.625V6.375C10.625 6.08162 10.8629 5.84375 11.1562 5.84375H11.6875C11.9809 5.84375 12.2188 6.08162 12.2188 6.375V10.625Z" fill="#6BB3FF"/>
</svg>
