<?xml version="1.0" encoding="UTF-8"?><svg id="Layer_2" xmlns="http://www.w3.org/2000/svg" xmlns:xlink="http://www.w3.org/1999/xlink" viewBox="0 0 1049.23 317.57"><defs><style>.cls-1{fill:url(#linear-gradient);}.cls-2{fill:#fcb6a6;}.cls-3{fill:#fff;font-family:Avenir-Black, Avenir;font-size:89.46px;}.cls-4{fill:url(#linear-gradient-2);}.cls-5{font-family:Poppins-SemiBold, Poppins;font-size:220px;}</style><linearGradient id="linear-gradient" x1="0" y1="109.51" x2="191.23" y2="109.51" gradientTransform="matrix(1, 0, 0, 1, 0, 0)" gradientUnits="userSpaceOnUse"><stop offset=".26" stop-color="#ff9d87"/><stop offset=".32" stop-color="#f59a87"/><stop offset=".43" stop-color="#dc9389"/><stop offset=".56" stop-color="#b2898b"/><stop offset=".71" stop-color="#787a8f"/><stop offset=".89" stop-color="#306793"/><stop offset=".99" stop-color="#005b97"/><stop offset="1" stop-color="#0075be"/></linearGradient><linearGradient id="linear-gradient-2" x1="13.08" y1="100.92" x2="178.25" y2="100.92" gradientTransform="matrix(1, 0, 0, 1, 0, 0)" gradientUnits="userSpaceOnUse"><stop offset="0" stop-color="#ffae9e"/><stop offset=".2" stop-color="#fcae9f"/><stop offset=".35" stop-color="#f2aea4"/><stop offset=".48" stop-color="#e2aeac"/><stop offset=".6" stop-color="#ccaeb7"/><stop offset=".71" stop-color="#aeafc6"/><stop offset=".82" stop-color="#8bafd8"/><stop offset=".92" stop-color="#61b0ed"/><stop offset=".99" stop-color="#3fb1ff"/></linearGradient></defs><g id="Layer_1-2"><g><path class="cls-1" d="M191.23,58.21v116.55c0,15.47-11.87,28-26.51,28H26.61C11.97,202.76,.1,190.22,.1,174.76V58.21c0-.41,0-.82,.03-1.22-.03-.23-.06-.47-.08-.71-.03-.26-.07-.93,0-1.78,.85-10.35,5.47-18.23,5.47-18.23,7.73-13.2,20.75-17.46,24.42-18.68,1.73-.57,3.42-1.01,5.05-1.33-.1,3.34-.4,8.38-1.49,13.95h123.82c-1.06-5.5-1.36-10.47-1.45-13.79,1.63,.32,3.32,.76,5.05,1.33,3.67,1.22,16.69,5.48,24.42,18.68,0,0,3.56,6.09,5.01,14.58,.58,2.29,.88,4.71,.88,7.2Z"/><rect class="cls-4" x="13.08" y="15.53" width="165.17" height="170.78" rx="26.45" ry="26.45"/><text class="cls-3" transform="translate(32.38 137.83)"><tspan x="0" y="0">C</tspan></text></g><text class="cls-5" transform="translate(271.27 187.11) scale(.95 1)"><tspan x="0" y="0">Code</tspan><tspan class="cls-2" x="594.21" y="0">IT</tspan></text></g></svg>