<?xml version="1.0" encoding="UTF-8"?><svg id="Layer_2" xmlns="http://www.w3.org/2000/svg" xmlns:xlink="http://www.w3.org/1999/xlink" viewBox="0 0 1007.57 187.23"><defs><style>.cls-1{fill:url(#linear-gradient);}.cls-2{fill:#fff;}.cls-3{fill:#fcb6a6;}.cls-4{fill:url(#linear-gradient-2);}</style><linearGradient id="linear-gradient" x1="0" y1="93.98" x2="191.23" y2="93.98" gradientTransform="matrix(1, 0, 0, 1, 0, 0)" gradientUnits="userSpaceOnUse"><stop offset=".26" stop-color="#ff9d87"/><stop offset=".32" stop-color="#f59a87"/><stop offset=".43" stop-color="#dc9389"/><stop offset=".56" stop-color="#b2898b"/><stop offset=".71" stop-color="#787a8f"/><stop offset=".89" stop-color="#306793"/><stop offset=".99" stop-color="#005b97"/><stop offset="1" stop-color="#0075be"/></linearGradient><linearGradient id="linear-gradient-2" x1="13.08" y1="85.39" x2="178.25" y2="85.39" gradientTransform="matrix(1, 0, 0, 1, 0, 0)" gradientUnits="userSpaceOnUse"><stop offset="0" stop-color="#ffae9e"/><stop offset=".2" stop-color="#fcae9f"/><stop offset=".35" stop-color="#f2aea4"/><stop offset=".48" stop-color="#e2aeac"/><stop offset=".6" stop-color="#ccaeb7"/><stop offset=".71" stop-color="#aeafc6"/><stop offset=".82" stop-color="#8bafd8"/><stop offset=".92" stop-color="#61b0ed"/><stop offset=".99" stop-color="#3fb1ff"/></linearGradient></defs><g id="Layer_1-2"><g><path class="cls-1" d="M191.23,42.68v116.55c0,15.47-11.87,28-26.51,28H26.61C11.97,187.23,.1,174.69,.1,159.23V42.68c0-.41,0-.82,.03-1.22-.03-.23-.06-.47-.08-.71-.03-.26-.07-.93,0-1.78,.85-10.35,5.47-18.23,5.47-18.23C13.24,7.54,26.26,3.28,29.93,2.06c1.73-.57,3.42-1.01,5.05-1.33-.1,3.34-.4,8.38-1.49,13.95h123.82c-1.06-5.5-1.36-10.47-1.45-13.79,1.63,.32,3.32,.76,5.05,1.33,3.67,1.22,16.69,5.48,24.42,18.68,0,0,3.56,6.09,5.01,14.58,.58,2.29,.88,4.71,.88,7.2Z"/><rect class="cls-4" x="13.08" width="165.17" height="170.78" rx="26.45" ry="26.45"/><path class="cls-2" d="M80.24,75.42c-1.37-1.67-3.06-2.95-5.05-3.85-2-.89-4.31-1.34-6.93-1.34s-5.05,.51-7.29,1.52c-2.24,1.01-4.18,2.43-5.81,4.25-1.64,1.82-2.92,3.98-3.85,6.49-.92,2.5-1.39,5.22-1.39,8.14s.46,5.71,1.39,8.19c.92,2.47,2.19,4.62,3.8,6.44,1.61,1.82,3.5,3.24,5.68,4.25,2.18,1.02,4.52,1.52,7.02,1.52,2.86,0,5.4-.6,7.6-1.79,2.21-1.19,4.03-2.86,5.46-5.01l11.63,8.68c-2.68,3.76-6.08,6.53-10.2,8.32s-8.35,2.68-12.7,2.68c-4.95,0-9.51-.78-13.69-2.33-4.17-1.55-7.78-3.77-10.82-6.66s-5.41-6.4-7.11-10.51c-1.7-4.12-2.55-8.71-2.55-13.78s.85-9.66,2.55-13.78c1.7-4.12,4.07-7.62,7.11-10.51,3.04-2.89,6.65-5.11,10.82-6.66,4.17-1.55,8.74-2.33,13.69-2.33,1.79,0,3.65,.16,5.59,.49,1.94,.33,3.85,.85,5.72,1.57,1.88,.72,3.68,1.67,5.41,2.86,1.73,1.19,3.28,2.65,4.65,4.38l-10.74,8.77Z"/></g><g><path d="M288.3,53.99c6.48-11.95,15.33-21.26,26.54-27.94,11.21-6.67,23.79-10.01,37.72-10.01,16.3,0,30.58,4.4,42.85,13.2,12.26,8.8,20.83,20.98,25.71,36.52h-33.65c-3.34-7.33-8.05-12.83-14.11-16.5-6.06-3.66-13.06-5.5-21-5.5-8.5,0-16.06,2.09-22.68,6.27-6.62,4.18-11.78,10.09-15.47,17.71-3.69,7.63-5.54,16.58-5.54,26.84s1.84,19.03,5.54,26.73c3.69,7.7,8.85,13.64,15.47,17.82,6.62,4.18,14.18,6.27,22.68,6.27,7.94,0,14.94-1.87,21-5.61s10.76-9.27,14.11-16.61h33.65c-4.88,15.7-13.41,27.91-25.6,36.63-12.19,8.73-26.51,13.09-42.95,13.09-13.93,0-26.51-3.33-37.72-10.01-11.22-6.67-20.06-15.95-26.54-27.83-6.48-11.88-9.72-25.37-9.72-40.48s3.24-28.63,9.72-40.59Z"/><path d="M467.52,165.75c-8.92-5.2-15.92-12.57-21-22.11-5.09-9.53-7.63-20.53-7.63-33s2.61-23.46,7.84-33c5.22-9.53,12.36-16.9,21.42-22.11,9.06-5.2,19.16-7.81,30.3-7.81s21.25,2.61,30.31,7.81c9.05,5.21,16.2,12.58,21.42,22.11,5.22,9.54,7.84,20.54,7.84,33s-2.68,23.47-8.05,33c-5.37,9.54-12.61,16.91-21.74,22.11-9.13,5.21-19.33,7.81-30.62,7.81s-21.18-2.6-30.1-7.81Zm45.04-23.1c4.67-2.71,8.39-6.78,11.18-12.21,2.79-5.42,4.18-12.02,4.18-19.8,0-11.58-2.89-20.49-8.67-26.73-5.78-6.23-12.85-9.35-21.21-9.35s-15.36,3.12-21,9.35c-5.64,6.24-8.46,15.15-8.46,26.73s2.75,20.5,8.25,26.73c5.5,6.24,12.44,9.35,20.8,9.35,5.29,0,10.27-1.35,14.94-4.07Z"/><path d="M579.02,77.42c4.67-9.53,11.04-16.86,19.12-22,8.08-5.13,17.07-7.7,26.96-7.7,7.52,0,14.7,1.73,21.53,5.17,6.83,3.45,12.26,8.03,16.3,13.75V8.78h29.68V171.58h-29.68v-18.04c-3.62,6.02-8.71,10.86-15.26,14.52-6.55,3.66-14.14,5.5-22.78,5.5-9.75,0-18.67-2.64-26.75-7.92-8.08-5.28-14.46-12.72-19.12-22.33-4.67-9.6-7-20.64-7-33.11s2.33-23.24,7-32.78Zm79.94,13.97c-2.79-5.35-6.55-9.46-11.29-12.32-4.74-2.86-9.82-4.29-15.26-4.29s-10.45,1.4-15.05,4.18c-4.6,2.79-8.33,6.86-11.18,12.21-2.86,5.36-4.28,11.7-4.28,19.03s1.43,13.75,4.28,19.25c2.85,5.5,6.62,9.72,11.29,12.65,4.67,2.94,9.65,4.4,14.94,4.4s10.52-1.43,15.26-4.29c4.74-2.86,8.5-6.96,11.29-12.32,2.79-5.35,4.18-11.77,4.18-19.25s-1.39-13.89-4.18-19.25Z"/><path d="M828.04,119.88h-84.64c.7,8.8,3.62,15.7,8.78,20.68,5.15,4.99,11.5,7.48,19.02,7.48,10.87,0,18.6-4.91,23.2-14.74h31.56c-3.34,11.74-9.75,21.38-19.23,28.93-9.48,7.56-21.11,11.33-34.9,11.33-11.15,0-21.14-2.6-29.99-7.81-8.85-5.2-15.75-12.57-20.69-22.11-4.95-9.53-7.42-20.53-7.42-33s2.44-23.68,7.31-33.22c4.88-9.53,11.7-16.86,20.48-22,8.78-5.13,18.88-7.7,30.3-7.7s20.86,2.5,29.57,7.48c8.71,4.99,15.47,12.07,20.27,21.23,4.81,9.17,7.21,19.69,7.21,31.57,0,4.4-.28,8.36-.84,11.88Zm-29.47-20.68c-.14-7.92-2.86-14.26-8.15-19.03-5.3-4.76-11.78-7.15-19.44-7.15-7.25,0-13.34,2.31-18.29,6.93-4.95,4.62-7.98,11.04-9.09,19.25h54.97Z"/><path class="cls-3" d="M879.45,18.02V171.58h-29.26V18.02h29.26Z"/><path class="cls-3" d="M1007.57,18.02v24.86h-38.87V171.58h-29.26V42.88h-38.87V18.02h107.01Z"/></g></g></svg>