<?xml version="1.0" encoding="UTF-8"?><svg id="Layer_2" xmlns="http://www.w3.org/2000/svg" xmlns:xlink="http://www.w3.org/1999/xlink" viewBox="0 0 964.69 198.47"><defs><style>.cls-1{fill:url(#linear-gradient);}.cls-2{fill:#fff;}.cls-3{fill:#fcb6a6;}.cls-4{fill:url(#linear-gradient-2);}</style><linearGradient id="linear-gradient" x1="0" y1="105.21" x2="191.23" y2="105.21" gradientTransform="matrix(1, 0, 0, 1, 0, 0)" gradientUnits="userSpaceOnUse"><stop offset=".26" stop-color="#ff9d87"/><stop offset=".32" stop-color="#f59a87"/><stop offset=".43" stop-color="#dc9389"/><stop offset=".56" stop-color="#b2898b"/><stop offset=".71" stop-color="#787a8f"/><stop offset=".89" stop-color="#306793"/><stop offset=".99" stop-color="#005b97"/><stop offset="1" stop-color="#0075be"/></linearGradient><linearGradient id="linear-gradient-2" x1="13.08" y1="96.62" x2="178.25" y2="96.62" gradientTransform="matrix(1, 0, 0, 1, 0, 0)" gradientUnits="userSpaceOnUse"><stop offset="0" stop-color="#ffae9e"/><stop offset=".2" stop-color="#fcae9f"/><stop offset=".35" stop-color="#f2aea4"/><stop offset=".48" stop-color="#e2aeac"/><stop offset=".6" stop-color="#ccaeb7"/><stop offset=".71" stop-color="#aeafc6"/><stop offset=".82" stop-color="#8bafd8"/><stop offset=".92" stop-color="#61b0ed"/><stop offset=".99" stop-color="#3fb1ff"/></linearGradient></defs><g id="Layer_1-2"><g><path class="cls-1" d="M191.23,53.92v116.55c0,15.47-11.87,28-26.51,28H26.61C11.97,198.47,.1,185.93,.1,170.46V53.92c0-.41,0-.82,.03-1.22-.03-.23-.06-.47-.08-.71-.03-.26-.07-.93,0-1.78,.85-10.35,5.47-18.23,5.47-18.23C13.24,18.77,26.26,14.51,29.93,13.29c1.73-.57,3.42-1.01,5.05-1.33-.1,3.34-.4,8.38-1.49,13.95h123.82c-1.06-5.5-1.36-10.47-1.45-13.79,1.63,.32,3.32,.76,5.05,1.33,3.67,1.22,16.69,5.48,24.42,18.68,0,0,3.56,6.09,5.01,14.58,.58,2.29,.88,4.71,.88,7.2Z"/><rect class="cls-4" x="13.08" y="11.24" width="165.17" height="170.78" rx="26.45" ry="26.45"/><path class="cls-2" d="M80.24,86.66c-1.37-1.67-3.06-2.95-5.05-3.85-2-.89-4.31-1.34-6.93-1.34s-5.05,.51-7.29,1.52c-2.24,1.01-4.18,2.43-5.81,4.25-1.64,1.82-2.92,3.98-3.85,6.49-.93,2.51-1.39,5.22-1.39,8.14s.46,5.71,1.39,8.19c.92,2.47,2.19,4.62,3.8,6.44,1.61,1.82,3.5,3.24,5.68,4.25,2.18,1.02,4.52,1.52,7.02,1.52,2.86,0,5.4-.6,7.6-1.79,2.21-1.19,4.03-2.86,5.46-5.01l11.63,8.68c-2.68,3.76-6.08,6.53-10.2,8.32s-8.35,2.68-12.7,2.68c-4.95,0-9.51-.78-13.69-2.33-4.18-1.55-7.78-3.77-10.82-6.66s-5.41-6.4-7.11-10.51-2.55-8.71-2.55-13.78,.85-9.66,2.55-13.78c1.7-4.12,4.07-7.62,7.11-10.51s6.65-5.11,10.82-6.67c4.17-1.55,8.74-2.33,13.69-2.33,1.79,0,3.65,.16,5.59,.49,1.94,.33,3.85,.85,5.73,1.57,1.88,.72,3.68,1.67,5.41,2.86,1.73,1.19,3.28,2.65,4.65,4.38l-10.73,8.77Z"/></g><g><path d="M287.13,82c5.1-9.89,12.16-17.56,21.19-23,9.03-5.44,19.37-8.17,31.03-8.17,15,0,27.42,3.95,37.25,11.85,9.83,7.9,16.42,18.97,19.77,33.23h-32.99c-1.75-5.52-4.7-9.85-8.85-12.99-4.15-3.14-9.29-4.72-15.4-4.72-8.74,0-15.66,3.33-20.76,10-5.1,6.67-7.65,16.14-7.65,28.41s2.55,21.5,7.65,28.17c5.1,6.67,12.02,10,20.76,10,12.38,0,20.46-5.83,24.25-17.48h32.99c-3.35,13.8-9.98,24.76-19.88,32.89-9.91,8.13-22.29,12.19-37.15,12.19-11.66,0-22-2.72-31.03-8.17-9.03-5.44-16.1-13.11-21.19-23-5.1-9.89-7.65-21.43-7.65-34.62s2.55-24.73,7.65-34.62Z"/><path d="M441.17,174.23c-9.32-5.44-16.64-13.15-21.96-23.12-5.32-9.97-7.98-21.47-7.98-34.5s2.73-24.53,8.19-34.5c5.46-9.97,12.93-17.67,22.4-23.12,9.47-5.44,20.03-8.17,31.68-8.17s22.21,2.72,31.68,8.17c9.47,5.44,16.93,13.15,22.4,23.12,5.46,9.97,8.19,21.47,8.19,34.5s-2.81,24.53-8.41,34.5c-5.61,9.97-13.19,17.67-22.72,23.12-9.54,5.44-20.21,8.17-32.01,8.17s-22.14-2.72-31.46-8.17Zm47.09-24.15c4.88-2.83,8.77-7.09,11.69-12.76,2.91-5.67,4.37-12.57,4.37-20.7,0-12.11-3.02-21.43-9.07-27.94-6.05-6.52-13.44-9.78-22.18-9.78s-16.06,3.26-21.96,9.78c-5.9,6.52-8.85,15.83-8.85,27.94s2.87,21.43,8.63,27.95c5.75,6.52,13,9.77,21.74,9.77,5.53,0,10.74-1.42,15.62-4.25Z"/><path d="M557.74,81.88c4.88-9.97,11.54-17.63,19.99-23,8.45-5.37,17.84-8.05,28.19-8.05,7.87,0,15.37,1.8,22.5,5.41,7.14,3.6,12.82,8.4,17.04,14.38V10.12h31.03V180.32h-31.03v-18.86c-3.79,6.29-9.11,11.35-15.95,15.18-6.85,3.83-14.79,5.75-23.82,5.75-10.2,0-19.52-2.76-27.97-8.28-8.45-5.52-15.11-13.3-19.99-23.34-4.88-10.04-7.32-21.58-7.32-34.62s2.44-24.3,7.32-34.27Zm83.58,14.6c-2.92-5.6-6.85-9.89-11.8-12.88-4.95-2.99-10.27-4.49-15.95-4.49s-10.93,1.46-15.73,4.37c-4.81,2.91-8.71,7.17-11.69,12.77-2.99,5.6-4.48,12.23-4.48,19.89s1.49,14.38,4.48,20.12c2.98,5.75,6.92,10.16,11.8,13.22,4.88,3.07,10.08,4.6,15.62,4.6s11-1.5,15.95-4.49c4.95-2.99,8.88-7.28,11.8-12.88,2.91-5.6,4.37-12.3,4.37-20.12s-1.46-14.53-4.37-20.12Z"/><path d="M818.08,126.27h-88.49c.73,9.2,3.79,16.41,9.18,21.62,5.39,5.21,12.02,7.82,19.88,7.82,11.36,0,19.45-5.13,24.25-15.41h32.99c-3.5,12.27-10.2,22.35-20.1,30.24-9.91,7.9-22.07,11.85-36.49,11.85-11.66,0-22.11-2.72-31.35-8.17-9.25-5.44-16.46-13.15-21.63-23.12-5.17-9.97-7.76-21.47-7.76-34.5s2.55-24.76,7.65-34.73c5.1-9.97,12.24-17.63,21.41-23,9.18-5.37,19.74-8.05,31.68-8.05s21.81,2.61,30.92,7.82c9.1,5.21,16.17,12.61,21.19,22.2,5.03,9.58,7.54,20.58,7.54,33,0,4.6-.29,8.74-.87,12.42Zm-30.81-21.62c-.15-8.28-2.99-14.91-8.52-19.89-5.54-4.98-12.31-7.48-20.32-7.48-7.58,0-13.95,2.42-19.12,7.25-5.17,4.83-8.34,11.54-9.5,20.12h57.47Z"/><path class="cls-3" d="M843.31,32.32c-3.57-3.6-5.35-8.09-5.35-13.46s1.78-9.85,5.35-13.46c3.57-3.6,8.05-5.41,13.44-5.41s9.87,1.8,13.44,5.41c3.57,3.6,5.35,8.09,5.35,13.46s-1.79,9.85-5.35,13.46c-3.57,3.6-8.05,5.41-13.44,5.41s-9.87-1.8-13.44-5.41Zm28.51,20.58v127.42h-30.59V52.9h30.59Z"/><path class="cls-3" d="M937.6,79.35v61.64c0,4.29,.98,7.4,2.95,9.32,1.97,1.92,5.28,2.88,9.94,2.88h14.2v27.14h-19.23c-25.78,0-38.67-13.19-38.67-39.56v-61.41h-14.42v-26.45h14.42V21.39h30.81v31.51h27.09v26.45h-27.09Z"/></g></g></svg>