<svg xmlns="http://www.w3.org/2000/svg" xmlns:xlink="http://www.w3.org/1999/xlink" viewBox="0 0 1111.23 360.88"><defs><style>.cls-1{fill:url(#linear-gradient);}.cls-2{fill:url(#linear-gradient-2);}.cls-3{font-size:89.46px;fill:#fff;font-family:Avenir-Black, Avenir;font-weight:800;}.cls-4{font-size:250px;font-family:Poppins-SemiBold, Poppins;font-weight:600;}.cls-5{fill:#fcb6a6;}</style><linearGradient id="linear-gradient" y1="133.51" x2="191.23" y2="133.51" gradientUnits="userSpaceOnUse"><stop offset="0.26" stop-color="#ff9d87"/><stop offset="0.32" stop-color="#f69b88"/><stop offset="0.43" stop-color="#dc9489"/><stop offset="0.56" stop-color="#b2898c"/><stop offset="0.71" stop-color="#797a8f"/><stop offset="0.89" stop-color="#306794"/><stop offset="0.99" stop-color="#005b97"/><stop offset="1" stop-color="#0075be"/></linearGradient><linearGradient id="linear-gradient-2" x1="13.08" y1="124.92" x2="178.25" y2="124.92" gradientUnits="userSpaceOnUse"><stop offset="0" stop-color="#ffae9e"/><stop offset="0.2" stop-color="#fcae9f"/><stop offset="0.35" stop-color="#f3aea4"/><stop offset="0.48" stop-color="#e3aeac"/><stop offset="0.6" stop-color="#ccafb8"/><stop offset="0.71" stop-color="#afafc6"/><stop offset="0.82" stop-color="#8bb0d9"/><stop offset="0.92" stop-color="#61b0ee"/><stop offset="0.99" stop-color="#3fb1ff"/></linearGradient></defs><g id="Layer_2" data-name="Layer 2"><g id="Layer_1-2" data-name="Layer 1"><path class="cls-1" d="M191.23,82.21V198.76c0,15.46-11.87,28-26.51,28H26.61C12,226.76.1,214.22.1,198.76V82.21c0-.41,0-.82,0-1.22,0-.23-.06-.47-.08-.71A9.93,9.93,0,0,1,0,78.5,47.5,47.5,0,0,1,5.51,60.27c7.73-13.2,20.75-17.46,24.42-18.68a44.12,44.12,0,0,1,5-1.34,87.29,87.29,0,0,1-1.48,14H157.32a85.83,85.83,0,0,1-1.45-13.78,42,42,0,0,1,5,1.33c3.67,1.22,16.69,5.48,24.42,18.68a47.69,47.69,0,0,1,5,14.58A29.89,29.89,0,0,1,191.23,82.21Z"/><rect class="cls-2" x="13.08" y="39.53" width="165.17" height="170.78" rx="26.45"/><text class="cls-3" transform="translate(32.38 161.83)">C</text><text class="cls-4" transform="translate(249.27 212.62) scale(0.93 1)">code<tspan class="cls-5" x="633.74" y="0">it</tspan></text></g></g></svg>
