<svg width="116" height="116" viewBox="0 0 116 116" fill="none" xmlns="http://www.w3.org/2000/svg">
<path d="M58 115C89.4802 115 115 89.4802 115 58C115 26.5198 89.4802 1 58 1C26.5198 1 1 26.5198 1 58C1 89.4802 26.5198 115 58 115Z" stroke="#22AE73" stroke-width="2" stroke-dasharray="480 480"/>
<path d="M58 115C89.4802 115 115 89.4802 115 58C115 26.5198 89.4802 1 58 1C26.5198 1 1 26.5198 1 58C1 89.4802 26.5198 115 58 115Z" fill="#22AE73" stroke="#22AE73" stroke-width="2" stroke-dasharray="480 480"/>
<path d="M31.4792 58.6333L47.4708 74.5458L85.8667 36.15" stroke="white" stroke-width="10" stroke-dasharray="100 100"/>
</svg>
