<svg  viewBox="0 0 137 104" fill="none" xmlns="http://www.w3.org/2000/svg">
<g clip-path="url(#clip0_246_1515)">
<path opacity="0.18" d="M15.1253 48.6122C11.2446 53.2801 7.13555 58.6091 7.53266 64.6877C7.84893 69.5066 11.0092 73.8416 10.9616 78.6628C10.9141 83.4841 7.63254 88.0035 8.34591 92.7936C9.14013 98.2303 14.7401 101.593 20.0452 102.884C31.2452 105.609 42.9184 102.644 54.4037 101.734C63.221 101.037 72.0835 101.569 80.9103 102.101L105.71 103.586C109.039 103.787 112.487 103.971 115.599 102.769C118.453 101.67 120.757 99.5021 122.733 97.1765C127.063 92.1086 130.314 85.5103 129.298 78.9047C127.66 68.2564 115.759 61.1479 115.076 50.4037C114.853 46.8878 115.825 43.0126 113.921 40.0595C113.171 38.8979 112.051 38.0333 110.889 37.298C103.641 32.7235 94.5667 32.6133 86.0133 32.6468L44.143 32.8049C39.5227 32.8217 31.7446 31.2865 27.6855 33.6528C25.631 34.8479 15.1253 46.3441 15.1253 48.6122Z" fill="#68C0FF"/>
<path opacity="0.1" d="M120.795 82.0231C120.973 84.0469 120.531 85.7737 119.787 86.7102C119.043 87.6466 117.93 88.231 116.779 88.5424C115.628 88.8537 111.892 89.7974 110.703 89.8644C111.859 89.5028 116.306 88.1496 116.886 87.079C117.128 86.5869 117.341 86.0806 117.523 85.5629C117.915 84.569 118.429 79.9178 119.188 79.1538C120.07 78.2724 120.709 81.0411 120.795 82.0231Z" fill="url(#paint0_linear_246_1515)"/>
<path opacity="0.1" d="M71.1633 87.6371C60.5501 86.6694 49.8916 86.2983 39.2374 86.5258C36.2127 86.5928 32.6648 86.4563 30.929 83.9607C32.867 82.4398 35.5017 82.2841 37.9557 82.2003C62.0749 81.3333 84.4463 80.598 108.565 79.731C107.46 78.9239 108.565 76.9528 108.342 75.5948C110.72 74.8619 115.752 75.9995 117.314 77.6641C115.851 76.6079 112.732 76.2271 111.4 76.7755C110.068 77.324 108.989 78.5311 109.714 79.7789C109.928 80.1478 110.273 80.4615 110.33 80.8854C110.425 81.592 109.69 82.1045 109.036 82.3775C103.275 84.7726 96.2693 82.4805 90.7026 85.3139C90.3692 85.457 90.0777 85.6837 89.856 85.9725C89.0285 87.2395 90.9689 88.4825 92.4527 88.734C97.761 89.6394 103.13 90.1375 108.513 90.2237L90.2769 91.0763C90.7977 91.7038 90.5338 92.7193 89.9274 93.263C89.321 93.8067 88.4864 93.9815 87.6874 94.1252C80.9389 95.2868 71.3797 94.8246 65.725 90.2932C67.4442 89.2777 69.3513 88.4945 71.1633 87.6371Z" fill="url(#paint1_linear_246_1515)"/>
<path d="M27.3502 26.7694L24.7345 29.7728C24.2779 30.2949 23.7833 30.9128 23.888 31.6026C23.9736 31.9914 24.1646 32.3487 24.4396 32.6349C24.9342 33.2294 25.4987 33.761 26.1208 34.218C27.0006 31.8038 27.6807 29.3249 27.3502 26.7694Z" fill="#6BB3FF"/>
<path d="M27.3835 26.7574L24.7678 29.7608C24.3112 30.2829 23.8166 30.9033 23.9212 31.5906C24.0035 31.9782 24.1903 32.3353 24.461 32.6229C24.9565 33.2166 25.5218 33.7474 26.1446 34.2036C27.0434 31.7918 27.714 29.3153 27.3835 26.7574Z" fill="url(#paint2_linear_246_1515)"/>
<path d="M108.653 0H29.9184V79.5059H108.653V0Z" fill="#6BB3FF"/>
<path d="M108.653 0H29.9184V79.5059H108.653V0Z" fill="url(#paint3_linear_246_1515)"/>
<path d="M31.6833 21.421L17.4006 92.3186L17.89 92.4186L32.1727 21.521L31.6833 21.421Z" fill="#6BB3FF"/>
<path d="M39.3101 21.5913L24.9014 92.6683L25.3907 92.769L39.7994 21.6919L39.3101 21.5913Z" fill="#6BB3FF"/>
<path d="M38.5549 26.0485H30.9218V26.5515H38.5549V26.0485Z" fill="#6BB3FF"/>
<path d="M37.3517 32.0505H29.7186V32.5534H37.3517V32.0505Z" fill="#6BB3FF"/>
<path d="M36.1461 38.0501H28.513V38.553H36.1461V38.0501Z" fill="#6BB3FF"/>
<path d="M34.9405 44.052H27.3074V44.555H34.9405V44.052Z" fill="#6BB3FF"/>
<path d="M33.7349 50.054H26.1018V50.557H33.7349V50.054Z" fill="#6BB3FF"/>
<path d="M32.5293 56.056H24.8962V56.559H32.5293V56.056Z" fill="#6BB3FF"/>
<path d="M31.3261 62.058H23.693V62.561H31.3261V62.058Z" fill="#6BB3FF"/>
<path d="M30.1205 68.06H22.4874V68.5629H30.1205V68.06Z" fill="#6BB3FF"/>
<path d="M28.9149 74.062H21.2818V74.5649H28.9149V74.062Z" fill="#6BB3FF"/>
<path d="M27.7093 80.0639H20.0762V80.5669H27.7093V80.0639Z" fill="#6BB3FF"/>
<path d="M26.5037 86.0635H18.8706V86.5665H26.5037V86.0635Z" fill="#6BB3FF"/>
<path opacity="0.1" d="M40.5167 79.4388L39.8937 22.4032L39.3729 22.3027L39.4205 26.6449H38.0294C38.008 25.8976 37.9058 25.1743 37.6442 24.6857C36.9094 23.3086 35.9797 24.6857 35.7133 25.6078C35.5944 26.0102 35.409 26.4341 35.0499 26.6377H33.6469C33.4826 26.6042 33.3152 26.5881 33.1476 26.5898C33.0441 26.5952 32.9414 26.6104 32.8408 26.6353H32.1274L32.0727 22.2164L31.552 22.1182L31.6186 27.5933C31.5829 27.6508 31.5472 27.7107 31.5163 27.7729C31.1977 28.4028 31.1168 29.1213 31.0407 29.8255C30.3749 36.8741 30.7268 43.973 31.0812 51.0432C31.143 52.267 31.2072 53.5125 31.6233 54.6645C31.7126 54.9132 31.8232 55.1536 31.9538 55.383L32.2535 79.458L40.5167 79.4388ZM39.9959 79.3215L32.7837 79.3047L32.7195 73.9422L39.9365 73.959L39.9959 79.3215ZM39.9317 73.468L32.7076 73.4512L32.6411 68.0887L39.8675 68.1079L39.9317 73.468ZM39.8675 67.6169L32.6411 67.5905L32.5745 62.228L39.8081 62.2472L39.8675 67.6169ZM39.8033 61.7634L32.5673 61.7442L32.5008 56.3817H32.9763C33.0427 56.4175 33.1109 56.4495 33.1808 56.4775C33.3862 56.5485 33.6037 56.577 33.8202 56.5614C34.0367 56.5457 34.2479 56.4863 34.4411 56.3865H39.7486L39.8033 61.7634ZM39.7391 55.9099H34.9643C35.0316 55.7953 35.0752 55.6682 35.0927 55.5363C35.1593 55.0357 34.8834 54.5663 34.6956 54.0993C34.2462 52.9784 34.2913 51.7425 34.5577 50.5474L39.6821 50.5594L39.7391 55.9099ZM39.6749 50.0564H34.6813C34.7669 49.7427 34.8668 49.4337 34.9738 49.1319C35.5064 47.6518 36.2293 46.2291 36.5813 44.7011H39.6179L39.6749 50.0564ZM39.6036 44.2029H36.6764C36.976 42.4426 36.7406 40.6104 36.8523 38.8404H39.5465L39.6036 44.2029ZM39.5394 38.3494H36.8952C36.9382 37.9215 37.0121 37.4972 37.1163 37.0801C37.2732 36.4765 37.5063 35.8825 37.6038 35.2718C37.6822 34.5121 37.6678 33.7455 37.561 32.9893H39.4823L39.5394 38.3494ZM39.4181 27.1358L39.4776 32.4984H37.5229C37.5035 32.2402 37.4972 31.9812 37.5039 31.7224C37.5372 30.7979 37.7916 29.8949 37.8986 28.9752C37.9732 28.3656 38.016 27.7524 38.027 27.1382L39.4181 27.1358Z" fill="url(#paint4_linear_246_1515)"/>
<g opacity="0.74">
<path d="M54.0209 3.30516H38.6215V4.92421H54.0209V3.30516Z" fill="#6BB3FF"/>
<path d="M48.0214 6.44027H38.6215V7.96352H48.0214V6.44027Z" fill="#6BB3FF"/>
<path opacity="0.54" d="M81.3907 6.44027H51.8118V7.9731H81.3907V6.44027Z" fill="#6BB3FF"/>
<path d="M100.809 6.44027H84.1586V7.9731H100.809V6.44027Z" fill="#6BB3FF"/>
<path d="M56.4345 9.57539H43.5105V11.1825H56.4345V9.57539Z" fill="#6BB3FF"/>
<path opacity="0.48" d="M51.8998 21.6249H43.5105V23.4331H51.8998V21.6249Z" fill="#6BB3FF"/>
<path d="M70.2192 27.1526H66.6761V28.9537H70.2192V27.1526Z" fill="#6BB3FF"/>
<path d="M51.8998 24.3217H43.5105V26.1299H51.8998V24.3217Z" fill="#6BB3FF"/>
<path d="M51.8998 56.9589H43.5105V58.7672H51.8998V56.9589Z" fill="#6BB3FF"/>
<path d="M56.6746 42.0234H48.2854V43.8317H56.6746V42.0234Z" fill="#6BB3FF"/>
<path opacity="0.48" d="M56.6746 44.9909H48.2854V46.7992H56.6746V44.9909Z" fill="#6BB3FF"/>
<path d="M56.6746 50.6552H48.2854V52.4634H56.6746V50.6552Z" fill="#6BB3FF"/>
<path d="M56.6746 53.6226H48.2854V55.4309H56.6746V53.6226Z" fill="#6BB3FF"/>
<path d="M67.1208 44.9909H58.7315V46.7992H67.1208V44.9909Z" fill="#6BB3FF"/>
<path opacity="0.48" d="M67.1208 53.5316H58.7315V55.3399H67.1208V53.5316Z" fill="#6BB3FF"/>
<path d="M81.8591 56.9589H54.6249V58.7672H81.8591V56.9589Z" fill="#6BB3FF"/>
<path d="M63.0593 12.7105H47.66V14.3295H63.0593V12.7105Z" fill="#6BB3FF"/>
<path opacity="0.52" d="M76.9725 12.7105H64.0652V14.5092H76.9725V12.7105Z" fill="#6BB3FF"/>
<path d="M59.5305 15.848H47.6386V17.3713H59.5305V15.848Z" fill="#6BB3FF"/>
<path opacity="0.48" d="M65.0259 27.3562H47.6386V28.7765H65.0259V27.3562Z" fill="#6BB3FF"/>
<path d="M105.771 15.848H93.8795V17.3713H105.771V15.848Z" fill="#6BB3FF"/>
<path d="M85.212 15.848H60.6719V17.5365H85.212V15.848Z" fill="#6BB3FF"/>
<path d="M92.9521 15.848H87.5423V17.5653H92.9521V15.848Z" fill="#6BB3FF"/>
<path opacity="0.48" d="M74.4067 18.9831H47.5934V20.4944H74.4067V18.9831Z" fill="#6BB3FF"/>
<path d="M65.2779 60.118H47.5934V61.6963H65.2779V60.118Z" fill="#6BB3FF"/>
<path d="M67.7462 30.7835H52.3468V32.4025H67.7462V30.7835Z" fill="#6BB3FF"/>
<path opacity="0.48" d="M67.7462 38.965H52.3468V40.584H67.7462V38.965Z" fill="#6BB3FF"/>
<path d="M61.6992 71.6046H52.3468V73.171H61.6992V71.6046Z" fill="#6BB3FF"/>
<path d="M54.4655 74.6392H48.1308V76.0858H54.4655V74.6392Z" fill="#6BB3FF"/>
<path d="M61.8418 62.7022H52.3468V64.3213H61.8418V62.7022Z" fill="#6BB3FF"/>
<path d="M73.2915 62.7022H63.7965V64.3213H73.2915V62.7022Z" fill="#6BB3FF"/>
<path d="M66.1958 65.6697H56.7008V67.2888H66.1958V65.6697Z" fill="#6BB3FF"/>
<path d="M77.6431 65.6697H68.1481V67.2888H77.6431V65.6697Z" fill="#6BB3FF"/>
<path d="M69.727 68.7042H56.7008V70.3233H69.727V68.7042Z" fill="#6BB3FF"/>
<path d="M75.2438 68.7042H71.7649V70.3233H75.2438V68.7042Z" fill="#6BB3FF"/>
<path d="M60.0489 47.8673H52.3468V49.4145H60.0489V47.8673Z" fill="#6BB3FF"/>
<path d="M67.7486 36.0885H57.0289V37.5303H67.7486V36.0885Z" fill="#6BB3FF"/>
<path d="M81.317 36.0885H70.5973V37.5303H81.317V36.0885Z" fill="#6BB3FF"/>
<path d="M81.317 44.8113H70.5973V46.2531H81.317V44.8113Z" fill="#6BB3FF"/>
<path d="M94.172 36.0885H83.4523V37.5303H94.172V36.0885Z" fill="#6BB3FF"/>
<path d="M94.1719 68.7713H76.5088V70.2131H94.1719V68.7713Z" fill="#6BB3FF"/>
<path opacity="0.48" d="M85.9586 30.7835H70.5593V32.4025H85.9586V30.7835Z" fill="#6BB3FF"/>
<path d="M72.7469 33.2121H57.3476V34.8311H72.7469V33.2121Z" fill="#6BB3FF"/>
<path opacity="0.48" d="M90.957 33.2121H75.5576V34.8311H90.957V33.2121Z" fill="#6BB3FF"/>
<path d="M103.298 30.7835H87.899V32.4025H103.298V30.7835Z" fill="#6BB3FF"/>
</g>
<path d="M36.2912 20.8872C36.2454 20.7467 36.2252 20.599 36.2317 20.4513C36.2413 20.3878 36.2413 20.3232 36.2317 20.2597C36.1966 20.1702 36.1441 20.0888 36.0771 20.0202C36.0019 19.9186 35.9525 19.8 35.9334 19.6747C35.9144 19.5494 35.9262 19.4213 35.9678 19.3017C36.1318 19.2681 36.1889 19.1388 36.246 18.9831C36.2861 18.8214 36.3528 18.6676 36.4433 18.5281C36.4532 18.513 36.4661 18.5003 36.4813 18.4908C36.4965 18.4813 36.5136 18.4752 36.5313 18.473C36.5507 18.4749 36.5692 18.4819 36.585 18.4932C36.6009 18.5046 36.6135 18.5199 36.6217 18.5376C36.6907 18.6766 36.6003 18.8658 36.693 18.9879C36.7477 19.055 36.8428 19.0765 36.9094 19.1292C37.0521 19.237 37.0592 19.4573 37.1853 19.5795C37.215 19.6027 37.2422 19.6292 37.2661 19.6585C37.2924 19.7067 37.3024 19.7622 37.2946 19.8166C37.2803 20.0298 37.207 20.2347 37.083 20.4082C36.9626 20.5297 36.8757 20.6808 36.8309 20.8465C36.8318 20.8982 36.8254 20.9498 36.8119 20.9997C36.7902 21.0419 36.7546 21.0752 36.7113 21.094C36.6679 21.1127 36.6195 21.1158 36.5741 21.1027C36.4862 21.0812 36.3649 20.9327 36.2912 20.8872Z" fill="url(#paint5_linear_246_1515)"/>
<path d="M31.6518 26.6736C31.5856 26.5817 31.5053 26.5009 31.4141 26.4341C31.2651 26.3379 31.0886 26.2941 30.9123 26.3096C30.7378 26.3266 30.5646 26.3554 30.3939 26.3958C29.6473 26.5347 28.8816 26.3599 28.123 26.3958C27.2717 26.4461 26.9531 27.3538 26.8033 27.7179C26.5103 28.4196 26.3228 29.1615 26.2469 29.9189C26.2112 30.2782 26.2017 30.6374 26.1922 31.0015C26.1494 32.4696 26.0519 33.9234 26.1089 35.3916L26.204 37.801C26.1934 37.9457 26.2311 38.0898 26.3111 38.2105C26.3988 38.2983 26.5106 38.3575 26.6321 38.3806C27.9756 38.771 29.3928 38.7806 30.791 38.7806C31.5044 38.7806 32.3177 38.7374 32.7885 38.1962C33.3069 37.5974 33.1713 36.6945 33.062 35.9089C32.6601 32.8959 33.4733 29.0974 31.6518 26.6736Z" fill="#6BB3FF"/>
<path d="M31.6518 26.6736C31.5856 26.5817 31.5053 26.5009 31.4141 26.4341C31.2651 26.3379 31.0886 26.2941 30.9123 26.3096C30.7378 26.3266 30.5646 26.3554 30.3939 26.3958C29.6473 26.5347 28.8816 26.3599 28.123 26.3958C27.2717 26.4461 26.9531 27.3538 26.8033 27.7179C26.5103 28.4196 26.3228 29.1615 26.2469 29.9189C26.2112 30.2782 26.2017 30.6374 26.1922 31.0015C26.1494 32.4696 26.0519 33.9234 26.1089 35.3916L26.204 37.801C26.1934 37.9457 26.2311 38.0898 26.3111 38.2105C26.3988 38.2983 26.5106 38.3575 26.6321 38.3806C27.9756 38.771 29.3928 38.7806 30.791 38.7806C31.5044 38.7806 32.3177 38.7374 32.7885 38.1962C33.3069 37.5974 33.1713 36.6945 33.062 35.9089C32.6601 32.8959 33.4733 29.0974 31.6518 26.6736Z" fill="url(#paint6_linear_246_1515)"/>
<path d="M30.715 25.5719C30.8901 25.4464 31.0348 25.2826 31.1382 25.0929C31.2064 24.9104 31.2301 24.7141 31.2072 24.5205C31.1937 24.2133 31.1124 23.9131 30.9694 23.6415C30.8971 23.5062 30.7975 23.3875 30.6772 23.2931C30.5568 23.1987 30.4182 23.1305 30.2703 23.093C29.7947 22.9948 29.3048 23.3325 29.0813 23.7588C28.8773 24.2091 28.7804 24.7012 28.7984 25.1959C28.7817 25.8162 28.3085 26.7646 28.8863 26.9826C29.5545 27.234 30.0753 26.5036 30.1871 26.1826C30.2993 25.931 30.483 25.7185 30.715 25.5719V25.5719Z" fill="url(#paint7_linear_246_1515)"/>
<path d="M30.929 22.3961C30.9263 22.6085 30.8645 22.816 30.7506 22.9948C30.6514 23.1906 30.5318 23.3753 30.3939 23.5457C30.2981 23.641 30.2179 23.7509 30.1561 23.8714C30.1047 24.0799 30.1231 24.2996 30.2085 24.4965C30.1062 24.5492 30.0087 24.3145 29.9136 24.3792C29.8961 24.3951 29.8836 24.4159 29.8779 24.439C29.8548 24.5131 29.8521 24.5921 29.8701 24.6676C29.8881 24.7432 29.9262 24.8123 29.9802 24.8677C30.0118 24.8931 30.0378 24.9249 30.0563 24.9612C30.0848 25.0354 30.023 25.112 29.9944 25.1863C29.9231 25.3683 30.0491 25.591 29.954 25.7611C29.9054 25.8236 29.8422 25.8729 29.77 25.9047C29.6977 25.9365 29.6188 25.9497 29.5403 25.9431C29.262 25.9623 28.9838 25.9695 28.7056 25.9623C28.6489 25.966 28.5923 25.9545 28.5415 25.9288C28.5056 25.8995 28.4758 25.8632 28.4542 25.822C28.4325 25.7808 28.4194 25.7357 28.4155 25.6892C28.2533 24.9995 28.1735 24.2928 28.1777 23.584C28.1605 23.3748 28.2088 23.1654 28.3156 22.9852C28.3989 22.8727 28.5201 22.7984 28.6081 22.6954C28.6961 22.5925 28.7817 22.3961 28.8982 22.2667C29.0726 22.1064 29.2872 21.997 29.5189 21.9506C29.9778 21.8284 30.8766 21.6536 30.929 22.3961Z" fill="#3F3D56"/>
<path d="M26.1612 44.2221C26.2044 44.5845 26.2131 44.9502 26.1874 45.3142C26.1462 45.6058 26.0809 45.8934 25.9924 46.1741C25.6945 47.3119 25.3163 48.4268 24.8605 49.5103C24.5324 50.2289 24.1305 50.9474 23.8689 51.6946C23.5978 52.5806 23.4232 53.4937 23.3482 54.4178C23.5784 54.3567 23.7833 54.2233 23.9331 54.037C26.0422 51.8907 27.8165 49.4351 29.1955 46.7537C29.5087 46.1873 29.7484 45.5828 29.9088 44.955C30.0087 44.422 30.0589 43.8807 30.0586 43.3383C30.1197 42.1689 30.1023 40.9966 30.0063 39.8296C29.9635 39.4224 29.8684 38.965 29.5308 38.7494C29.3591 38.6571 29.1688 38.6055 28.9743 38.5985C28.3252 38.5387 27.6617 38.5985 27.0221 38.4548C26.7843 38.4069 26.4157 38.177 26.2397 38.3303C26.0638 38.4836 26.1612 39.2356 26.1517 39.4416C26.0571 41.0338 26.0603 42.6303 26.1612 44.2221V44.2221Z" fill="#3F3D56"/>
<path d="M26.1612 44.2221C26.2044 44.5845 26.2131 44.9502 26.1874 45.3142C26.1462 45.6058 26.0809 45.8934 25.9924 46.1741C25.6945 47.3119 25.3163 48.4268 24.8605 49.5103C24.5324 50.2289 24.1305 50.9474 23.8689 51.6946C23.5978 52.5806 23.4232 53.4937 23.3482 54.4178C23.5784 54.3567 23.7833 54.2233 23.9331 54.037C26.0422 51.8907 27.8165 49.4351 29.1955 46.7537C29.5087 46.1873 29.7484 45.5828 29.9088 44.955C30.0087 44.422 30.0589 43.8807 30.0586 43.3383C30.1197 42.1689 30.1023 40.9966 30.0063 39.8296C29.9635 39.4224 29.8684 38.965 29.5308 38.7494C29.3591 38.6571 29.1688 38.6055 28.9743 38.5985C28.3252 38.5387 27.6617 38.5985 27.0221 38.4548C26.7843 38.4069 26.4157 38.177 26.2397 38.3303C26.0638 38.4836 26.1612 39.2356 26.1517 39.4416C26.0571 41.0338 26.0603 42.6303 26.1612 44.2221V44.2221Z" fill="url(#paint8_linear_246_1515)"/>
<path d="M31.0978 47.6039C31.154 48.5216 31.1029 49.4429 30.9456 50.3486L30.3297 54.9998C30.3621 55.0569 30.4058 55.1067 30.4582 55.1461C30.5105 55.1855 30.5703 55.2135 30.6339 55.2286C30.6975 55.2436 30.7635 55.2453 30.8277 55.2336C30.892 55.2218 30.9532 55.1969 31.0074 55.1603C31.2209 55.0038 31.3858 54.7895 31.483 54.5423C32.4175 52.6934 33.3639 50.8085 33.7111 48.7655C33.8573 47.8053 33.917 46.8337 33.8895 45.8627C33.8597 43.4232 33.5824 40.9932 33.062 38.6105C33.0507 38.4964 32.9993 38.3902 32.9169 38.3111C32.8103 38.2546 32.6868 38.2393 32.5697 38.268L30.451 38.5363C29.9445 38.6009 27.4739 38.5243 27.4739 38.5243C27.4739 38.5243 28.3323 40.6511 28.5772 41.3097C29.3215 43.312 31.0978 45.3909 31.0978 47.6039Z" fill="#3F3D56"/>
<path d="M22.8678 54.7795C22.9068 54.8716 22.9662 54.9535 23.0414 55.019C23.5145 55.4863 24.122 55.7914 24.7773 55.8908C24.8633 55.916 24.9544 55.9182 25.0415 55.8972C25.1287 55.8762 25.2089 55.8327 25.2743 55.771C25.3204 55.6964 25.3397 55.6081 25.3289 55.5209C25.318 55.4337 25.2778 55.3529 25.2148 55.292C25.0921 55.1732 24.9475 55.0796 24.7892 55.0166C24.6337 54.9552 24.4921 54.8629 24.3728 54.7452C24.2535 54.6275 24.159 54.4869 24.0948 54.3316C23.7548 53.1915 22.5754 53.843 22.8678 54.7795Z" fill="url(#paint9_linear_246_1515)"/>
<path d="M30.1038 56.0201C30.2229 56.2134 30.4029 56.361 30.6151 56.4392C31.1287 56.6787 31.7065 56.8847 32.263 56.7554C32.4255 56.7278 32.573 56.6429 32.6791 56.5159C32.7301 56.4517 32.7566 56.3714 32.754 56.2893C32.7514 56.2072 32.7198 56.1287 32.6648 56.068C32.5364 55.9506 32.3343 55.9865 32.1607 55.9674C32.0603 55.955 31.9636 55.9213 31.8771 55.8685C31.7906 55.8156 31.7162 55.7448 31.659 55.6608C31.5948 55.565 31.5544 55.4548 31.4949 55.3567C30.9837 54.4896 29.6639 55.1076 30.1038 56.0201Z" fill="url(#paint10_linear_246_1515)"/>
<path d="M22.8274 54.0082C22.874 53.9554 22.9331 53.9154 22.9993 53.892C23.0654 53.8685 23.1364 53.8624 23.2055 53.8741C23.4052 53.922 23.5099 54.1591 23.7001 54.2406C23.7857 54.2765 23.8808 54.2789 23.9688 54.31C24.133 54.3897 24.2788 54.5031 24.3968 54.6429C24.7345 54.9543 25.222 55.1219 25.4455 55.5171C25.4733 55.5562 25.4907 55.6018 25.4961 55.6496C25.5015 55.6974 25.4947 55.7458 25.4764 55.7902C25.4546 55.8201 25.4268 55.8451 25.3949 55.8636C25.363 55.8822 25.3276 55.8939 25.2909 55.8979C25.0365 55.9482 24.7012 56.0392 24.461 55.9386C24.046 55.7745 23.6438 55.5792 23.2578 55.3543C23.0462 55.2249 22.894 54.8752 22.7418 54.6669C22.5563 54.4178 22.6158 54.2286 22.8274 54.0082Z" fill="#3F3D56"/>
<path d="M30.1371 55.2848C30.0729 55.2585 29.9944 55.2249 29.9445 55.2728C29.9332 55.2836 29.9243 55.2966 29.9183 55.3111C29.86 55.4607 29.8495 55.6249 29.8883 55.7808C29.9271 55.9366 30.0132 56.0764 30.1347 56.1806C30.3802 56.3871 30.6594 56.5491 30.9599 56.6596C31.2592 56.8169 31.5796 56.9298 31.911 56.9949C32.0759 57.0259 32.246 57.0111 32.4031 56.952C32.5603 56.8929 32.6984 56.7918 32.8028 56.6596C32.8727 56.5602 32.9025 56.4377 32.886 56.3171C32.836 56.0536 32.5388 55.9387 32.2915 55.8381C31.9776 55.7135 31.7042 55.486 31.3808 55.3854C30.967 55.2489 30.5247 55.4453 30.1371 55.2848Z" fill="#3F3D56"/>
<path d="M31.6328 26.5203L33.5019 25.5839C33.7373 25.4772 33.9599 25.3438 34.1653 25.1863C35.2758 24.2762 35.214 22.5948 35.7894 21.2752C35.818 21.1865 35.8759 21.1104 35.9535 21.0596C36.0217 21.0368 36.0945 21.0319 36.1651 21.0453L36.9189 21.1363L36.3173 25.5934C36.2846 25.9199 36.2144 26.2413 36.1081 26.5515C36.0151 26.7702 35.9004 26.9788 35.7656 27.1742C35.0432 28.266 34.1246 29.2123 33.0572 29.9644C32.9457 30.0553 32.8158 30.1207 32.6767 30.156C32.5128 30.1817 32.3451 30.1505 32.2011 30.0674C31.6851 29.7967 31.4711 29.1692 31.3713 28.592C31.2175 27.8918 31.3099 27.1595 31.6328 26.5203Z" fill="#6BB3FF"/>
<path d="M31.6328 26.5203L33.5019 25.5839C33.7373 25.4772 33.9599 25.3438 34.1653 25.1863C35.2758 24.2762 35.214 22.5948 35.7894 21.2752C35.818 21.1865 35.8759 21.1104 35.9535 21.0596C36.0217 21.0368 36.0945 21.0319 36.1651 21.0453L36.9189 21.1363L36.3173 25.5934C36.2846 25.9199 36.2144 26.2413 36.1081 26.5515C36.0151 26.7702 35.9004 26.9788 35.7656 27.1742C35.0432 28.266 34.1246 29.2123 33.0572 29.9644C32.9457 30.0553 32.8158 30.1207 32.6767 30.156C32.5128 30.1817 32.3451 30.1505 32.2011 30.0674C31.6851 29.7967 31.4711 29.1692 31.3713 28.592C31.2175 27.8918 31.3099 27.1595 31.6328 26.5203Z" fill="url(#paint11_linear_246_1515)"/>
<path d="M108.653 79.5059H29.9184V83.9559H108.653V79.5059Z" fill="#6BB3FF"/>
<path d="M108.653 80.3154H29.9184V83.9559H108.653V80.3154Z" fill="url(#paint12_linear_246_1515)"/>
<path d="M120.067 82.3033C119.72 83.9319 118.771 85.6803 117.017 87.1652C113.797 89.8908 109.633 90.5973 106.706 90.7123C106.344 90.7267 105.993 90.7338 105.626 90.7338C103.011 90.7338 100.395 90.3866 97.8648 90.0489L96.0719 89.8094C93.0401 89.4285 89.5469 89.1148 86.4651 90.2093L86.194 89.4333L85.9111 88.6286C89.3329 87.4119 93.0567 87.7424 96.2764 88.1496C96.878 88.2238 97.4796 88.3053 98.0836 88.3891C100.894 88.7627 103.802 89.1507 106.644 89.0405C109.31 88.9352 113.091 88.3029 115.949 85.8839C117.088 84.9259 118.089 83.5176 118.443 82.0279C118.644 81.2458 118.623 80.4229 118.384 79.652C118.28 79.3318 118.137 79.0261 117.958 78.7419C117.15 77.4557 115.697 76.6294 114.453 76.2606C112.606 75.7121 110.589 75.7816 108.634 75.851H108.563L108.537 75.1134L108.504 74.1769C110.511 74.1027 112.784 74.0188 114.924 74.6559C117.414 75.3936 119.299 77.0701 119.965 79.137C120.273 80.1654 120.308 81.2569 120.067 82.3033V82.3033Z" fill="#6BB3FF"/>
<path d="M120.101 81.3932C119.958 83.2685 119.014 85.424 116.917 87.2012C113.697 89.9243 109.531 90.6332 106.604 90.7458C106.245 90.7602 105.89 90.7674 105.524 90.7674C102.908 90.7674 100.293 90.4201 97.765 90.0824L95.9697 89.8429C92.9378 89.4621 89.4447 89.1483 86.3653 90.2429L85.8112 88.6621C85.9491 88.6142 86.0871 88.5663 86.2274 88.5232L86.4984 89.2992C89.5897 88.2047 93.0734 88.5184 96.1052 88.8992L97.8982 89.1387C100.431 89.4764 103.039 89.8237 105.66 89.8237C106.019 89.8237 106.373 89.8237 106.739 89.8022C109.666 89.6872 113.83 88.9807 117.05 86.2551C118.805 84.7702 119.754 83.0218 120.101 81.3932Z" fill="url(#paint13_linear_246_1515)"/>
<path d="M79.5977 80.7633L90.8453 83.3499L88.7027 93.263L81.2599 96.858L71.061 92.3864L77.9023 89.3064L79.5977 80.7633Z" fill="#6BB3FF"/>
<path d="M79.5977 80.7633L90.8453 83.3499L88.7027 93.263L81.2599 96.858L71.061 92.3864L77.9023 89.3064L79.5977 80.7633Z" fill="url(#paint14_linear_246_1515)"/>
<path d="M78.8606 80.5621L90.1081 83.1464L87.9656 93.0594L80.6678 96.6352L70.4689 92.1613L77.1651 89.1028L78.8606 80.5621Z" fill="#6BB3FF"/>
<path d="M78.5919 89.1483L87.2974 91.9146L89.1046 83.8888L80.0662 81.9345L78.5919 89.1483Z" fill="#6BB3FF"/>
<path d="M78.5919 89.1483L87.2974 91.9146L89.1046 83.8888L80.0662 81.9345L78.5919 89.1483Z" fill="url(#paint15_linear_246_1515)"/>
<path d="M118.208 78.7874L117.956 78.7395C117.147 77.4533 115.694 76.627 114.451 76.2582C112.603 75.7097 110.522 75.7792 108.568 75.851L108.546 75.0463C108.546 75.0463 112.827 74.8068 115.362 76.0331C116.969 76.8138 118.208 78.7874 118.208 78.7874Z" fill="url(#paint16_linear_246_1515)"/>
</g>
<defs>
<linearGradient id="paint0_linear_246_1515" x1="110.696" y1="84.4181" x2="120.836" y2="84.4181" gradientUnits="userSpaceOnUse">
<stop stop-opacity="0"/>
<stop offset="0.99"/>
</linearGradient>
<linearGradient id="paint1_linear_246_1515" x1="30.929" y1="85.0169" x2="117.314" y2="85.0169" gradientUnits="userSpaceOnUse">
<stop stop-opacity="0"/>
<stop offset="0.99"/>
</linearGradient>
<linearGradient id="paint2_linear_246_1515" x1="23.8238" y1="31.3703" x2="43.7979" y2="25.4256" gradientUnits="userSpaceOnUse">
<stop stop-opacity="0"/>
<stop offset="0.99"/>
</linearGradient>
<linearGradient id="paint3_linear_246_1515" x1="150.305" y1="-49.8433" x2="18.047" y2="94.332" gradientUnits="userSpaceOnUse">
<stop stop-color="white" stop-opacity="0"/>
<stop offset="0.99" stop-color="white"/>
</linearGradient>
<linearGradient id="paint4_linear_246_1515" x1="7.75396" y1="-7330.27" x2="50.9534" y2="3971.38" gradientUnits="userSpaceOnUse">
<stop stop-opacity="0"/>
<stop offset="0.99"/>
</linearGradient>
<linearGradient id="paint5_linear_246_1515" x1="35.9178" y1="19.7855" x2="37.2875" y2="19.7855" gradientUnits="userSpaceOnUse">
<stop stop-color="#ECC4D7"/>
<stop offset="0.42" stop-color="#EFD4D1"/>
<stop offset="1" stop-color="#F2EAC9"/>
</linearGradient>
<linearGradient id="paint6_linear_246_1515" x1="28.9862" y1="33.8779" x2="64.2461" y2="-10.8553" gradientUnits="userSpaceOnUse">
<stop stop-opacity="0"/>
<stop offset="0.99"/>
</linearGradient>
<linearGradient id="paint7_linear_246_1515" x1="28.5962" y1="25.0498" x2="31.2119" y2="25.0498" gradientUnits="userSpaceOnUse">
<stop stop-color="#ECC4D7"/>
<stop offset="0.42" stop-color="#EFD4D1"/>
<stop offset="1" stop-color="#F2EAC9"/>
</linearGradient>
<linearGradient id="paint8_linear_246_1515" x1="27.7663" y1="45.6184" x2="30.27" y2="44.997" gradientUnits="userSpaceOnUse">
<stop stop-opacity="0"/>
<stop offset="0.99"/>
</linearGradient>
<linearGradient id="paint9_linear_246_1515" x1="22.8227" y1="54.8202" x2="25.329" y2="54.8202" gradientUnits="userSpaceOnUse">
<stop stop-color="#ECC4D7"/>
<stop offset="0.42" stop-color="#EFD4D1"/>
<stop offset="1" stop-color="#F2EAC9"/>
</linearGradient>
<linearGradient id="paint10_linear_246_1515" x1="30.0158" y1="55.8692" x2="32.7552" y2="55.8692" gradientUnits="userSpaceOnUse">
<stop stop-color="#ECC4D7"/>
<stop offset="0.42" stop-color="#EFD4D1"/>
<stop offset="1" stop-color="#F2EAC9"/>
</linearGradient>
<linearGradient id="paint11_linear_246_1515" x1="35.9464" y1="27.2796" x2="13.1967" y2="1.14115" gradientUnits="userSpaceOnUse">
<stop stop-opacity="0"/>
<stop offset="0.99"/>
</linearGradient>
<linearGradient id="paint12_linear_246_1515" x1="69.2871" y1="87.8909" x2="69.2871" y2="76.7132" gradientUnits="userSpaceOnUse">
<stop stop-color="white" stop-opacity="0"/>
<stop offset="0.99" stop-color="white"/>
</linearGradient>
<linearGradient id="paint13_linear_246_1515" x1="119.903" y1="70.182" x2="20.0037" y2="164.549" gradientUnits="userSpaceOnUse">
<stop stop-opacity="0"/>
<stop offset="0.99"/>
</linearGradient>
<linearGradient id="paint14_linear_246_1515" x1="82.6747" y1="89.1843" x2="103.134" y2="104.62" gradientUnits="userSpaceOnUse">
<stop stop-opacity="0"/>
<stop offset="0.99"/>
</linearGradient>
<linearGradient id="paint15_linear_246_1515" x1="86.4247" y1="74.3757" x2="81.2682" y2="97.9611" gradientUnits="userSpaceOnUse">
<stop stop-color="white" stop-opacity="0"/>
<stop offset="0.99" stop-color="white"/>
</linearGradient>
<linearGradient id="paint16_linear_246_1515" x1="116.018" y1="74.3877" x2="99.2063" y2="90.266" gradientUnits="userSpaceOnUse">
<stop stop-opacity="0"/>
<stop offset="0.99"/>
</linearGradient>
<clipPath id="clip0_246_1515">
<rect width="137" height="104" fill="white"/>
</clipPath>
</defs>
</svg>
