<svg viewBox="0 0 184 266" fill="none" xmlns="http://www.w3.org/2000/svg">
<path d="M92.5097 265.539C88.6014 265.539 84.6366 265.199 80.6718 264.519C67.3612 262.254 55.2401 256.25 45.5546 247.131L20.1229 223.115C-0.324331 203.744 -5.42199 174.348 7.49207 149.992L9.7577 145.687C14.6854 136.342 16.4413 125.863 14.7421 115.498L13.8358 110.117C12.2499 101.848 15.0253 93.4648 21.1991 87.6308C28.1093 81.1171 37.7948 78.8515 47.0839 81.5702C56.203 84.2323 62.9432 91.1425 65.1522 100.035C65.2089 100.262 65.2655 100.488 65.2655 100.658L67.3046 112.383L140.711 42.4316C150.793 32.8026 166.822 33.1991 176.451 43.2245C181.152 48.0956 183.644 54.5526 183.531 61.3495C183.418 68.1464 180.586 74.4335 175.715 79.1347L137.086 116.008C139.295 117.254 141.334 118.896 143.146 120.766C149.037 127.109 150.793 135.662 148.527 143.422C154.135 145.631 158.779 149.822 161.668 155.316C165.236 162.17 165.463 169.93 162.744 176.84C165.349 177.973 167.842 179.559 169.994 181.598L170.051 181.654C175.205 186.525 178.037 192.982 178.037 199.893C178.037 206.746 175.262 213.146 170.164 217.961L154.248 232.971L141.787 219.773L157.703 204.764C159.119 203.461 159.855 201.705 159.855 199.893C159.855 198.023 159.062 196.268 157.59 194.851L157.533 194.795C154.814 192.189 150.226 192.133 147.564 194.682C143.939 198.137 138.162 197.967 134.764 194.342C131.308 190.717 131.478 184.939 135.103 181.541L143.43 173.668C146.375 170.892 147.225 166.871 145.582 163.699C144.109 160.867 141.617 160.074 140.314 159.848C137.992 159.451 135.67 160.131 134.141 161.603C130.516 165.059 124.738 164.889 121.34 161.264C117.941 157.639 118.055 151.861 121.68 148.463C121.68 148.463 121.68 148.463 121.736 148.463L129.326 141.269C131.762 138.947 132.045 135.492 129.949 133.226C128.646 131.81 126.777 131.017 124.795 130.961C122.812 130.904 120.943 131.584 119.641 132.83C116.016 136.285 110.295 136.115 106.84 132.49C103.385 128.865 103.555 123.144 107.18 119.689L163.31 66.164C164.726 64.8046 165.519 63.0487 165.519 61.123C165.576 59.1972 164.84 57.3847 163.537 55.9687C160.818 53.1366 156.23 53.0233 153.398 55.7421L73.3085 131.754L67.5311 137.191C65.0956 139.457 61.6405 140.25 58.4686 139.174C55.2968 138.098 52.9745 135.435 52.4081 132.094L47.537 104.057C46.5175 100.545 43.3456 99.2421 42.0429 98.8456C38.9843 97.9394 35.869 98.619 33.7167 100.658C32.0175 102.244 31.2811 104.453 31.7343 106.605C31.7343 106.719 31.7909 106.832 31.7909 106.889L32.6972 112.439C35.0194 126.769 32.6405 141.156 25.8436 154.014L23.578 158.318C14.5155 175.424 18.1972 196.098 32.6972 209.805L58.1288 233.82C72.2323 247.131 93.869 250.982 111.994 243.449L118.961 260.158C110.521 263.783 101.572 265.539 92.5097 265.539Z" fill="white"/>
<path d="M133.291 252.002L122.359 237.559C123.719 236.539 125.021 235.406 126.268 234.273L132.838 228.1L145.299 241.297L138.729 247.471C136.973 249.057 135.16 250.586 133.291 252.002Z" fill="white"/>
<path d="M65.0821 0.455315L64.7786 44.4651L82.9036 44.5901L83.2071 0.580323L65.0821 0.455315Z" fill="white"/>
<path d="M117.804 18.0025L89.4326 46.3423L102.242 59.1657L130.613 30.8259L117.804 18.0025Z" fill="white"/>
<path d="M29.9926 19.1283L17.2126 31.9807L45.2069 59.817L57.9868 46.9646L29.9926 19.1283Z" fill="white"/>
</svg>
