<svg viewBox="0 0 512 512" fill="none" xmlns="http://www.w3.org/2000/svg">
<path d="M423.51 61.53C418.49 56.5 412.59 54.02 405.76 54.02C398.94 54.02 392.96 56.5 388.01 61.53L360.96 88.5C353.71 83.8 346.03 79.7 338.01 76.03C329.99 72.36 321.79 69.21 313.51 66.48V25C313.51 18 311.13 12.11 306.26 7.25C301.4 2.39 295.51 0 288.51 0H236.46C229.8 0 224.01 2.39 218.97 7.25C214.02 12.11 211.54 18 211.54 25V62.98C202.84 65.02 194.39 67.58 186.28 70.74C178.09 73.9 170.33 77.48 162.99 81.49L133.03 51.96C128.34 47.02 122.63 44.46 115.71 44.46C108.88 44.46 103 47.02 97.96 51.96L61.53 88.5C56.5 93.53 54.02 99.42 54.02 106.23C54.02 113.06 56.5 119.04 61.53 123.98L88.5 151.04C83.8 158.3 79.71 165.97 76.04 173.99C72.36 182.01 69.21 190.21 66.48 198.48H25.01C18 198.48 12.11 200.87 7.25 205.74C2.39 210.6 0 216.49 0 223.49V275.54C0 282.19 2.39 288 7.25 293.04C12.11 297.98 18 300.46 25.01 300.46H62.98C65.02 309.16 67.58 317.61 70.74 325.71C73.91 333.91 77.49 341.84 81.49 349.52L51.97 378.96C47.02 383.66 44.46 389.37 44.46 396.29C44.46 403.11 47.02 409 51.97 414.04L88.5 450.99C93.53 455.68 99.42 457.99 106.25 457.99C113.07 457.99 119.04 455.68 124 450.99L151.04 423.51C158.3 428.2 165.98 432.29 174 435.97C182.02 439.63 190.21 442.8 198.49 445.52V487C198.49 494 200.88 499.88 205.74 504.74C210.6 509.61 216.5 512 223.49 512H275.54C282.2 512 288 509.61 293.04 504.74C297.98 499.88 300.46 494 300.46 487V449.02C309.16 446.98 317.61 444.42 325.71 441.26C333.91 438.1 341.85 434.52 349.52 430.51L378.96 460.04C383.66 464.99 389.45 467.54 396.47 467.54C403.54 467.54 409.34 464.99 414.04 460.04L450.99 423.51C455.68 418.47 457.99 412.59 457.99 405.76C457.99 398.94 455.68 392.96 450.99 388.01L423.51 360.96C428.21 353.7 432.3 346.03 435.97 338C439.63 329.99 442.8 321.79 445.53 313.51H487C494 313.51 499.88 311.11 504.74 306.26C509.61 301.39 512 295.51 512 288.51V236.46C512 229.8 509.61 224.01 504.74 218.96C499.88 214.01 494 211.54 487 211.54H449.02C446.98 203.18 444.42 194.81 441.26 186.54C438.1 178.17 434.52 170.33 430.51 162.98L460.04 133.03C464.99 128.34 467.54 122.62 467.54 115.71C467.54 108.88 464.99 103 460.04 97.96L423.51 61.53V61.53ZM375.1 319.51C352.38 362.03 307.56 390.95 256 390.95C204.42 390.95 159.63 362.03 136.91 319.53C139.57 307.92 143.96 297.79 156.81 290.69C174.57 280.8 205.15 281.54 219.7 268.45L239.8 321.23L249.9 292.46L244.95 287.04C241.23 281.6 242.51 275.42 249.41 274.3C251.74 273.93 254.36 274.16 256.88 274.16C259.57 274.16 262.56 273.91 265.1 274.48C271.51 275.89 272.17 282.1 268.98 287.04L264.03 292.46L274.14 321.23L292.32 268.45C305.44 280.25 340.75 282.63 355.2 290.69C368.09 297.91 372.46 307.93 375.1 319.51V319.51ZM215.99 233.06C214.17 233.09 212.68 232.86 211.06 231.96C208.91 230.77 207.39 228.72 206.36 226.41C204.19 221.55 202.47 208.78 207.93 205.12L206.91 204.46L206.8 203.05C206.59 200.48 206.54 197.37 206.48 194.1C206.28 182.1 206.03 167.54 196.11 164.63L191.86 163.37L194.67 159.99C202.68 150.35 211.05 141.92 219.49 135.45C229.04 128.12 238.75 123.25 248.24 121.84C258.01 120.4 267.47 122.59 276.21 129.46C278.78 131.49 281.29 133.94 283.71 136.79C293.02 137.67 300.65 142.56 306.09 149.54C309.33 153.7 311.8 158.63 313.38 163.87C314.94 169.09 315.62 174.64 315.33 180.1C314.8 189.9 311.13 199.45 303.72 206.43C305.02 206.47 306.25 206.76 307.33 207.34C311.47 209.49 311.6 214.16 310.52 218.09C309.44 221.37 308.08 225.17 306.79 228.37C305.23 232.68 302.94 233.49 298.52 233.02C288.59 276.47 228.54 277.95 215.99 233.06V233.06ZM256 97.37C343.64 97.37 414.63 168.41 414.63 256C414.63 343.64 343.59 414.63 256 414.63C168.37 414.63 97.37 343.59 97.37 256C97.37 168.36 168.41 97.37 256 97.37Z" fill="white"/>
</svg>
